if (_typeface_js && _typeface_js.loadFace) _typeface_js.loadFace({"glyphs":{"Ő":{"x_min":15,"x_max":555,"ha":575,"o":"m 210 -27 q 124 10 161 -22 q 63 99 88 44 q 27 225 39 154 q 15 375 15 297 q 35 581 15 477 q 97 771 55 686 q 202 912 139 857 q 348 971 264 966 q 441 934 401 966 q 505 849 480 901 q 542 730 530 797 q 555 588 555 663 q 544 441 555 516 q 512 296 533 366 q 461 164 491 226 q 392 59 431 103 q 308 -8 354 15 q 209 -27 261 -32 l 210 -27 m 441 569 q 434 666 441 619 q 415 749 428 712 q 381 813 401 786 q 332 853 360 841 q 250 799 287 847 q 186 678 212 751 q 144 520 159 606 q 130 354 130 435 q 134 265 130 307 q 150 189 139 223 q 178 132 161 155 q 218 100 195 109 q 309 138 268 96 q 380 248 351 180 q 425 402 409 317 q 441 569 441 486 m 328 855 q 330 854 329 854 q 332 853 330 854 q 335 853 333 853 q 339 854 336 854 l 328 855 m 235 1015 q 186 1013 204 1009 q 156 1026 168 1017 q 138 1047 145 1036 q 127 1067 132 1059 l 229 1212 q 281 1216 254 1222 q 333 1167 307 1211 l 235 1015 m 432 1001 q 393 994 412 992 q 359 1004 374 996 q 333 1022 344 1011 q 317 1040 322 1032 l 424 1207 q 454 1207 440 1207 q 482 1203 469 1207 q 508 1188 496 1199 q 531 1158 520 1178 l 432 1001 "},"Ž":{"x_min":12.203125,"x_max":874.90625,"ha":886,"o":"m 268 -76 q 153 -41 185 -74 q 120 43 120 -8 q 135 133 120 89 q 172 219 150 177 q 217 303 193 261 q 255 389 240 345 q 231 381 244 386 q 208 373 219 377 q 173 358 189 364 q 143 354 157 352 q 118 366 128 355 q 100 404 107 377 q 111 452 100 434 q 141 481 123 470 q 183 498 160 492 q 231 510 207 504 q 291 524 263 516 q 328 550 320 533 l 326 549 q 356 620 340 585 q 387 690 373 655 q 413 763 401 725 q 430 841 424 800 q 342 834 382 842 q 269 815 302 827 q 207 788 236 803 q 155 760 179 774 q 123 744 141 752 q 86 725 105 735 q 37 742 59 725 q 12 786 16 759 q 46 830 20 808 q 110 874 73 853 q 192 912 147 895 q 282 943 237 930 q 370 963 328 956 q 444 971 412 971 q 501 962 469 971 q 543 928 531 952 q 556 869 556 904 q 541 779 556 829 q 508 675 526 728 q 497 644 501 656 q 489 622 493 633 q 482 600 485 611 q 476 572 480 588 q 496 575 485 573 q 515 579 507 577 q 573 587 545 583 q 633 596 602 592 q 699 604 664 600 q 777 611 733 608 q 771 530 782 560 q 735 486 759 501 q 676 465 710 470 q 604 456 642 461 q 514 446 561 452 q 424 420 467 440 q 398 372 413 400 q 367 315 383 345 q 330 248 349 283 q 295 179 311 214 q 267 113 279 145 q 249 56 255 81 q 281 48 264 50 q 320 46 298 46 q 462 72 382 46 q 618 138 542 98 q 754 223 694 177 q 839 307 815 268 q 865 250 855 273 q 874 211 874 226 q 841 134 874 170 q 754 68 808 98 q 634 12 701 37 q 501 -30 568 -12 q 373 -60 434 -48 q 271 -76 311 -71 l 268 -76 m 411 980 q 377 951 396 957 q 329 945 359 945 l 186 1117 l 194 1133 q 204 1166 199 1151 q 219 1189 210 1182 q 245 1193 229 1197 q 286 1168 260 1189 l 354 1082 q 388 1124 371 1103 q 422 1166 404 1145 q 461 1199 445 1191 q 489 1199 477 1206 q 508 1172 500 1191 q 519 1125 515 1153 l 411 980 "},"Á":{"x_min":5.421875,"x_max":788.09375,"ha":819,"o":"m 187 429 q 214 527 200 478 q 240 618 227 577 q 260 690 252 660 q 271 730 268 719 q 275 747 274 738 q 279 768 276 756 q 295 843 286 802 q 321 919 305 885 q 362 978 337 954 q 421 1002 386 1002 q 452 991 438 1002 q 477 966 466 981 q 495 936 488 951 q 504 911 501 920 l 503 912 q 556 699 535 782 q 588 567 576 616 q 604 498 599 519 q 610 470 609 477 q 661 489 634 482 q 733 491 687 496 q 729 450 733 467 q 718 421 725 433 q 703 401 712 409 q 686 384 694 392 q 666 365 675 375 q 657 341 657 354 q 677 254 657 297 q 720 171 697 211 q 767 78 747 127 q 788 -30 788 30 q 713 -47 743 -53 q 662 -17 683 -42 q 627 46 641 7 q 600 127 613 84 q 564 226 585 175 q 516 303 542 277 q 483 292 507 300 q 429 272 459 284 q 367 247 400 261 q 307 217 335 232 q 259 188 279 202 q 236 162 240 174 l 236 163 q 191 29 214 97 q 147 -104 169 -38 q 116 -141 135 -136 q 77 -147 97 -147 q 27 -132 50 -147 q 5 -83 5 -118 l 187 429 m 290 340 q 341 351 311 344 q 400 369 370 358 q 459 394 431 380 q 510 426 488 407 q 489 517 501 460 q 461 633 476 574 q 431 740 446 691 q 404 806 416 789 l 290 340 m 426 1023 q 374 1017 392 1013 q 347 1029 357 1020 q 332 1053 338 1039 q 316 1077 327 1066 l 428 1228 q 457 1227 445 1228 q 479 1221 469 1226 q 500 1205 489 1215 q 521 1175 510 1195 l 426 1023 "},"ĥ":{"x_min":36.421875,"x_max":736.359375,"ha":753,"o":"m 215 1 q 186 -19 205 -13 q 149 -24 168 -25 q 115 -16 130 -23 q 100 2 100 -9 l 100 0 q 75 288 81 164 q 67 523 70 413 q 64 628 66 576 q 60 735 63 680 q 52 849 58 790 q 36 975 45 908 q 59 996 44 987 q 92 1010 74 1005 q 127 1018 109 1015 q 158 1018 144 1020 l 191 424 q 241 548 212 484 q 307 666 271 613 q 385 753 342 718 q 473 788 427 788 q 562 731 523 782 q 629 602 600 679 q 678 434 659 526 q 710 259 698 343 q 728 108 722 174 q 736 14 735 42 q 679 -2 702 -16 q 638 52 656 10 q 608 157 621 93 q 583 293 595 221 q 558 427 570 359 q 532 551 546 496 q 501 640 517 606 q 466 671 485 674 q 397 592 431 649 q 334 461 363 535 q 283 307 306 387 q 243 160 260 227 q 220 48 227 93 q 215 1 212 4 m 398 1222 q 433 1254 414 1249 q 482 1260 451 1260 l 600 1101 q 598 1080 600 1094 q 586 1055 596 1067 q 553 1038 576 1042 q 492 1047 531 1034 l 454 1091 q 440 1069 446 1078 q 427 1047 435 1060 q 395 1024 413 1029 q 361 1023 378 1019 q 329 1040 344 1028 q 306 1068 314 1052 l 398 1222 "},"Î":{"x_min":-59.578125,"x_max":234.765625,"ha":218,"o":"m 40 71 q 31 176 35 109 q 25 326 27 243 q 22 501 23 409 q 23 681 21 593 q 27 844 24 768 q 34 971 29 920 l 123 962 q 125 897 124 937 q 128 812 127 858 q 130 717 130 767 q 130 618 130 667 q 135 416 130 508 q 147 254 140 325 q 161 133 154 182 q 173 59 169 83 q 178 27 176 43 q 176 0 180 12 q 159 -21 172 -13 q 120 -30 147 -30 q 86 -18 100 -30 q 63 8 73 -6 q 48 41 54 24 q 40 71 43 59 m 32 1237 q 67 1269 48 1264 q 116 1275 85 1275 l 234 1116 q 232 1095 234 1109 q 220 1070 230 1082 q 187 1053 210 1057 q 126 1062 165 1049 l 88 1106 q 74 1084 80 1093 q 61 1062 69 1075 q 29 1039 47 1044 q -4 1038 12 1034 q -36 1055 -21 1043 q -59 1083 -51 1067 l 32 1237 "},"e":{"x_min":23,"x_max":544.609375,"ha":574,"o":"m 23 170 q 35 294 23 219 q 73 452 48 368 q 132 618 97 535 q 209 763 166 701 q 300 859 251 826 q 403 878 349 892 q 429 866 414 877 q 459 835 445 855 q 483 784 473 815 q 493 712 493 754 q 478 607 493 667 q 426 474 463 547 q 327 310 389 400 q 168 116 265 221 q 212 99 189 99 q 294 128 250 99 q 377 197 338 157 q 447 278 417 237 q 489 343 478 318 q 531 297 518 318 q 544 259 544 276 q 526 200 544 231 q 478 137 507 169 q 410 75 448 105 q 334 23 373 45 q 260 -11 296 1 q 199 -22 225 -23 q 133 -5 165 -22 q 77 39 101 11 q 37 100 52 66 q 23 170 23 134 m 368 717 q 359 748 368 743 q 311 716 335 746 q 263 642 286 687 q 219 543 240 598 q 182 436 198 489 q 155 335 165 382 q 144 259 145 288 q 212 339 173 282 q 285 466 251 397 q 344 604 320 535 q 368 717 368 672 m 363 748 l 358 748 l 363 748 m 355 750 q 356 748 355 748 l 355 750 "},"ļ":{"x_min":20.34375,"x_max":222.21875,"ha":241,"o":"m 131 961 q 153 627 145 766 q 166 395 161 489 q 174 243 172 300 q 179 153 177 185 q 181 115 180 128 q 182 95 181 102 q 183 83 183 87 q 187 71 184 78 q 193 48 189 60 q 177 -2 199 21 q 126 -26 155 -26 q 63 11 92 -26 l 20 966 q 39 1019 23 999 q 74 1040 55 1040 q 108 1022 92 1040 q 131 965 124 1004 l 131 961 m 212 -131 q 148 -261 170 -212 q 116 -336 125 -310 q 107 -370 106 -363 q 115 -376 108 -378 q 107 -379 110 -379 q 100 -380 104 -379 q 57 -364 70 -390 q 44 -292 44 -338 q 51 -211 44 -256 q 73 -129 59 -167 q 107 -64 87 -90 q 151 -39 127 -39 q 222 -97 186 -39 l 212 -131 "},"Ĕ":{"x_min":34.84375,"x_max":829.4375,"ha":841,"o":"m 307 -30 q 216 -21 263 -30 q 128 10 168 -12 q 61 69 87 32 q 35 162 35 105 q 43 229 33 196 q 69 291 54 261 q 104 349 85 321 q 141 400 123 376 q 153 416 147 408 q 164 431 158 424 q 121 440 145 433 q 78 461 97 447 q 45 499 58 476 q 38 558 33 523 q 75 692 46 621 q 149 823 103 763 q 255 922 194 882 q 388 963 316 963 q 435 949 412 961 q 474 919 457 937 q 500 882 491 901 q 510 844 510 862 q 492 805 510 821 q 431 786 473 789 q 393 838 420 820 q 334 851 365 857 q 273 815 305 844 q 214 747 241 786 q 169 664 187 707 q 151 587 151 621 q 163 551 151 565 q 204 537 175 538 q 270 553 236 535 q 337 595 304 572 q 399 633 368 615 q 463 652 430 650 q 483 651 471 652 q 507 646 495 650 q 528 630 520 641 q 536 600 536 619 q 496 533 536 565 q 402 467 456 501 q 320 413 362 443 q 241 349 277 383 q 181 274 205 314 q 158 188 158 234 q 168 140 158 159 q 195 110 178 121 q 237 96 213 100 q 286 92 261 92 q 423 117 357 92 q 549 184 488 143 q 663 277 609 226 q 764 382 716 329 l 829 382 q 800 290 829 337 q 724 196 771 242 q 619 109 677 150 q 502 37 560 68 q 392 -11 444 6 q 307 -30 341 -30 m 252 1140 q 308 1081 280 1096 q 358 1070 335 1066 q 402 1089 382 1073 q 438 1123 423 1106 q 461 1155 453 1141 q 472 1170 470 1170 q 497 1168 481 1170 q 526 1159 514 1167 q 541 1134 538 1151 q 530 1085 545 1117 q 487 1024 518 1047 q 419 988 457 1000 q 339 978 381 977 q 263 991 298 980 q 203 1024 227 1003 q 175 1073 179 1045 l 252 1140 "},"ò":{"x_min":16,"x_max":502,"ha":507,"o":"m 16 248 q 56 551 28 428 q 122 747 83 674 q 207 850 161 820 q 303 875 253 880 q 392 845 355 872 q 454 771 430 818 q 490 665 478 725 q 502 538 502 605 q 479 344 502 443 q 415 162 457 245 q 312 26 373 80 q 177 -31 252 -26 q 83 -1 116 -31 q 36 69 51 27 q 18 159 21 111 q 16 247 16 207 l 16 248 m 297 765 q 231 718 261 767 q 178 592 200 668 q 142 425 155 515 q 130 257 130 335 q 140 141 130 188 q 174 92 151 94 q 262 147 223 101 q 328 260 301 193 q 369 403 355 326 q 384 552 384 480 q 378 632 384 594 q 362 699 373 671 q 336 746 352 728 q 298 765 320 763 l 297 765 m 137 1094 q 157 1124 148 1113 q 178 1139 167 1135 q 201 1145 189 1144 q 229 1146 213 1146 l 342 995 q 336 966 342 983 q 317 936 330 949 q 286 918 304 923 q 244 924 267 912 l 137 1094 "},"ţ":{"x_min":-36.703125,"x_max":586.1875,"ha":499,"o":"m 243 21 q 226 -8 243 2 q 187 -25 209 -19 q 145 -32 165 -31 q 122 -34 126 -34 l 122 660 q 94 655 108 657 q 66 649 81 652 q 44 644 55 646 q 21 640 32 642 q -10 661 6 640 q -36 745 -27 682 q 10 758 -9 752 q 39 764 31 763 q 84 773 62 767 q 122 790 107 779 l 122 983 q 130 1007 122 992 q 155 1034 139 1022 q 193 1051 170 1045 q 243 1048 215 1056 l 245 823 q 417 855 327 838 q 586 888 508 873 q 576 836 586 859 q 552 796 567 813 q 523 769 538 779 q 495 755 507 759 q 449 743 474 750 q 397 731 424 737 q 312 712 354 721 q 243 694 270 702 l 243 21 l 243 21 m 265 -165 q 201 -295 223 -246 q 169 -370 178 -344 q 160 -404 159 -397 q 168 -410 161 -412 q 160 -413 163 -413 q 153 -414 157 -413 q 110 -398 123 -424 q 97 -326 97 -372 q 104 -245 97 -290 q 126 -163 112 -201 q 160 -98 140 -124 q 204 -73 180 -73 q 275 -131 239 -73 l 265 -165 "},"^":{"x_min":62.390625,"x_max":370.3125,"ha":429,"o":"m 160 691 q 194 726 176 721 q 246 731 212 731 l 370 534 q 360 516 360 519 q 358 509 359 512 q 347 480 354 494 q 331 459 341 466 q 304 456 321 452 q 261 480 287 459 l 214 557 q 200 536 207 545 q 185 513 193 527 q 168 472 180 489 q 139 451 155 455 q 102 457 122 447 q 62 496 82 467 l 160 691 "},"í":{"x_min":21.34375,"x_max":229,"ha":249,"o":"m 135 861 q 182 645 165 760 q 209 417 200 530 q 222 205 219 304 q 229 37 226 105 q 198 -17 229 -9 q 120 -17 167 -26 q 109 114 114 43 q 100 249 104 186 q 78 527 90 384 q 43 816 66 671 l 135 861 m 131 876 q 79 870 97 866 q 52 882 62 873 q 37 906 43 892 q 21 930 32 919 l 133 1081 q 162 1080 150 1081 q 184 1074 174 1079 q 205 1058 194 1068 q 226 1028 215 1048 l 131 876 "},"ˆ":{"x_min":24.421875,"x_max":318.765625,"ha":336,"o":"m 116 1077 q 151 1109 132 1104 q 200 1115 169 1115 l 318 956 q 316 935 318 949 q 304 910 314 922 q 271 893 294 897 q 210 902 249 889 l 172 946 q 158 924 164 933 q 145 902 153 915 q 113 879 131 884 q 79 878 96 874 q 47 895 62 883 q 24 923 32 907 l 116 1077 "},"ū":{"x_min":3.859375,"x_max":543.15625,"ha":574,"o":"m 187 -30 q 131 -11 156 -36 q 89 62 107 14 q 58 176 70 111 q 39 312 46 241 q 29 457 32 383 q 26 595 26 530 q 26 664 26 632 q 29 722 27 697 q 35 746 29 731 q 57 775 42 762 q 97 795 72 789 q 161 789 123 801 q 155 753 158 779 q 150 689 153 727 q 146 604 147 651 q 145 509 145 558 q 147 379 145 446 q 153 255 149 311 q 167 159 158 199 q 188 112 176 120 q 240 155 214 121 q 293 235 267 188 q 341 341 318 283 q 380 462 363 400 q 407 587 397 524 q 418 703 418 649 q 394 830 418 771 q 409 843 399 835 q 430 860 419 851 q 453 873 442 868 q 468 879 464 879 q 512 855 496 879 q 534 800 528 831 q 542 739 541 769 q 543 697 543 709 q 533 596 544 661 q 501 454 522 531 q 449 295 480 377 q 378 145 418 214 q 289 27 338 75 q 186 -30 241 -20 l 187 -30 m 3 978 q 6 1004 3 988 q 14 1036 9 1020 q 25 1065 18 1052 q 39 1086 32 1079 l 519 1071 l 527 957 l 3 978 "},"Ẅ":{"x_min":4.71875,"x_max":1287.265625,"ha":1308,"o":"m 908 -35 q 798 82 845 14 q 719 225 752 150 q 662 379 686 301 q 619 531 638 458 q 590 456 606 497 q 557 370 573 415 q 524 280 541 325 q 492 194 507 234 q 454 92 472 138 q 428 25 436 46 q 419 0 424 12 q 406 -18 415 -12 q 383 -27 397 -25 q 344 -23 368 -29 q 274 164 309 63 q 208 359 240 265 q 162 501 185 431 q 113 638 138 572 q 62 762 88 704 q 9 866 36 820 q 16 918 -2 892 q 59 960 35 944 q 155 807 113 888 q 230 644 198 727 q 288 480 263 561 q 333 329 313 400 q 346 280 341 298 q 354 249 351 263 q 362 225 358 236 q 373 198 366 214 q 436 354 408 280 q 488 492 465 428 q 524 586 505 541 q 560 667 542 632 q 596 726 577 702 q 633 756 614 750 q 649 754 638 756 l 660 751 q 700 697 687 740 q 724 588 713 653 l 724 590 q 745 480 733 539 q 777 360 756 421 q 828 239 797 298 q 907 130 859 180 q 940 264 925 181 q 971 442 954 347 q 999 599 984 520 q 1030 746 1013 678 q 1067 868 1047 815 q 1112 948 1087 921 q 1171 955 1143 961 q 1223 930 1200 948 q 1262 889 1246 912 q 1287 849 1279 866 q 1203 861 1214 861 q 1180 845 1186 861 q 1158 788 1173 830 q 1070 379 1115 588 q 983 -28 1026 170 q 961 -29 973 -28 q 937 -33 949 -31 q 908 -35 922 -34 m 516 948 q 506 988 504 965 q 517 1029 507 1011 q 544 1061 527 1048 q 580 1074 561 1074 q 611 1066 596 1074 q 638 1039 625 1058 l 636 1042 q 649 1002 649 1024 q 638 961 648 981 q 610 927 628 941 q 573 914 592 914 q 544 921 557 914 q 516 948 530 929 m 693 952 q 681 990 681 968 q 692 1032 682 1012 q 719 1065 702 1051 q 755 1079 736 1079 q 812 1046 788 1079 l 811 1047 q 827 1008 826 1031 q 820 964 828 985 q 795 930 812 944 q 756 916 778 916 q 694 951 724 916 l 693 952 "},"ȷ":{"x_min":-223.40625,"x_max":286,"ha":306,"o":"m -222 -473 q -215 -448 -226 -460 q -189 -426 -204 -436 q -158 -413 -173 -417 q -136 -413 -143 -409 l -143 -405 q -57 -454 -100 -439 q 21 -469 -14 -469 q 124 -433 84 -469 q 167 -345 164 -397 q 161 -236 165 -304 q 151 -83 157 -167 q 137 97 145 1 q 120 287 129 192 q 103 471 112 382 q 88 628 95 559 q 75 742 81 697 q 66 796 69 787 q 77 814 66 803 q 104 833 88 825 q 141 846 120 842 q 180 846 161 850 q 203 678 191 777 q 227 466 215 579 q 248 234 238 354 q 267 4 258 115 q 279 -202 275 -106 q 286 -363 284 -298 q 265 -464 286 -422 q 210 -531 245 -505 q 131 -568 176 -557 q 39 -579 86 -579 q -39 -571 0 -579 q -114 -551 -79 -564 q -176 -519 -149 -538 q -218 -481 -203 -501 l -222 -473 "},"ņ":{"x_min":37.921875,"x_max":610.921875,"ha":642,"o":"m 159 654 q 199 739 176 699 q 248 810 221 780 q 307 858 275 841 q 376 875 339 876 q 468 841 433 875 q 525 762 504 808 q 557 665 547 715 q 572 583 567 616 l 572 585 q 577 511 575 563 q 581 392 578 459 q 583 284 582 339 q 588 182 585 229 q 597 99 591 134 q 610 50 602 64 q 591 24 612 38 q 545 1 571 10 q 495 -6 518 -7 q 468 14 472 -4 l 469 12 q 448 185 450 88 q 444 381 445 282 q 441 522 444 454 q 433 642 439 590 q 414 724 427 695 q 377 752 401 754 q 312 714 340 750 q 261 619 283 677 q 224 489 240 562 q 197 343 208 416 q 179 202 187 270 q 168 87 172 134 q 150 1 170 26 q 105 -23 130 -22 q 58 -8 79 -23 q 38 22 36 5 l 38 689 q 44 730 38 709 q 66 766 51 750 q 104 791 81 781 q 159 800 127 800 l 159 654 m 298 -131 q 234 -261 256 -212 q 202 -336 211 -310 q 193 -370 192 -363 q 201 -376 194 -378 q 193 -379 196 -379 q 186 -380 190 -379 q 143 -364 156 -390 q 130 -292 130 -338 q 137 -211 130 -256 q 159 -129 145 -167 q 193 -64 173 -90 q 237 -39 213 -39 q 308 -97 272 -39 l 298 -131 "},"ỳ":{"x_min":19,"x_max":677,"ha":686,"o":"m 449 -581 q 377 -578 416 -581 q 301 -568 337 -575 q 238 -547 265 -560 q 199 -511 210 -533 l 210 -522 q 213 -500 206 -517 q 233 -466 221 -483 q 259 -437 245 -449 q 284 -431 274 -426 l 283 -431 q 404 -463 351 -463 q 482 -435 452 -463 q 528 -364 512 -407 q 550 -271 545 -321 q 556 -174 556 -220 q 553 -96 556 -130 q 549 -47 550 -62 q 543 38 546 -11 q 537 145 540 89 q 530 262 534 201 q 522 379 526 322 q 513 486 518 436 q 504 573 508 536 q 454 428 481 502 q 398 284 427 353 q 337 155 369 215 q 275 53 306 95 q 213 -11 244 10 q 151 -27 181 -34 q 94 19 119 -14 q 52 103 69 53 q 27 215 35 152 q 19 346 19 277 q 34 601 19 466 q 76 862 50 737 q 150 860 115 873 q 195 797 184 848 q 152 597 164 698 q 140 406 140 496 q 143 293 140 345 q 152 202 146 241 q 166 140 158 163 q 183 116 173 117 q 208 157 191 121 q 247 247 225 193 q 293 369 268 302 q 344 505 318 436 q 412 685 379 599 q 472 829 444 772 q 510 864 485 859 q 560 867 535 870 l 587 867 q 600 759 592 826 q 615 608 607 691 q 630 435 622 525 q 645 262 638 345 q 657 111 652 179 q 665 3 663 42 q 670 -65 667 -27 q 674 -132 672 -96 q 677 -203 677 -168 q 668 -322 677 -263 q 636 -432 660 -381 q 569 -522 613 -483 q 455 -579 526 -562 l 449 -581 m 211 1113 q 231 1143 222 1132 q 252 1158 241 1154 q 275 1164 263 1163 q 303 1165 287 1165 l 416 1014 q 410 985 416 1002 q 391 955 404 968 q 360 937 378 942 q 318 943 341 931 l 211 1113 "},"č":{"x_min":33,"x_max":576.453125,"ha":619,"o":"m 184 -27 q 115 -2 144 -22 q 67 50 85 17 q 41 124 49 82 q 33 215 33 166 q 47 355 33 280 q 85 503 61 430 q 140 645 108 577 q 208 765 172 713 q 282 849 244 817 q 355 883 320 881 q 429 865 397 883 q 482 821 461 848 q 514 760 504 794 q 525 692 525 726 q 514 625 525 660 q 480 557 503 590 q 437 578 452 565 q 414 606 421 590 q 405 640 406 622 q 404 677 404 658 q 403 704 404 691 q 399 727 402 717 q 387 744 395 737 q 364 751 379 751 q 309 719 336 751 q 259 639 282 688 q 217 530 236 591 q 185 413 198 470 q 165 308 172 356 q 158 235 158 260 l 158 218 q 158 180 158 201 q 161 138 158 158 q 173 105 164 119 q 198 92 182 92 q 277 119 233 92 q 363 186 320 146 q 446 271 406 226 q 516 351 486 315 q 527 366 518 355 q 545 388 536 376 q 563 409 555 399 q 574 421 571 418 q 566 320 581 372 q 522 218 551 268 q 452 124 492 169 q 366 46 411 79 q 274 -6 320 13 q 187 -27 228 -27 l 184 -27 m 411 941 q 377 912 396 918 q 329 906 359 906 l 186 1078 l 194 1094 q 204 1127 199 1112 q 219 1150 210 1143 q 245 1154 229 1158 q 286 1129 260 1150 l 354 1043 q 388 1085 371 1064 q 422 1127 404 1106 q 461 1160 445 1152 q 489 1160 477 1167 q 508 1133 500 1152 q 519 1086 515 1114 l 411 941 "},"’":{"x_min":87,"x_max":248,"ha":285,"o":"m 87 588 q 92 612 89 599 q 100 642 94 626 q 113 696 106 667 q 120 756 120 725 q 113 814 120 783 q 88 882 106 844 q 113 936 88 920 q 169 952 139 952 q 229 868 211 920 q 248 758 248 816 q 235 646 248 701 q 199 550 222 591 l 200 554 q 178 535 196 541 q 140 532 160 530 q 104 547 120 535 q 87 583 88 560 l 87 588 "},"-":{"x_min":46.703125,"x_max":573.78125,"ha":613,"o":"m 546 348 q 509 345 534 348 q 453 340 484 343 q 341 328 402 333 q 222 322 279 322 q 140 328 177 322 q 79 350 103 334 q 48 391 55 366 q 56 455 42 416 l 573 476 l 573 375 l 546 348 "},"Q":{"x_min":13,"x_max":730.15625,"ha":730,"o":"m 655 -28 q 603 -7 628 -28 q 555 42 578 13 q 514 102 533 72 q 480 152 495 133 q 440 94 461 123 q 390 42 420 65 q 320 3 360 19 q 223 -12 280 -12 q 126 37 166 -5 q 61 138 86 80 q 24 262 36 196 q 13 382 13 328 q 13 409 13 397 q 16 432 14 421 q 49 621 22 526 q 125 792 77 716 q 246 918 174 869 q 411 967 317 967 q 513 916 472 949 q 578 839 553 882 q 612 744 602 796 q 623 636 623 691 q 616 537 623 587 q 598 439 609 487 q 574 349 587 392 q 546 274 560 306 q 555 267 548 275 q 580 233 561 259 q 639 160 601 209 q 730 46 678 111 q 695 -10 713 7 q 655 -28 677 -28 m 141 357 q 145 285 141 328 q 163 203 150 242 q 198 138 176 165 q 256 111 221 111 q 307 128 280 111 q 355 172 333 146 q 392 226 378 197 q 406 275 406 254 q 396 300 406 285 q 374 332 386 315 q 364 343 368 340 q 355 353 360 346 q 343 376 351 360 q 325 424 336 391 q 407 420 375 424 q 466 397 439 417 q 492 495 483 440 q 502 610 502 550 q 496 688 502 650 q 478 758 491 726 q 446 815 466 790 q 396 854 425 840 q 352 843 374 852 q 313 817 329 833 l 368 762 q 281 740 318 763 q 219 679 244 717 q 178 595 193 642 q 154 503 162 549 q 143 419 146 458 q 141 357 141 380 "},"M":{"x_min":16.84375,"x_max":895.25,"ha":921,"o":"m 752 268 q 735 386 744 325 q 715 507 725 447 q 693 621 705 566 q 668 719 682 676 q 617 565 644 642 q 564 408 591 488 q 531 311 549 364 q 487 213 512 258 q 427 137 462 167 q 347 106 393 106 q 284 118 311 106 q 233 149 256 129 q 191 195 210 169 q 158 249 173 220 q 156 148 157 199 q 155 48 155 98 q 139 -4 155 13 q 97 -22 122 -22 q 33 15 63 -22 q 25 388 27 200 q 17 785 23 576 l 17 790 q 16 810 17 800 q 19 829 16 820 q 31 845 23 839 q 56 852 39 851 q 92 847 77 859 q 118 809 107 835 q 138 746 130 783 q 154 664 146 709 q 177 534 164 603 q 212 402 191 464 q 265 292 233 340 q 344 228 297 245 q 392 279 368 242 q 438 370 416 317 q 482 490 461 424 q 524 627 504 557 q 580 802 552 713 q 648 980 609 890 q 701 989 680 991 q 735 977 722 988 q 754 944 748 965 q 760 896 760 923 q 828 515 794 707 q 895 120 861 322 q 895 77 895 101 q 889 31 895 53 q 872 -7 884 9 q 838 -27 859 -24 q 809 -2 822 -25 q 788 60 797 20 q 769 153 778 100 q 752 268 760 207 "},"œ":{"x_min":11,"x_max":740.625,"ha":741,"o":"m 12 246 q 11 268 11 257 q 11 291 11 280 q 32 487 11 388 q 93 667 54 587 q 184 798 131 748 q 298 849 237 849 q 362 836 332 849 q 427 789 393 823 q 507 858 466 840 q 599 863 547 876 q 625 851 610 862 q 655 820 641 840 q 679 769 670 800 q 689 697 689 739 q 674 592 689 652 q 622 459 659 532 q 523 295 585 385 q 364 101 461 206 q 408 84 385 84 q 490 113 446 84 q 573 182 534 142 q 643 263 613 222 q 685 328 674 303 q 727 282 714 303 q 740 244 740 261 q 722 185 740 216 q 674 122 704 154 q 606 60 644 90 q 531 8 569 30 q 457 -26 492 -13 q 395 -37 421 -38 q 290 5 337 -34 q 173 -32 238 -25 q 92 8 123 -22 q 44 81 62 39 q 20 167 26 122 q 12 247 13 212 l 12 246 m 220 156 q 231 267 220 199 q 261 411 241 335 q 309 565 281 488 q 372 706 336 642 q 346 720 357 717 q 321 723 335 723 q 242 680 278 723 q 181 573 206 638 q 142 430 156 508 q 128 282 128 352 q 141 164 128 215 q 182 93 155 112 q 224 111 201 97 q 220 132 221 122 q 220 156 220 143 m 560 707 q 555 733 560 727 q 516 703 536 730 q 476 636 496 677 q 437 543 457 594 q 401 440 417 492 q 372 340 385 388 q 352 258 359 292 q 417 338 381 282 q 484 462 452 395 q 538 596 516 529 q 560 707 560 663 m 555 732 q 557 733 556 732 q 559 733 557 733 l 553 735 q 554 733 553 733 q 555 732 555 733 "},"ě":{"x_min":23,"x_max":544.609375,"ha":574,"o":"m 23 170 q 35 294 23 219 q 73 452 48 368 q 132 618 97 535 q 209 763 166 701 q 300 859 251 826 q 403 878 349 892 q 429 866 414 877 q 459 835 445 855 q 483 784 473 815 q 493 712 493 754 q 478 607 493 667 q 426 474 463 547 q 327 310 389 400 q 168 116 265 221 q 212 99 189 99 q 294 128 250 99 q 377 197 338 157 q 447 278 417 237 q 489 343 478 318 q 531 297 518 318 q 544 259 544 276 q 526 200 544 231 q 478 137 507 169 q 410 75 448 105 q 334 23 373 45 q 260 -11 296 1 q 199 -22 225 -23 q 133 -5 165 -22 q 77 39 101 11 q 37 100 52 66 q 23 170 23 134 m 368 717 q 359 748 368 743 q 311 716 335 746 q 263 642 286 687 q 219 543 240 598 q 182 436 198 489 q 155 335 165 382 q 144 259 145 288 q 212 339 173 282 q 285 466 251 397 q 344 604 320 535 q 368 717 368 672 m 363 748 l 358 748 l 363 748 m 355 750 q 356 748 355 748 l 355 750 m 381 940 q 347 911 366 917 q 299 905 329 905 l 156 1077 l 164 1093 q 174 1126 169 1111 q 189 1149 180 1142 q 215 1153 199 1157 q 256 1128 230 1149 l 324 1042 q 358 1084 341 1063 q 392 1126 374 1105 q 431 1159 415 1151 q 459 1159 447 1166 q 478 1132 470 1151 q 489 1085 485 1113 l 381 940 "},"ũ":{"x_min":-3.078125,"x_max":601.890625,"ha":574,"o":"m 187 -30 q 131 -11 156 -36 q 89 62 107 14 q 58 176 70 111 q 39 312 46 241 q 29 457 32 383 q 26 595 26 530 q 26 664 26 632 q 29 722 27 697 q 35 746 29 731 q 57 775 42 762 q 97 795 72 789 q 161 789 123 801 q 155 753 158 779 q 150 689 153 727 q 146 604 147 651 q 145 509 145 558 q 147 379 145 446 q 153 255 149 311 q 167 159 158 199 q 188 112 176 120 q 240 155 214 121 q 293 235 267 188 q 341 341 318 283 q 380 462 363 400 q 407 587 397 524 q 418 703 418 649 q 394 830 418 771 q 409 843 399 835 q 430 860 419 851 q 453 873 442 868 q 468 879 464 879 q 512 855 496 879 q 534 800 528 831 q 542 739 541 769 q 543 697 543 709 q 533 596 544 661 q 501 454 522 531 q 449 295 480 377 q 378 145 418 214 q 289 27 338 75 q 186 -30 241 -20 l 187 -30 m -3 937 q 3 980 -3 950 q 24 1038 9 1009 q 65 1090 40 1068 q 128 1112 90 1112 q 206 1093 173 1112 q 270 1051 239 1075 q 324 1016 296 1032 q 387 1000 352 1000 q 435 1011 413 998 q 476 1041 458 1023 q 507 1080 494 1060 q 528 1115 520 1101 q 546 1111 535 1118 q 570 1092 558 1103 q 589 1067 581 1080 q 597 1042 597 1053 l 601 1052 q 580 998 601 1025 q 528 949 559 972 q 460 913 497 927 q 393 900 424 900 q 257 933 317 901 q 136 1011 197 966 q 114 982 120 1005 q 104 935 108 958 q 97 905 101 920 q 85 869 94 891 q 48 877 64 869 q 20 896 32 885 q 3 918 9 907 q -3 937 -3 930 "},"ŭ":{"x_min":26,"x_max":543.15625,"ha":574,"o":"m 187 -30 q 131 -11 156 -36 q 89 62 107 14 q 58 176 70 111 q 39 312 46 241 q 29 457 32 383 q 26 595 26 530 q 26 664 26 632 q 29 722 27 697 q 35 746 29 731 q 57 775 42 762 q 97 795 72 789 q 161 789 123 801 q 155 753 158 779 q 150 689 153 727 q 146 604 147 651 q 145 509 145 558 q 147 379 145 446 q 153 255 149 311 q 167 159 158 199 q 188 112 176 120 q 240 155 214 121 q 293 235 267 188 q 341 341 318 283 q 380 462 363 400 q 407 587 397 524 q 418 703 418 649 q 394 830 418 771 q 409 843 399 835 q 430 860 419 851 q 453 873 442 868 q 468 879 464 879 q 512 855 496 879 q 534 800 528 831 q 542 739 541 769 q 543 697 543 709 q 533 596 544 661 q 501 454 522 531 q 449 295 480 377 q 378 145 418 214 q 289 27 338 75 q 186 -30 241 -20 l 187 -30 m 191 1056 q 247 997 219 1012 q 297 986 274 982 q 341 1005 321 989 q 377 1039 362 1022 q 400 1071 392 1057 q 411 1086 409 1086 q 436 1084 420 1086 q 465 1075 453 1083 q 480 1050 477 1067 q 469 1001 484 1033 q 426 940 457 963 q 358 904 396 916 q 278 894 320 893 q 202 907 237 896 q 142 940 166 919 q 114 989 118 961 l 191 1056 "},"{":{"x_min":37,"x_max":549.5,"ha":642,"o":"m 203 -81 q 238 13 218 -27 q 279 92 257 54 q 325 180 305 137 q 351 271 346 223 l 351 268 q 337 343 351 313 q 303 395 324 374 q 258 429 282 416 q 214 452 234 443 q 166 479 185 467 q 148 518 148 490 q 177 568 150 555 q 236 588 203 580 q 271 599 255 592 q 294 617 287 606 q 226 663 270 633 q 141 729 183 694 q 68 802 99 764 q 37 867 37 839 q 59 969 37 918 q 122 1063 81 1021 q 218 1131 163 1105 q 339 1158 274 1158 q 418 1147 381 1158 q 484 1117 456 1137 q 527 1065 511 1096 q 543 991 543 1034 q 493 973 511 976 q 464 975 475 970 q 447 990 453 980 q 437 1011 441 1000 q 421 1032 433 1023 q 393 1047 408 1041 q 362 1056 378 1053 q 335 1059 346 1059 q 260 1044 294 1059 q 200 1007 225 1030 q 161 953 175 984 q 147 890 147 923 q 202 818 160 851 q 293 755 244 786 q 356 712 324 734 q 422 656 388 690 q 422 647 422 653 q 423 635 422 641 q 426 615 426 622 q 407 559 426 574 q 363 531 389 543 q 354 527 358 528 q 346 523 351 526 q 427 422 393 475 q 476 295 461 368 q 473 223 480 256 q 453 159 466 189 q 423 100 440 128 q 386 44 405 73 q 346 -18 366 14 q 312 -88 327 -51 q 347 -128 320 -119 q 407 -137 374 -137 q 448 -134 426 -137 q 489 -130 470 -132 q 499 -130 491 -130 q 519 -129 508 -130 q 539 -128 530 -128 q 549 -128 548 -128 q 512 -178 534 -157 q 466 -214 491 -199 q 416 -236 440 -229 q 371 -244 392 -244 q 305 -229 336 -244 q 251 -193 274 -215 q 215 -142 228 -170 q 202 -88 202 -115 l 203 -81 "},"#":{"x_min":17.78125,"x_max":846.15625,"ha":876,"o":"m 278 164 q 185 140 229 147 q 113 132 142 132 q 34 157 54 132 q 43 221 14 181 l 274 294 q 266 389 269 347 q 259 489 263 431 q 212 468 238 480 q 162 446 186 457 q 118 426 137 435 q 89 415 98 417 q 27 445 41 415 q 19 523 13 476 q 35 532 25 526 q 49 539 45 538 q 156 577 104 557 q 256 633 208 598 l 256 820 q 269 845 256 834 q 301 862 283 855 q 338 871 319 869 q 368 872 357 873 l 377 670 q 416 682 394 675 q 453 694 438 689 q 457 727 456 713 q 459 756 459 741 q 458 784 459 771 q 456 811 457 797 q 455 832 455 822 q 455 854 455 843 q 459 892 455 876 q 475 918 463 908 q 509 933 487 929 q 568 935 531 937 q 568 873 568 907 q 569 817 569 839 q 570 785 570 801 q 570 733 570 769 q 685 769 626 751 q 797 804 744 788 q 833 762 817 788 q 844 701 850 736 l 583 600 q 591 500 587 546 q 599 397 595 454 q 641 406 622 401 q 679 416 660 411 q 713 425 697 420 q 748 434 730 430 q 789 441 766 438 q 842 447 811 444 q 834 382 842 406 q 810 343 826 358 q 771 321 795 329 q 717 305 747 313 q 669 290 694 298 q 612 269 644 283 q 617 132 614 203 q 622 -2 620 62 q 562 -16 584 -23 q 527 13 539 -10 q 510 75 515 37 q 503 151 505 112 q 500 196 500 180 q 494 234 501 211 q 444 215 471 225 q 390 195 417 206 q 392 177 391 187 q 393 155 393 168 q 390 96 393 128 q 384 34 388 63 q 371 -18 379 5 q 350 -52 363 -42 q 319 -59 337 -63 q 278 -28 301 -55 l 278 164 m 378 534 q 384 436 380 480 q 390 335 387 392 q 427 348 409 341 q 469 362 445 355 q 467 413 467 389 q 466 461 466 438 q 465 509 466 484 q 464 564 465 534 l 378 534 "},"Ê":{"x_min":34.84375,"x_max":829.4375,"ha":841,"o":"m 307 -30 q 216 -21 263 -30 q 128 10 168 -12 q 61 69 87 32 q 35 162 35 105 q 43 229 33 196 q 69 291 54 261 q 104 349 85 321 q 141 400 123 376 q 153 416 147 408 q 164 431 158 424 q 121 440 145 433 q 78 461 97 447 q 45 499 58 476 q 38 558 33 523 q 75 692 46 621 q 149 823 103 763 q 255 922 194 882 q 388 963 316 963 q 435 949 412 961 q 474 919 457 937 q 500 882 491 901 q 510 844 510 862 q 492 805 510 821 q 431 786 473 789 q 393 838 420 820 q 334 851 365 857 q 273 815 305 844 q 214 747 241 786 q 169 664 187 707 q 151 587 151 621 q 163 551 151 565 q 204 537 175 538 q 270 553 236 535 q 337 595 304 572 q 399 633 368 615 q 463 652 430 650 q 483 651 471 652 q 507 646 495 650 q 528 630 520 641 q 536 600 536 619 q 496 533 536 565 q 402 467 456 501 q 320 413 362 443 q 241 349 277 383 q 181 274 205 314 q 158 188 158 234 q 168 140 158 159 q 195 110 178 121 q 237 96 213 100 q 286 92 261 92 q 423 117 357 92 q 549 184 488 143 q 663 277 609 226 q 764 382 716 329 l 829 382 q 800 290 829 337 q 724 196 771 242 q 619 109 677 150 q 502 37 560 68 q 392 -11 444 6 q 307 -30 341 -30 m 295 1199 q 330 1231 311 1226 q 379 1237 348 1237 l 497 1078 q 495 1057 497 1071 q 483 1032 493 1044 q 450 1015 473 1019 q 389 1024 428 1011 l 351 1068 q 337 1046 343 1055 q 324 1024 332 1037 q 292 1001 310 1006 q 258 1000 275 996 q 226 1017 241 1005 q 203 1045 211 1029 l 295 1199 "},")":{"x_min":-7.953125,"x_max":381,"ha":391,"o":"m 381 246 q 366 107 381 170 q 322 -1 352 44 q 245 -72 291 -47 q 138 -95 199 -97 q 83 -79 101 -93 q 59 -45 65 -65 q 58 -6 53 -26 q 74 24 63 13 q 160 38 125 24 q 217 81 195 52 q 250 156 240 110 q 262 268 260 203 q 253 389 262 321 q 231 529 245 458 q 196 672 217 601 q 152 799 176 742 q 102 893 129 855 q 47 938 76 931 q -3 980 5 955 q -4 1026 -12 1004 q 17 1063 2 1048 q 39 1075 32 1077 q 152 1025 101 1075 q 240 898 202 976 q 305 725 278 821 q 348 538 332 630 q 372 367 364 445 q 381 246 381 289 "},"ș":{"x_min":21.703125,"x_max":531.15625,"ha":552,"o":"m 279 -30 q 188 -17 231 -25 q 109 7 145 -9 q 50 50 74 24 q 21 116 27 77 q 101 109 70 116 q 160 96 132 103 q 212 82 185 88 q 267 76 240 76 q 316 82 290 76 q 364 100 343 88 q 400 131 386 112 q 415 177 415 150 q 400 230 415 203 q 362 286 385 257 q 310 341 339 314 q 253 394 282 369 q 183 459 218 425 q 120 528 147 492 q 74 603 92 564 q 56 683 56 641 q 80 761 56 725 q 140 821 104 796 q 217 860 176 846 q 295 875 259 875 q 356 866 325 877 q 411 833 387 855 q 445 777 434 811 q 446 699 457 743 l 447 701 q 426 652 440 665 q 396 638 412 638 q 364 652 379 638 q 333 684 348 665 q 333 712 333 698 q 331 738 333 727 q 324 757 329 750 q 310 765 320 765 q 265 758 288 765 q 223 740 242 752 q 190 710 203 728 q 177 668 177 691 q 183 638 173 656 q 212 598 193 619 q 257 551 230 576 q 311 499 283 526 q 396 417 354 459 q 472 330 439 374 q 520 242 504 287 q 527 154 537 197 l 527 157 q 501 64 522 101 q 447 7 480 28 q 372 -21 415 -13 q 280 -30 329 -30 l 279 -30 m 256 -131 q 192 -261 214 -212 q 160 -336 169 -310 q 151 -370 150 -363 q 159 -376 152 -378 q 151 -379 154 -379 q 144 -380 148 -379 q 101 -364 114 -390 q 88 -292 88 -338 q 95 -211 88 -256 q 117 -129 103 -167 q 151 -64 131 -90 q 195 -39 171 -39 q 266 -97 230 -39 l 256 -131 "},"Å":{"x_min":5.421875,"x_max":788.09375,"ha":819,"o":"m 187 429 q 214 527 200 478 q 240 618 227 577 q 260 690 252 660 q 271 730 268 719 q 275 747 274 738 q 279 768 276 756 q 295 843 286 802 q 321 919 305 885 q 362 978 337 954 q 421 1002 386 1002 q 452 991 438 1002 q 477 966 466 981 q 495 936 488 951 q 504 911 501 920 l 503 912 q 556 699 535 782 q 588 567 576 616 q 604 498 599 519 q 610 470 609 477 q 661 489 634 482 q 733 491 687 496 q 729 450 733 467 q 718 421 725 433 q 703 401 712 409 q 686 384 694 392 q 666 365 675 375 q 657 341 657 354 q 677 254 657 297 q 720 171 697 211 q 767 78 747 127 q 788 -30 788 30 q 713 -47 743 -53 q 662 -17 683 -42 q 627 46 641 7 q 600 127 613 84 q 564 226 585 175 q 516 303 542 277 q 483 292 507 300 q 429 272 459 284 q 367 247 400 261 q 307 217 335 232 q 259 188 279 202 q 236 162 240 174 l 236 163 q 191 29 214 97 q 147 -104 169 -38 q 116 -141 135 -136 q 77 -147 97 -147 q 27 -132 50 -147 q 5 -83 5 -118 l 187 429 m 290 340 q 341 351 311 344 q 400 369 370 358 q 459 394 431 380 q 510 426 488 407 q 489 517 501 460 q 461 633 476 574 q 431 740 446 691 q 404 806 416 789 l 290 340 m 376 1033 q 286 1060 313 1035 q 259 1117 259 1085 q 273 1166 259 1142 q 313 1210 288 1191 q 372 1240 338 1230 q 443 1245 405 1250 q 523 1203 498 1230 q 549 1146 549 1176 q 536 1103 549 1124 q 502 1066 524 1082 q 448 1040 479 1049 q 376 1033 416 1030 m 418 1150 q 380 1144 395 1150 q 366 1131 366 1138 q 383 1120 366 1127 q 426 1130 410 1123 q 441 1143 441 1136 q 418 1150 441 1149 "},"¸":{"x_min":77,"x_max":390.65625,"ha":410,"o":"m 78 -242 q 85 -214 73 -227 q 115 -193 97 -201 q 150 -185 132 -185 q 173 -196 168 -185 q 206 -238 183 -223 q 252 -253 229 -253 q 274 -246 264 -253 q 287 -228 284 -239 q 264 -182 284 -201 q 218 -147 244 -162 q 181 -123 199 -135 q 148 -94 162 -111 q 124 -57 134 -78 q 115 -8 115 -36 q 120 64 104 43 q 158 85 135 85 q 181 78 169 85 q 202 58 193 71 q 217 28 211 45 q 219 -9 222 10 q 239 -28 226 -19 q 268 -49 252 -38 l 267 -49 q 309 -80 287 -63 q 349 -118 330 -97 q 379 -164 367 -138 q 390 -222 390 -189 q 351 -331 387 -296 q 264 -366 316 -366 q 166 -334 217 -366 q 81 -246 115 -303 l 78 -242 "},"a":{"x_min":16,"x_max":828.59375,"ha":779,"o":"m 153 -30 q 47 35 79 -27 q 16 196 16 98 q 27 328 16 257 q 60 469 39 398 q 110 607 81 539 q 174 730 139 675 q 246 823 208 785 q 325 876 284 862 q 417 848 383 876 q 470 781 451 821 q 491 816 479 801 q 515 835 502 831 q 542 829 528 839 q 569 791 555 820 q 545 559 553 656 q 538 397 538 462 q 545 277 538 322 q 566 205 553 231 q 598 167 580 178 q 639 150 616 155 l 638 151 q 675 153 658 147 q 707 170 692 159 q 734 196 722 181 q 757 226 747 211 q 781 254 766 237 q 821 296 795 271 q 824 209 833 256 q 789 123 814 162 q 726 60 764 85 q 642 37 687 36 q 555 57 592 37 q 494 109 519 77 q 453 181 469 140 q 429 265 437 222 q 383 164 409 216 q 323 69 357 112 q 247 -2 290 25 q 154 -30 205 -30 l 153 -30 m 410 587 q 406 638 410 608 q 392 695 402 668 q 369 741 383 722 q 333 762 354 760 q 293 733 315 760 q 247 661 270 706 q 201 559 223 616 q 162 441 179 502 q 133 319 144 380 q 123 208 123 258 q 134 128 123 161 q 173 87 146 95 l 170 89 q 213 107 190 85 q 260 169 236 129 q 307 260 284 208 q 350 369 330 313 q 385 483 369 426 q 410 587 401 539 "},"Ę":{"x_min":34.84375,"x_max":829.4375,"ha":841,"o":"m 307 -30 q 216 -21 263 -30 q 128 10 168 -12 q 61 69 87 32 q 35 162 35 105 q 43 229 33 196 q 69 291 54 261 q 104 349 85 321 q 141 400 123 376 q 153 416 147 408 q 164 431 158 424 q 121 440 145 433 q 78 461 97 447 q 45 499 58 476 q 38 558 33 523 q 75 692 46 621 q 149 823 103 763 q 255 922 194 882 q 388 963 316 963 q 435 949 412 961 q 474 919 457 937 q 500 882 491 901 q 510 844 510 862 q 492 805 510 821 q 431 786 473 789 q 393 838 420 820 q 334 851 365 857 q 273 815 305 844 q 214 747 241 786 q 169 664 187 707 q 151 587 151 621 q 163 551 151 565 q 204 537 175 538 q 270 553 236 535 q 337 595 304 572 q 399 633 368 615 q 463 652 430 650 q 483 651 471 652 q 507 646 495 650 q 528 630 520 641 q 536 600 536 619 q 496 533 536 565 q 402 467 456 501 q 320 413 362 443 q 241 349 277 383 q 181 274 205 314 q 158 188 158 234 q 168 140 158 159 q 195 110 178 121 q 237 96 213 100 q 286 92 261 92 q 423 117 357 92 q 549 184 488 143 q 663 277 609 226 q 764 382 716 329 l 829 382 q 800 290 829 337 q 724 196 771 242 q 619 109 677 150 q 502 37 560 68 q 392 -11 444 6 q 307 -30 341 -30 m 715 -64 q 664 -96 695 -85 q 602 -107 633 -107 q 554 -100 578 -107 q 512 -78 530 -93 q 482 -39 494 -63 q 471 16 471 -15 q 476 49 471 26 q 495 99 481 73 q 531 148 509 125 q 586 181 553 171 l 652 125 q 597 73 617 102 q 577 24 577 45 q 583 3 577 12 q 604 -5 589 -5 q 614 -4 610 -5 q 624 -4 619 -4 q 662 -5 642 -2 q 709 -22 682 -8 l 715 -64 "},"=":{"x_min":70.734375,"x_max":671.4375,"ha":753,"o":"m 120 395 q 84 420 96 405 q 71 451 73 435 q 75 482 69 467 q 94 507 82 497 l 588 537 q 602 532 592 537 q 623 522 613 528 q 641 505 633 515 q 649 482 649 494 q 635 450 649 467 q 583 417 621 432 l 120 395 m 139 217 q 104 242 113 226 q 94 276 94 259 q 103 309 94 292 q 122 333 111 325 l 615 363 q 630 359 621 363 q 648 347 638 355 q 664 330 657 340 q 671 307 671 320 q 657 273 671 291 q 602 238 642 254 l 139 217 "},"˚":{"x_min":11,"x_max":301,"ha":306,"o":"m 128 862 q 38 889 65 864 q 11 946 11 914 q 25 995 11 971 q 65 1039 40 1020 q 124 1069 90 1059 q 195 1074 157 1079 q 275 1032 250 1059 q 301 975 301 1005 q 288 932 301 953 q 254 895 276 911 q 200 869 231 878 q 128 862 168 859 m 170 979 q 132 973 147 979 q 118 960 118 967 q 135 949 118 956 q 178 959 162 952 q 193 972 193 965 q 170 979 193 978 "},"ú":{"x_min":26,"x_max":543.15625,"ha":574,"o":"m 187 -30 q 131 -11 156 -36 q 89 62 107 14 q 58 176 70 111 q 39 312 46 241 q 29 457 32 383 q 26 595 26 530 q 26 664 26 632 q 29 722 27 697 q 35 746 29 731 q 57 775 42 762 q 97 795 72 789 q 161 789 123 801 q 155 753 158 779 q 150 689 153 727 q 146 604 147 651 q 145 509 145 558 q 147 379 145 446 q 153 255 149 311 q 167 159 158 199 q 188 112 176 120 q 240 155 214 121 q 293 235 267 188 q 341 341 318 283 q 380 462 363 400 q 407 587 397 524 q 418 703 418 649 q 394 830 418 771 q 409 843 399 835 q 430 860 419 851 q 453 873 442 868 q 468 879 464 879 q 512 855 496 879 q 534 800 528 831 q 542 739 541 769 q 543 697 543 709 q 533 596 544 661 q 501 454 522 531 q 449 295 480 377 q 378 145 418 214 q 289 27 338 75 q 186 -30 241 -20 l 187 -30 m 304 914 q 252 908 270 904 q 225 920 235 911 q 210 944 216 930 q 194 968 205 957 l 306 1119 q 335 1118 323 1119 q 357 1112 347 1117 q 378 1096 367 1106 q 399 1066 388 1086 l 304 914 "},"¯":{"x_min":10.859375,"x_max":534.4375,"ha":552,"o":"m 10 886 q 13 912 10 896 q 21 944 16 928 q 32 973 25 960 q 46 994 39 987 l 526 979 l 534 865 l 10 886 "},"Z":{"x_min":12.203125,"x_max":874.90625,"ha":886,"o":"m 268 -76 q 153 -41 185 -74 q 120 43 120 -8 q 135 133 120 89 q 172 219 150 177 q 217 303 193 261 q 255 389 240 345 q 231 381 244 386 q 208 373 219 377 q 173 358 189 364 q 143 354 157 352 q 118 366 128 355 q 100 404 107 377 q 111 452 100 434 q 141 481 123 470 q 183 498 160 492 q 231 510 207 504 q 291 524 263 516 q 328 550 320 533 l 326 549 q 356 620 340 585 q 387 690 373 655 q 413 763 401 725 q 430 841 424 800 q 342 834 382 842 q 269 815 302 827 q 207 788 236 803 q 155 760 179 774 q 123 744 141 752 q 86 725 105 735 q 37 742 59 725 q 12 786 16 759 q 46 830 20 808 q 110 874 73 853 q 192 912 147 895 q 282 943 237 930 q 370 963 328 956 q 444 971 412 971 q 501 962 469 971 q 543 928 531 952 q 556 869 556 904 q 541 779 556 829 q 508 675 526 728 q 497 644 501 656 q 489 622 493 633 q 482 600 485 611 q 476 572 480 588 q 496 575 485 573 q 515 579 507 577 q 573 587 545 583 q 633 596 602 592 q 699 604 664 600 q 777 611 733 608 q 771 530 782 560 q 735 486 759 501 q 676 465 710 470 q 604 456 642 461 q 514 446 561 452 q 424 420 467 440 q 398 372 413 400 q 367 315 383 345 q 330 248 349 283 q 295 179 311 214 q 267 113 279 145 q 249 56 255 81 q 281 48 264 50 q 320 46 298 46 q 462 72 382 46 q 618 138 542 98 q 754 223 694 177 q 839 307 815 268 q 865 250 855 273 q 874 211 874 226 q 841 134 874 170 q 754 68 808 98 q 634 12 701 37 q 501 -30 568 -12 q 373 -60 434 -48 q 271 -76 311 -71 l 268 -76 "},"":{"x_min":89.53125,"x_max":267.21875,"ha":403,"o":"m 257 -131 q 193 -261 215 -212 q 161 -336 170 -310 q 152 -370 151 -363 q 160 -376 153 -378 q 152 -379 155 -379 q 145 -380 149 -379 q 102 -364 115 -390 q 89 -292 89 -338 q 96 -211 89 -256 q 118 -129 104 -167 q 152 -64 132 -90 q 196 -39 172 -39 q 267 -97 231 -39 l 257 -131 "},"u":{"x_min":26,"x_max":543.15625,"ha":563,"o":"m 187 -30 q 131 -11 156 -36 q 89 62 107 14 q 58 176 70 111 q 39 312 46 241 q 29 457 32 383 q 26 595 26 530 q 26 664 26 632 q 29 722 27 697 q 35 746 29 731 q 57 775 42 762 q 97 795 72 789 q 161 789 123 801 q 155 753 158 779 q 150 689 153 727 q 146 604 147 651 q 145 509 145 558 q 147 379 145 446 q 153 255 149 311 q 167 159 158 199 q 188 112 176 120 q 240 155 214 121 q 293 235 267 188 q 341 341 318 283 q 380 462 363 400 q 407 587 397 524 q 418 703 418 649 q 394 830 418 771 q 409 843 399 835 q 430 860 419 851 q 453 873 442 868 q 468 879 464 879 q 512 855 496 879 q 534 800 528 831 q 542 739 541 769 q 543 697 543 709 q 533 596 544 661 q 501 454 522 531 q 449 295 480 377 q 378 145 418 214 q 289 27 338 75 q 186 -30 241 -20 l 187 -30 "},"k":{"x_min":18,"x_max":699.03125,"ha":697,"o":"m 59 -8 q 52 245 59 127 q 38 481 45 363 q 25 723 31 600 q 18 986 19 846 q 41 1007 22 1003 q 81 1006 60 1011 q 120 990 103 1001 q 140 969 137 979 l 140 972 q 148 833 144 897 q 156 706 152 769 q 164 579 160 644 q 172 440 168 515 q 226 529 200 478 q 279 633 253 580 q 317 711 298 672 q 363 793 336 750 q 394 804 376 807 q 425 790 412 801 q 446 762 439 779 q 450 729 454 746 q 433 672 447 708 q 397 596 418 637 q 349 512 375 556 q 300 427 323 467 q 277 386 285 400 q 257 354 268 372 q 342 307 291 335 q 446 250 394 279 q 532 203 489 226 q 608 160 574 180 q 665 124 642 139 q 692 100 688 108 l 690 107 q 698 77 699 94 q 688 44 698 59 q 661 21 679 29 q 616 18 642 13 q 493 75 545 46 q 406 131 441 105 q 322 186 371 157 q 191 246 273 215 l 191 -6 q 167 -41 188 -25 q 124 -57 147 -57 q 63 -23 84 -57 l 59 -8 "},"Ù":{"x_min":28,"x_max":648,"ha":663,"o":"m 208 -1 q 113 98 148 40 q 59 224 78 155 q 34 367 40 292 q 28 517 28 441 q 30 673 28 595 q 29 831 33 751 q 75 865 46 855 q 136 871 104 876 q 142 791 141 828 q 144 722 144 755 q 143 675 144 699 q 142 626 142 650 q 141 572 141 599 q 141 519 141 546 q 144 401 141 459 q 159 290 147 342 q 191 191 170 237 q 246 113 211 146 q 260 111 253 111 q 273 111 267 111 q 356 144 318 111 q 424 235 394 178 q 477 364 455 291 q 513 516 500 438 q 531 670 527 594 q 529 812 535 747 q 496 792 512 792 q 464 812 475 792 q 454 861 454 832 q 458 904 454 881 q 475 945 463 926 q 503 978 486 964 q 544 997 520 992 q 622 897 596 973 q 648 721 648 821 q 636 565 648 648 q 602 401 624 482 q 546 245 580 320 q 470 113 513 170 q 375 22 428 56 q 264 -11 323 -11 q 219 -6 239 -11 l 208 -1 m 160 1151 q 180 1181 171 1170 q 201 1196 190 1192 q 224 1202 212 1201 q 252 1203 236 1203 l 365 1052 q 359 1023 365 1040 q 340 993 353 1006 q 309 975 327 980 q 267 981 290 969 l 160 1151 "},"Ů":{"x_min":24,"x_max":644,"ha":663,"o":"m 204 -16 q 109 83 144 25 q 55 209 74 140 q 30 352 36 277 q 24 502 24 426 q 26 658 24 580 q 25 816 29 736 q 71 850 42 840 q 132 856 100 861 q 138 776 137 813 q 140 707 140 740 q 139 660 140 684 q 138 611 138 635 q 137 557 137 584 q 137 504 137 531 q 140 386 137 444 q 155 275 143 327 q 187 176 166 222 q 242 98 207 131 q 256 96 249 96 q 269 96 263 96 q 352 129 314 96 q 420 220 390 163 q 473 349 451 276 q 509 501 496 423 q 527 655 523 579 q 525 797 531 732 q 492 777 508 777 q 460 797 471 777 q 450 846 450 817 q 454 889 450 866 q 471 930 459 911 q 499 963 482 949 q 540 982 516 977 q 618 882 592 958 q 644 706 644 806 q 632 550 644 633 q 598 386 620 467 q 542 230 576 305 q 466 98 509 155 q 371 7 424 41 q 260 -26 319 -26 q 215 -21 235 -26 l 204 -16 m 254 938 q 164 965 191 940 q 137 1022 137 990 q 151 1071 137 1047 q 191 1115 166 1096 q 250 1145 216 1135 q 321 1150 283 1155 q 401 1108 376 1135 q 427 1051 427 1081 q 414 1008 427 1029 q 380 971 402 987 q 326 945 357 954 q 254 938 294 935 m 296 1055 q 258 1049 273 1055 q 244 1036 244 1043 q 261 1025 244 1032 q 304 1035 288 1028 q 319 1048 319 1041 q 296 1055 319 1054 "},"Ş":{"x_min":12,"x_max":670,"ha":685,"o":"m 375 -30 q 317 -23 349 -30 q 255 -6 285 -17 q 200 20 224 3 q 164 58 175 36 q 158 105 152 79 q 196 159 165 130 q 251 117 228 132 q 291 95 273 103 q 323 86 308 88 q 356 84 338 84 q 422 99 387 84 q 485 139 456 115 q 534 194 515 164 q 553 256 553 225 q 531 308 553 286 q 474 347 509 330 q 394 376 439 363 q 303 400 349 389 q 204 429 256 412 q 110 469 153 446 q 39 524 67 492 q 12 598 12 556 q 37 726 12 662 q 107 843 63 791 q 210 928 151 895 q 335 962 269 962 q 414 946 379 962 q 472 903 449 930 q 508 839 496 876 q 521 761 521 803 q 519 713 521 735 q 514 669 518 692 q 506 622 511 647 q 492 567 500 597 q 470 548 485 552 q 438 551 454 544 q 408 579 421 559 q 396 633 396 599 q 399 692 396 656 q 399 761 402 728 q 379 819 396 795 q 324 844 363 844 q 254 825 288 844 q 193 776 219 806 q 150 708 166 746 q 134 632 134 670 q 155 587 134 607 q 209 550 176 567 q 287 521 243 534 q 375 493 330 507 q 482 460 429 477 q 577 419 535 443 q 644 364 618 396 q 670 288 670 333 q 644 177 670 234 q 578 74 619 120 q 483 0 536 28 q 375 -30 430 -30 m 203 -246 q 210 -218 198 -231 q 240 -197 222 -205 q 275 -189 257 -189 q 298 -200 293 -189 q 331 -242 308 -227 q 377 -257 354 -257 q 399 -250 389 -257 q 412 -232 409 -243 q 389 -186 409 -205 q 343 -151 369 -166 q 306 -127 324 -139 q 273 -98 287 -115 q 249 -61 259 -82 q 240 -12 240 -40 q 245 60 229 39 q 283 81 260 81 q 306 74 294 81 q 327 54 318 67 q 342 24 336 41 q 344 -13 347 6 q 364 -32 351 -23 q 393 -53 377 -42 l 392 -53 q 434 -84 412 -67 q 474 -122 455 -101 q 504 -168 492 -142 q 515 -226 515 -193 q 476 -335 512 -300 q 389 -370 441 -370 q 291 -338 342 -370 q 206 -250 240 -307 l 203 -246 "},"é":{"x_min":23,"x_max":544.609375,"ha":574,"o":"m 23 170 q 35 294 23 219 q 73 452 48 368 q 132 618 97 535 q 209 763 166 701 q 300 859 251 826 q 403 878 349 892 q 429 866 414 877 q 459 835 445 855 q 483 784 473 815 q 493 712 493 754 q 478 607 493 667 q 426 474 463 547 q 327 310 389 400 q 168 116 265 221 q 212 99 189 99 q 294 128 250 99 q 377 197 338 157 q 447 278 417 237 q 489 343 478 318 q 531 297 518 318 q 544 259 544 276 q 526 200 544 231 q 478 137 507 169 q 410 75 448 105 q 334 23 373 45 q 260 -11 296 1 q 199 -22 225 -23 q 133 -5 165 -22 q 77 39 101 11 q 37 100 52 66 q 23 170 23 134 m 368 717 q 359 748 368 743 q 311 716 335 746 q 263 642 286 687 q 219 543 240 598 q 182 436 198 489 q 155 335 165 382 q 144 259 145 288 q 212 339 173 282 q 285 466 251 397 q 344 604 320 535 q 368 717 368 672 m 363 748 l 358 748 l 363 748 m 355 750 q 356 748 355 748 l 355 750 m 324 928 q 272 922 290 918 q 245 934 255 925 q 230 958 236 944 q 214 982 225 971 l 326 1133 q 355 1132 343 1133 q 377 1126 367 1131 q 398 1110 387 1120 q 419 1080 408 1100 l 324 928 "},"B":{"x_min":18.796875,"x_max":877,"ha":905,"o":"m 199 95 q 192 196 195 146 q 187 297 189 247 q 176 470 181 385 q 161 645 170 556 q 141 630 154 636 q 106 625 128 625 q 77 626 93 625 q 49 634 62 628 q 27 655 36 641 q 18 694 18 670 l 18 695 q 19 697 18 697 q 20 698 20 697 q 21 704 21 701 q 21 710 21 708 q 79 765 56 740 q 117 805 102 789 q 174 859 144 836 q 263 902 203 881 q 324 927 291 914 q 394 952 358 941 q 469 970 431 963 q 544 978 507 978 q 652 951 605 978 q 723 854 700 925 q 700 774 719 817 q 653 687 681 731 q 592 600 625 643 q 529 525 559 558 q 639 520 579 525 q 753 499 700 516 q 841 445 806 481 q 877 343 877 408 q 834 188 877 262 q 727 60 792 115 q 582 -28 662 4 q 427 -62 502 -62 q 354 -52 390 -62 q 288 -24 318 -43 q 234 23 257 -5 q 200 91 211 51 l 199 95 m 320 105 q 370 68 341 80 q 434 57 400 57 q 544 80 487 57 q 650 142 602 104 q 728 228 697 180 q 760 323 760 275 q 741 379 760 358 q 695 411 723 400 q 634 425 667 422 q 571 429 601 429 q 513 426 554 429 q 429 414 472 423 q 353 388 386 404 q 320 343 320 371 l 320 105 m 320 97 l 320 105 q 314 113 317 108 l 320 97 m 584 858 q 542 871 573 871 q 470 860 510 871 q 391 834 430 849 q 321 802 352 819 q 275 773 290 785 q 286 627 282 700 q 297 481 290 554 q 354 506 322 484 q 420 563 386 529 q 486 638 454 597 q 543 719 518 679 q 583 795 568 759 q 599 853 599 831 q 595 850 596 850 l 584 858 m 298 477 q 297 479 298 478 q 297 481 297 480 l 293 481 q 295 479 294 480 q 298 477 297 478 "},"…":{"x_min":23.765625,"x_max":465.265625,"ha":488,"o":"m 145 114 q 161 88 155 105 q 166 54 166 71 q 152 1 166 25 q 99 -23 138 -23 q 71 -18 88 -23 q 35 -4 55 -14 q 25 59 18 29 q 50 106 32 88 q 94 128 69 124 q 145 114 120 131 m 294 114 q 310 88 305 105 q 316 54 316 71 q 301 1 316 25 q 248 -23 287 -23 q 221 -18 237 -23 q 184 -4 204 -14 q 174 59 168 29 q 200 106 181 88 q 244 128 218 124 q 294 114 269 131 m 443 114 q 459 88 454 105 q 465 54 465 71 q 451 1 465 25 q 397 -23 436 -23 q 370 -18 386 -23 q 333 -4 354 -14 q 324 59 317 29 q 349 106 330 88 q 393 128 367 124 q 443 114 419 131 "},"ē":{"x_min":23,"x_max":576.4375,"ha":574,"o":"m 23 170 q 35 294 23 219 q 73 452 48 368 q 132 618 97 535 q 209 763 166 701 q 300 859 251 826 q 403 878 349 892 q 429 866 414 877 q 459 835 445 855 q 483 784 473 815 q 493 712 493 754 q 478 607 493 667 q 426 474 463 547 q 327 310 389 400 q 168 116 265 221 q 212 99 189 99 q 294 128 250 99 q 377 197 338 157 q 447 278 417 237 q 489 343 478 318 q 531 297 518 318 q 544 259 544 276 q 526 200 544 231 q 478 137 507 169 q 410 75 448 105 q 334 23 373 45 q 260 -11 296 1 q 199 -22 225 -23 q 133 -5 165 -22 q 77 39 101 11 q 37 100 52 66 q 23 170 23 134 m 368 717 q 359 748 368 743 q 311 716 335 746 q 263 642 286 687 q 219 543 240 598 q 182 436 198 489 q 155 335 165 382 q 144 259 145 288 q 212 339 173 282 q 285 466 251 397 q 344 604 320 535 q 368 717 368 672 m 363 748 l 358 748 l 363 748 m 355 750 q 356 748 355 748 l 355 750 m 52 932 q 55 958 52 942 q 63 990 58 974 q 74 1019 67 1006 q 88 1040 81 1033 l 568 1025 l 576 911 l 52 932 "},"H":{"x_min":33.953125,"x_max":669.28125,"ha":708,"o":"m 137 -24 q 114 46 122 9 q 101 120 105 83 q 95 196 97 158 q 86 271 92 234 q 38 289 47 270 q 40 347 28 308 q 60 361 47 354 q 85 374 73 369 q 102 517 97 445 q 107 662 107 590 q 107 808 108 735 q 110 955 107 881 q 154 970 137 966 q 181 974 171 974 q 225 953 219 974 q 232 898 232 933 q 227 678 232 788 q 226 442 223 568 q 311 477 259 456 q 411 520 363 498 q 493 563 459 542 q 528 598 528 583 q 519 766 528 682 q 509 945 510 850 q 582 984 548 997 q 626 892 616 971 l 626 894 q 630 846 627 880 q 637 770 634 811 q 643 688 641 728 q 647 622 646 648 q 666 598 662 614 q 668 563 670 582 q 659 527 665 545 q 649 502 653 510 q 652 256 650 378 q 655 11 654 134 q 628 -21 655 -14 q 543 -35 600 -28 l 527 457 q 443 432 490 450 q 352 392 396 415 q 274 346 308 370 q 226 304 239 323 q 227 206 220 256 q 235 103 235 156 q 225 51 235 76 q 201 9 215 27 q 170 -17 187 -7 q 137 -24 153 -26 "},"î":{"x_min":-24.578125,"x_max":269.765625,"ha":249,"o":"m 135 861 q 182 645 165 760 q 209 417 200 530 q 222 205 219 304 q 229 37 226 105 q 198 -17 229 -9 q 120 -17 167 -26 q 109 114 114 43 q 100 249 104 186 q 78 527 90 384 q 43 816 66 671 l 135 861 m 67 1077 q 102 1109 83 1104 q 151 1115 120 1115 l 269 956 q 267 935 269 949 q 255 910 265 922 q 222 893 245 897 q 161 902 200 889 l 123 946 q 109 924 115 933 q 96 902 104 915 q 64 879 82 884 q 30 878 47 874 q -1 895 13 883 q -24 923 -16 907 l 67 1077 "},"−":{"x_min":46.703125,"x_max":573.78125,"ha":613,"o":"m 546 348 q 509 345 534 348 q 453 340 484 343 q 341 328 402 333 q 222 322 279 322 q 140 328 177 322 q 79 350 103 334 q 48 391 55 366 q 56 455 42 416 l 573 476 l 573 375 l 546 348 "},"¥":{"x_min":31.359375,"x_max":619,"ha":620,"o":"m 465 306 q 464 290 464 300 l 485 290 q 529 289 500 290 q 576 287 557 288 l 619 287 l 619 170 l 545 157 q 527 156 537 157 q 510 155 517 155 q 481 154 492 154 q 454 154 469 154 q 453 134 453 143 q 452 115 453 126 q 449 83 450 99 q 447 51 449 67 l 447 38 q 437 23 445 32 q 419 3 428 13 q 401 -14 409 -6 q 389 -24 393 -22 l 378 -27 q 365 -30 367 -30 q 351 -27 359 -30 q 343 -24 346 -25 q 332 -14 339 -21 q 319 0 325 -7 q 308 13 313 6 q 304 21 304 20 l 304 141 q 240 129 274 136 q 156 108 207 121 l 149 106 q 143 104 148 106 q 134 99 138 102 q 103 89 119 93 q 82 85 88 85 q 53 93 63 85 q 37 114 42 102 q 32 139 32 127 q 31 158 31 151 q 55 201 31 182 q 119 235 80 220 q 207 258 158 249 q 305 275 256 268 l 305 298 q 277 295 290 296 q 254 292 265 294 q 212 288 235 290 q 144 286 188 286 q 122 286 134 286 q 100 292 111 287 q 79 309 89 296 q 63 344 68 321 q 134 414 98 397 q 210 431 170 431 q 238 429 224 431 q 267 427 252 428 q 214 500 241 461 q 173 565 186 539 q 127 668 153 606 q 80 788 102 729 q 44 891 58 847 q 35 938 31 934 q 74 950 49 942 q 113 963 98 959 q 133 917 120 948 q 157 864 146 887 q 193 778 173 824 q 237 688 214 732 q 284 605 260 644 q 336 538 309 565 q 343 581 339 557 q 351 632 347 605 q 366 727 358 677 q 384 828 374 778 q 406 922 394 877 q 432 1001 418 967 q 465 1055 447 1035 q 504 1076 483 1076 q 568 1031 533 1076 q 534 853 548 930 q 509 706 519 776 q 492 569 499 637 q 476 422 484 502 q 496 422 487 422 q 511 423 504 423 l 528 423 q 551 416 544 423 q 561 401 559 410 q 564 381 564 391 q 564 361 564 371 l 564 334 l 465 306 "},"Ĥ":{"x_min":33.953125,"x_max":669.28125,"ha":708,"o":"m 137 -24 q 114 46 122 9 q 101 120 105 83 q 95 196 97 158 q 86 271 92 234 q 38 289 47 270 q 40 347 28 308 q 60 361 47 354 q 85 374 73 369 q 102 517 97 445 q 107 662 107 590 q 107 808 108 735 q 110 955 107 881 q 154 970 137 966 q 181 974 171 974 q 225 953 219 974 q 232 898 232 933 q 227 678 232 788 q 226 442 223 568 q 311 477 259 456 q 411 520 363 498 q 493 563 459 542 q 528 598 528 583 q 519 766 528 682 q 509 945 510 850 q 582 984 548 997 q 626 892 616 971 l 626 894 q 630 846 627 880 q 637 770 634 811 q 643 688 641 728 q 647 622 646 648 q 666 598 662 614 q 668 563 670 582 q 659 527 665 545 q 649 502 653 510 q 652 256 650 378 q 655 11 654 134 q 628 -21 655 -14 q 543 -35 600 -28 l 527 457 q 443 432 490 450 q 352 392 396 415 q 274 346 308 370 q 226 304 239 323 q 227 206 220 256 q 235 103 235 156 q 225 51 235 76 q 201 9 215 27 q 170 -17 187 -7 q 137 -24 153 -26 m 283 1278 q 318 1310 299 1305 q 367 1316 336 1316 l 485 1157 q 483 1136 485 1150 q 471 1111 481 1123 q 438 1094 461 1098 q 377 1103 416 1090 l 339 1147 q 325 1125 331 1134 q 312 1103 320 1116 q 280 1080 298 1085 q 246 1079 263 1075 q 214 1096 229 1084 q 191 1124 199 1108 l 283 1278 "},"U":{"x_min":24,"x_max":644,"ha":682,"o":"m 204 -16 q 109 83 144 25 q 55 209 74 140 q 30 352 36 277 q 24 502 24 426 q 26 658 24 580 q 25 816 29 736 q 71 850 42 840 q 132 856 100 861 q 138 776 137 813 q 140 707 140 740 q 139 660 140 684 q 138 611 138 635 q 137 557 137 584 q 137 504 137 531 q 140 386 137 444 q 155 275 143 327 q 187 176 166 222 q 242 98 207 131 q 256 96 249 96 q 269 96 263 96 q 352 129 314 96 q 420 220 390 163 q 473 349 451 276 q 509 501 496 423 q 527 655 523 579 q 525 797 531 732 q 492 777 508 777 q 460 797 471 777 q 450 846 450 817 q 454 889 450 866 q 471 930 459 911 q 499 963 482 949 q 540 982 516 977 q 618 882 592 958 q 644 706 644 806 q 632 550 644 633 q 598 386 620 467 q 542 230 576 305 q 466 98 509 155 q 371 7 424 41 q 260 -26 319 -26 q 215 -21 235 -26 l 204 -16 "},"Ñ":{"x_min":10,"x_max":733.984375,"ha":819,"o":"m 122 -28 q 102 -27 114 -28 q 77 -21 89 -26 q 57 -6 65 -17 q 49 23 49 4 l 49 658 q 18 706 27 684 q 10 751 10 728 q 23 802 10 780 q 54 840 37 823 q 90 865 72 856 q 119 878 108 875 q 178 850 164 878 q 193 783 193 822 q 189 749 193 768 q 184 710 186 730 q 183 672 182 690 q 193 639 184 654 l 191 642 q 280 501 236 579 q 374 345 324 422 q 481 200 423 267 q 612 96 540 133 q 600 505 606 301 q 589 913 594 708 q 607 945 589 933 q 650 962 626 956 q 694 968 674 967 q 717 969 714 969 q 700 781 705 867 q 696 620 696 695 q 700 454 696 533 q 710 307 704 376 q 723 184 716 239 q 733 91 729 129 q 732 52 733 73 q 724 14 731 31 q 702 -15 717 -3 q 659 -28 687 -28 q 546 12 605 -28 q 432 109 487 53 q 333 224 378 165 q 260 319 287 282 l 260 317 q 244 340 255 323 q 219 380 233 358 q 188 429 205 403 q 157 480 172 456 l 166 30 q 168 3 167 14 q 164 -15 168 -7 q 151 -25 160 -22 q 122 -28 141 -28 m 86 1006 q 93 1049 86 1019 q 114 1107 99 1078 q 155 1159 130 1137 q 218 1181 180 1181 q 296 1162 263 1181 q 360 1120 329 1144 q 414 1085 386 1101 q 477 1069 442 1069 q 525 1080 503 1067 q 566 1110 548 1092 q 597 1149 584 1129 q 618 1184 610 1170 q 636 1180 625 1187 q 660 1161 648 1172 q 679 1136 671 1149 q 687 1111 687 1122 l 691 1121 q 670 1067 691 1094 q 618 1018 649 1041 q 550 982 587 996 q 483 969 514 969 q 347 1002 407 970 q 226 1080 287 1035 q 204 1051 210 1074 q 194 1004 198 1027 q 187 974 191 989 q 175 938 184 960 q 138 946 154 938 q 110 965 122 954 q 93 987 99 976 q 86 1006 86 999 "},"F":{"x_min":34,"x_max":719.4375,"ha":730,"o":"m 51 240 q 55 289 51 268 q 68 323 60 309 q 87 347 76 337 q 108 366 97 358 l 106 364 q 115 373 113 371 q 123 381 117 374 q 124 516 124 448 q 126 652 124 584 q 102 631 113 640 q 77 623 90 623 q 46 640 58 623 q 34 698 35 657 q 45 727 34 706 q 75 775 57 748 q 116 832 93 802 q 162 885 139 861 q 204 923 184 908 q 237 934 224 937 l 237 887 q 405 939 318 922 q 581 956 492 956 q 673 952 626 956 q 716 912 707 943 q 706 852 725 881 q 648 849 688 852 q 556 843 607 847 q 451 830 505 838 q 351 808 397 822 q 277 776 306 795 q 248 733 248 758 l 248 412 q 416 472 323 434 q 619 562 509 511 q 619 555 619 561 q 619 542 619 549 q 619 529 619 535 q 619 520 619 522 q 622 491 623 508 q 587 445 620 473 q 476 376 554 417 q 252 274 398 335 l 252 241 q 253 172 253 213 q 253 101 253 131 q 252 51 253 73 q 248 15 251 28 q 226 -22 242 -9 q 192 -35 211 -35 q 159 -23 177 -35 q 127 15 141 -11 l 127 240 l 51 240 "},"ĵ":{"x_min":-223.40625,"x_max":299.765625,"ha":387,"o":"m -222 -473 q -215 -448 -226 -460 q -189 -426 -204 -436 q -158 -413 -173 -417 q -136 -413 -143 -409 l -143 -405 q -57 -454 -100 -439 q 21 -469 -14 -469 q 124 -433 84 -469 q 167 -345 164 -397 q 161 -236 165 -304 q 151 -83 157 -167 q 137 97 145 1 q 120 287 129 192 q 103 471 112 382 q 88 628 95 559 q 75 742 81 697 q 66 796 69 787 q 77 814 66 803 q 104 833 88 825 q 141 846 120 842 q 180 846 161 850 q 203 678 191 777 q 227 466 215 579 q 248 234 238 354 q 267 4 258 115 q 279 -202 275 -106 q 286 -363 284 -298 q 265 -464 286 -422 q 210 -531 245 -505 q 131 -568 176 -557 q 39 -579 86 -579 q -39 -571 0 -579 q -114 -551 -79 -564 q -176 -519 -149 -538 q -218 -481 -203 -501 l -222 -473 m 97 1179 q 132 1211 113 1206 q 181 1217 150 1217 l 299 1058 q 297 1037 299 1051 q 285 1012 295 1024 q 252 995 275 999 q 191 1004 230 991 l 153 1048 q 139 1026 145 1035 q 126 1004 134 1017 q 94 981 112 986 q 60 980 77 976 q 28 997 43 985 q 5 1025 13 1009 l 97 1179 "},"ā":{"x_min":16,"x_max":828.59375,"ha":779,"o":"m 153 -30 q 47 35 79 -27 q 16 196 16 98 q 27 328 16 257 q 60 469 39 398 q 110 607 81 539 q 174 730 139 675 q 246 823 208 785 q 325 876 284 862 q 417 848 383 876 q 470 781 451 821 q 491 816 479 801 q 515 835 502 831 q 542 829 528 839 q 569 791 555 820 q 545 559 553 656 q 538 397 538 462 q 545 277 538 322 q 566 205 553 231 q 598 167 580 178 q 639 150 616 155 l 638 151 q 675 153 658 147 q 707 170 692 159 q 734 196 722 181 q 757 226 747 211 q 781 254 766 237 q 821 296 795 271 q 824 209 833 256 q 789 123 814 162 q 726 60 764 85 q 642 37 687 36 q 555 57 592 37 q 494 109 519 77 q 453 181 469 140 q 429 265 437 222 q 383 164 409 216 q 323 69 357 112 q 247 -2 290 25 q 154 -30 205 -30 l 153 -30 m 410 587 q 406 638 410 608 q 392 695 402 668 q 369 741 383 722 q 333 762 354 760 q 293 733 315 760 q 247 661 270 706 q 201 559 223 616 q 162 441 179 502 q 133 319 144 380 q 123 208 123 258 q 134 128 123 161 q 173 87 146 95 l 170 89 q 213 107 190 85 q 260 169 236 129 q 307 260 284 208 q 350 369 330 313 q 385 483 369 426 q 410 587 401 539 m 74 940 q 77 966 74 950 q 85 998 80 982 q 96 1027 89 1014 q 110 1048 103 1041 l 590 1033 l 598 919 l 74 940 "},"Ĩ":{"x_min":-163.078125,"x_max":441.890625,"ha":218,"o":"m 40 71 q 31 176 35 109 q 25 326 27 243 q 22 501 23 409 q 23 681 21 593 q 27 844 24 768 q 34 971 29 920 l 123 962 q 125 897 124 937 q 128 812 127 858 q 130 717 130 767 q 130 618 130 667 q 135 416 130 508 q 147 254 140 325 q 161 133 154 182 q 173 59 169 83 q 178 27 176 43 q 176 0 180 12 q 159 -21 172 -13 q 120 -30 147 -30 q 86 -18 100 -30 q 63 8 73 -6 q 48 41 54 24 q 40 71 43 59 m -163 1025 q -156 1068 -163 1038 q -135 1126 -150 1097 q -94 1178 -119 1156 q -31 1200 -69 1200 q 46 1181 13 1200 q 110 1139 79 1163 q 164 1104 136 1120 q 227 1088 192 1088 q 275 1099 253 1086 q 316 1129 298 1111 q 347 1168 334 1148 q 368 1203 360 1189 q 386 1199 375 1206 q 410 1180 398 1191 q 429 1155 421 1168 q 437 1130 437 1141 l 441 1140 q 420 1086 441 1113 q 368 1037 399 1060 q 300 1001 337 1015 q 233 988 264 988 q 97 1021 157 989 q -23 1099 37 1054 q -45 1070 -39 1093 q -55 1023 -51 1046 q -62 993 -58 1008 q -74 957 -65 979 q -111 965 -95 957 q -139 984 -127 973 q -156 1006 -150 995 q -163 1025 -163 1018 "},"ă":{"x_min":16,"x_max":828.59375,"ha":779,"o":"m 153 -30 q 47 35 79 -27 q 16 196 16 98 q 27 328 16 257 q 60 469 39 398 q 110 607 81 539 q 174 730 139 675 q 246 823 208 785 q 325 876 284 862 q 417 848 383 876 q 470 781 451 821 q 491 816 479 801 q 515 835 502 831 q 542 829 528 839 q 569 791 555 820 q 545 559 553 656 q 538 397 538 462 q 545 277 538 322 q 566 205 553 231 q 598 167 580 178 q 639 150 616 155 l 638 151 q 675 153 658 147 q 707 170 692 159 q 734 196 722 181 q 757 226 747 211 q 781 254 766 237 q 821 296 795 271 q 824 209 833 256 q 789 123 814 162 q 726 60 764 85 q 642 37 687 36 q 555 57 592 37 q 494 109 519 77 q 453 181 469 140 q 429 265 437 222 q 383 164 409 216 q 323 69 357 112 q 247 -2 290 25 q 154 -30 205 -30 l 153 -30 m 410 587 q 406 638 410 608 q 392 695 402 668 q 369 741 383 722 q 333 762 354 760 q 293 733 315 760 q 247 661 270 706 q 201 559 223 616 q 162 441 179 502 q 133 319 144 380 q 123 208 123 258 q 134 128 123 161 q 173 87 146 95 l 170 89 q 213 107 190 85 q 260 169 236 129 q 307 260 284 208 q 350 369 330 313 q 385 483 369 426 q 410 587 401 539 m 232 1144 q 288 1085 260 1100 q 338 1074 315 1070 q 382 1093 362 1077 q 418 1127 403 1110 q 441 1159 433 1145 q 452 1174 450 1174 q 477 1172 461 1174 q 506 1163 494 1171 q 521 1138 518 1155 q 510 1089 525 1121 q 467 1028 498 1051 q 399 992 437 1004 q 319 982 361 981 q 243 995 278 984 q 183 1028 207 1007 q 155 1077 159 1049 l 232 1144 "},"*":{"x_min":59.625,"x_max":762.65625,"ha":795,"o":"m 261 338 q 196 347 218 327 q 170 403 173 367 q 179 433 170 415 q 199 470 187 450 q 226 509 211 490 q 255 545 241 529 l 132 545 q 107 560 120 545 q 84 595 94 575 q 66 635 73 616 q 59 664 59 655 l 155 664 q 106 742 124 700 q 88 838 88 784 q 144 833 120 838 q 185 818 168 827 q 217 796 203 808 q 242 772 230 784 q 264 750 253 761 q 289 731 275 739 l 289 920 l 408 920 l 414 799 l 415 800 q 472 853 439 827 q 550 879 505 879 q 557 863 552 871 q 563 848 561 856 q 575 823 571 833 q 576 804 578 814 q 563 781 573 795 q 535 745 554 768 q 528 735 535 745 q 540 738 535 736 q 551 740 544 739 q 621 755 588 749 q 665 765 654 762 q 700 761 681 765 q 734 748 719 758 q 757 719 749 738 q 760 671 765 701 q 638 640 703 658 q 520 598 573 622 l 521 597 q 566 576 546 586 q 602 549 586 565 q 626 505 618 532 q 635 437 635 479 q 551 448 582 437 q 494 475 520 460 l 494 473 q 466 489 479 481 q 439 500 453 496 l 439 316 q 421 287 439 296 q 380 279 403 278 q 335 288 357 279 q 307 310 313 297 l 312 401 l 261 338 "},"å":{"x_min":16,"x_max":828.59375,"ha":779,"o":"m 153 -30 q 47 35 79 -27 q 16 196 16 98 q 27 328 16 257 q 60 469 39 398 q 110 607 81 539 q 174 730 139 675 q 246 823 208 785 q 325 876 284 862 q 417 848 383 876 q 470 781 451 821 q 491 816 479 801 q 515 835 502 831 q 542 829 528 839 q 569 791 555 820 q 545 559 553 656 q 538 397 538 462 q 545 277 538 322 q 566 205 553 231 q 598 167 580 178 q 639 150 616 155 l 638 151 q 675 153 658 147 q 707 170 692 159 q 734 196 722 181 q 757 226 747 211 q 781 254 766 237 q 821 296 795 271 q 824 209 833 256 q 789 123 814 162 q 726 60 764 85 q 642 37 687 36 q 555 57 592 37 q 494 109 519 77 q 453 181 469 140 q 429 265 437 222 q 383 164 409 216 q 323 69 357 112 q 247 -2 290 25 q 154 -30 205 -30 l 153 -30 m 410 587 q 406 638 410 608 q 392 695 402 668 q 369 741 383 722 q 333 762 354 760 q 293 733 315 760 q 247 661 270 706 q 201 559 223 616 q 162 441 179 502 q 133 319 144 380 q 123 208 123 258 q 134 128 123 161 q 173 87 146 95 l 170 89 q 213 107 190 85 q 260 169 236 129 q 307 260 284 208 q 350 369 330 313 q 385 483 369 426 q 410 587 401 539 m 281 927 q 191 954 218 929 q 164 1011 164 979 q 178 1060 164 1036 q 218 1104 193 1085 q 277 1134 243 1124 q 348 1139 310 1144 q 428 1097 403 1124 q 454 1040 454 1070 q 441 997 454 1018 q 407 960 429 976 q 353 934 384 943 q 281 927 321 924 m 323 1044 q 285 1038 300 1044 q 271 1025 271 1032 q 288 1014 271 1021 q 331 1024 315 1017 q 346 1037 346 1030 q 323 1044 346 1043 "},"0":{"x_min":36,"x_max":685,"ha":697,"o":"m 242 -30 q 148 5 188 -21 q 84 77 109 33 q 47 178 59 121 q 36 298 36 234 q 51 457 36 374 q 96 619 67 539 q 166 772 125 700 q 255 900 207 845 q 361 990 304 956 q 478 1027 417 1024 q 598 997 556 1027 q 659 925 640 968 q 681 832 678 881 q 685 744 685 784 q 674 624 685 700 q 639 463 663 549 q 580 289 615 377 q 496 130 545 202 q 384 14 447 59 q 246 -30 322 -30 l 242 -30 m 257 484 q 218 503 234 490 q 192 531 203 516 q 173 414 181 479 q 165 283 165 348 q 169 211 165 245 q 182 151 173 177 q 207 109 192 125 q 247 93 223 94 q 332 120 292 91 q 406 200 372 150 q 467 318 440 251 q 513 456 494 384 q 542 600 532 528 q 553 735 553 672 q 540 846 553 800 q 504 905 528 892 q 403 873 443 905 q 340 792 364 841 q 302 688 315 744 q 278 581 288 632 q 273 558 276 572 q 268 530 270 545 q 262 504 265 516 q 257 484 258 492 "},"ō":{"x_min":-1.140625,"x_max":522.4375,"ha":507,"o":"m 16 248 q 56 551 28 428 q 122 747 83 674 q 207 850 161 820 q 303 875 253 880 q 392 845 355 872 q 454 771 430 818 q 490 665 478 725 q 502 538 502 605 q 479 344 502 443 q 415 162 457 245 q 312 26 373 80 q 177 -31 252 -26 q 83 -1 116 -31 q 36 69 51 27 q 18 159 21 111 q 16 247 16 207 l 16 248 m 297 765 q 231 718 261 767 q 178 592 200 668 q 142 425 155 515 q 130 257 130 335 q 140 141 130 188 q 174 92 151 94 q 262 147 223 101 q 328 260 301 193 q 369 403 355 326 q 384 552 384 480 q 378 632 384 594 q 362 699 373 671 q 336 746 352 728 q 298 765 320 763 l 297 765 m -1 942 q 1 968 -1 952 q 9 1000 4 984 q 20 1029 13 1016 q 34 1050 27 1043 l 514 1035 l 522 921 l -1 942 "},"”":{"x_min":47.46875,"x_max":427.984375,"ha":469,"o":"m 47 588 q 52 612 50 599 q 61 642 55 626 q 74 696 67 667 q 81 756 81 725 q 74 814 81 783 q 48 882 67 844 q 74 936 48 920 q 130 952 100 952 q 189 867 172 919 q 208 759 207 816 q 195 646 208 702 q 160 550 181 591 l 161 554 q 139 535 157 541 q 101 532 120 530 q 65 547 81 535 q 47 583 48 560 l 47 588 m 267 590 q 272 614 269 601 q 280 644 275 628 q 294 698 287 669 q 301 758 301 727 q 294 816 301 785 q 268 884 287 846 q 294 938 268 922 q 349 954 320 954 q 409 869 392 921 q 427 761 427 818 q 415 648 428 704 q 379 552 401 593 l 381 556 q 358 537 377 543 q 320 534 340 532 q 284 549 301 537 q 267 585 268 561 l 267 590 "},"ŵ":{"x_min":1.359375,"x_max":1104.140625,"ha":1130,"o":"m 2 838 q 55 885 20 885 q 86 874 70 885 q 113 848 103 863 l 207 254 q 215 291 211 272 q 225 330 219 310 q 259 473 240 398 q 309 610 279 549 q 383 710 340 672 q 489 743 427 748 l 486 743 q 553 716 523 743 q 607 644 583 688 q 650 542 630 599 q 687 427 670 485 q 722 318 705 371 q 760 225 740 265 q 776 351 766 277 q 802 503 786 424 q 838 662 817 583 q 885 806 858 741 q 988 939 934 908 q 1104 920 1041 969 q 1018 804 1052 877 q 959 646 983 732 q 921 469 935 560 q 897 296 907 378 q 883 189 891 241 q 865 92 876 138 q 838 9 854 45 q 800 -52 823 -27 q 725 48 759 -8 q 663 166 691 104 q 613 291 636 227 q 571 413 591 355 q 543 493 556 455 q 520 559 531 531 q 501 603 510 587 q 488 619 493 619 q 447 600 465 621 q 415 543 430 579 q 389 462 401 508 q 368 370 378 416 q 347 269 359 321 q 318 165 335 216 q 278 64 301 113 q 222 -30 255 14 q 185 5 204 -30 q 148 98 166 40 q 111 230 130 155 q 77 383 93 305 q 46 539 61 462 q 22 677 32 615 q 6 780 12 739 q 1 829 1 821 l 2 838 m 443 1092 q 478 1124 459 1119 q 527 1130 496 1130 l 645 971 q 643 950 645 964 q 631 925 641 937 q 598 908 621 912 q 537 917 576 904 l 499 961 q 485 939 491 948 q 472 917 480 930 q 440 894 458 899 q 406 893 423 889 q 374 910 389 898 q 351 938 359 922 l 443 1092 "},"Ķ":{"x_min":52,"x_max":930.609375,"ha":952,"o":"m 189 2 q 155 -36 175 -25 q 117 -41 136 -46 q 83 -18 98 -36 q 66 26 69 0 q 64 114 65 56 q 61 248 62 173 q 58 411 60 323 q 54 588 56 500 q 52 761 53 677 q 52 915 52 845 q 89 948 68 939 q 144 954 110 958 q 169 816 164 886 q 175 675 175 746 q 177 533 176 604 q 190 391 179 462 q 285 469 236 419 q 382 576 335 519 q 472 694 430 634 q 549 805 515 755 q 612 899 583 856 q 666 967 641 942 q 713 995 691 992 q 754 970 735 999 q 751 902 763 943 q 710 814 739 862 q 641 712 682 765 q 554 603 601 658 q 458 493 507 547 q 364 391 409 440 q 330 354 341 367 q 299 322 318 342 q 462 214 381 257 q 623 145 544 171 q 779 107 702 120 q 929 89 856 94 q 929 72 929 87 q 930 52 930 57 q 921 16 930 29 q 896 -3 911 2 q 864 -10 881 -9 q 834 -11 847 -11 l 826 -11 q 692 5 756 -9 q 569 45 628 21 q 457 96 511 68 q 358 151 404 124 q 267 200 309 178 q 195 228 226 221 l 189 2 m 435 -116 q 371 -246 393 -197 q 339 -321 348 -295 q 330 -355 329 -348 q 338 -361 331 -363 q 330 -364 333 -364 q 323 -365 327 -364 q 280 -349 293 -375 q 267 -277 267 -323 q 274 -196 267 -241 q 296 -114 282 -152 q 330 -49 310 -75 q 374 -24 350 -24 q 445 -82 409 -24 l 435 -116 "},"ö":{"x_min":16,"x_max":502,"ha":507,"o":"m 16 248 q 56 551 28 428 q 122 747 83 674 q 207 850 161 820 q 303 875 253 880 q 392 845 355 872 q 454 771 430 818 q 490 665 478 725 q 502 538 502 605 q 479 344 502 443 q 415 162 457 245 q 312 26 373 80 q 177 -31 252 -26 q 83 -1 116 -31 q 36 69 51 27 q 18 159 21 111 q 16 247 16 207 l 16 248 m 297 765 q 231 718 261 767 q 178 592 200 668 q 142 425 155 515 q 130 257 130 335 q 140 141 130 188 q 174 92 151 94 q 262 147 223 101 q 328 260 301 193 q 369 403 355 326 q 384 552 384 480 q 378 632 384 594 q 362 699 373 671 q 336 746 352 728 q 298 765 320 763 l 297 765 m 135 948 q 125 988 123 965 q 136 1029 126 1011 q 163 1061 146 1048 q 199 1074 180 1074 q 230 1066 215 1074 q 257 1039 244 1058 l 255 1042 q 268 1002 268 1024 q 257 961 267 981 q 229 927 247 941 q 192 914 211 914 q 163 921 176 914 q 135 948 149 929 m 312 952 q 300 990 300 968 q 311 1032 301 1012 q 338 1065 321 1051 q 374 1079 355 1079 q 431 1046 407 1079 l 430 1047 q 446 1008 445 1031 q 439 964 447 985 q 414 930 431 944 q 375 916 397 916 q 313 951 343 916 l 312 952 "},"ǽ":{"x_min":16,"x_max":835.625,"ha":864,"o":"m 321 875 q 243 823 281 861 q 172 729 205 785 q 109 607 138 674 q 60 469 81 540 q 27 328 39 399 q 16 196 16 257 q 47 35 16 99 q 153 -30 79 -27 q 260 6 212 -30 q 344 96 307 43 q 410 30 370 57 q 492 4 450 4 q 553 15 518 2 q 626 50 588 28 q 702 102 664 73 q 769 163 740 131 q 817 226 799 195 q 835 284 835 257 q 822 323 835 302 q 780 368 809 344 q 738 303 769 344 q 668 223 708 263 q 585 154 629 183 q 503 125 541 125 q 459 142 480 125 q 618 336 556 247 q 717 500 680 426 q 769 633 754 573 q 784 738 784 693 q 774 811 784 780 q 750 862 765 842 q 721 893 736 883 q 695 904 706 903 q 596 894 641 919 q 509 812 550 869 q 448 860 486 839 q 368 881 410 881 q 346 880 357 881 q 321 875 334 879 m 335 762 q 373 759 356 765 q 403 744 390 754 q 424 718 415 733 q 437 689 433 704 q 397 589 415 641 q 364 484 379 537 q 338 382 349 432 q 321 290 327 332 q 282 209 302 246 q 243 144 262 172 q 204 101 223 116 q 170 89 185 86 l 173 88 q 134 128 146 96 q 123 208 123 161 q 133 320 123 259 q 162 442 144 381 q 201 560 179 503 q 247 661 223 617 q 293 733 270 706 q 333 762 315 760 l 335 762 m 655 747 q 633 636 655 703 q 579 502 611 569 q 511 379 547 435 q 447 298 475 322 q 467 380 454 332 q 496 480 480 428 q 532 583 512 532 q 571 676 552 634 q 611 743 591 717 q 650 773 630 770 q 655 747 655 767 m 650 773 q 652 773 651 773 q 654 774 652 774 l 648 775 q 649 774 648 774 q 650 773 650 774 m 485 952 q 434 946 451 942 q 406 958 416 949 q 392 982 397 968 q 375 1006 386 995 l 488 1157 q 516 1156 504 1157 q 539 1150 529 1155 q 559 1134 549 1144 q 580 1104 569 1124 l 485 952 "},"Ļ":{"x_min":16.28125,"x_max":749.90625,"ha":753,"o":"m 59 39 q 33 269 40 153 q 23 503 25 386 q 21 739 21 621 q 16 978 21 858 q 90 970 65 978 q 128 949 116 963 q 140 916 139 935 q 138 872 141 896 q 134 682 130 777 q 147 491 138 587 q 166 297 157 394 q 177 99 174 199 q 231 107 195 99 q 314 130 267 116 q 413 162 360 145 q 514 195 465 179 q 604 224 562 211 q 674 244 647 237 q 736 230 714 246 q 744 168 758 214 q 681 141 729 160 q 569 99 633 122 q 432 53 504 77 q 295 11 359 29 q 184 -18 231 -6 q 124 -27 137 -29 q 101 -25 113 -31 q 78 -8 88 -18 q 62 14 67 1 q 61 37 56 27 l 59 39 m 513 -134 q 449 -264 471 -215 q 417 -339 426 -313 q 408 -373 407 -366 q 416 -379 409 -381 q 408 -382 411 -382 q 401 -383 405 -382 q 358 -367 371 -393 q 345 -295 345 -341 q 352 -214 345 -259 q 374 -132 360 -170 q 408 -67 388 -93 q 452 -42 428 -42 q 523 -100 487 -42 l 513 -134 "},"Õ":{"x_min":15,"x_max":582.078125,"ha":587,"o":"m 210 -27 q 124 10 161 -22 q 63 99 88 44 q 27 225 39 154 q 15 375 15 297 q 35 581 15 477 q 97 771 55 686 q 202 912 139 857 q 348 971 264 966 q 441 934 401 966 q 505 849 480 901 q 542 730 530 797 q 555 588 555 663 q 544 441 555 516 q 512 296 533 366 q 461 164 491 226 q 392 59 431 103 q 308 -8 354 15 q 209 -27 261 -32 l 210 -27 m 441 569 q 434 666 441 619 q 415 749 428 712 q 381 813 401 786 q 332 853 360 841 q 250 799 287 847 q 186 678 212 751 q 144 520 159 606 q 130 354 130 435 q 134 265 130 307 q 150 189 139 223 q 178 132 161 155 q 218 100 195 109 q 309 138 268 96 q 380 248 351 180 q 425 402 409 317 q 441 569 441 486 m 328 855 q 330 854 329 854 q 332 853 330 854 q 335 853 333 853 q 339 854 336 854 l 328 855 m 28 1039 q 34 1081 28 1052 q 54 1138 39 1109 q 91 1188 68 1166 q 149 1209 114 1209 q 220 1191 189 1209 q 279 1150 250 1173 q 328 1116 302 1132 q 386 1100 353 1100 q 430 1111 409 1098 q 467 1141 450 1123 q 495 1178 484 1158 q 515 1213 507 1198 q 531 1208 521 1215 q 552 1189 542 1201 q 570 1165 563 1178 q 578 1141 578 1152 l 582 1151 q 562 1098 582 1124 q 515 1051 543 1073 q 453 1016 486 1029 q 390 1002 419 1002 q 266 1035 321 1004 q 156 1111 212 1067 q 135 1082 141 1105 q 126 1037 130 1059 q 121 1008 124 1022 q 109 972 117 994 q 75 980 90 972 q 50 999 60 988 q 34 1021 39 1009 q 28 1039 28 1032 "},"ć":{"x_min":33,"x_max":576.453125,"ha":619,"o":"m 184 -27 q 115 -2 144 -22 q 67 50 85 17 q 41 124 49 82 q 33 215 33 166 q 47 355 33 280 q 85 503 61 430 q 140 645 108 577 q 208 765 172 713 q 282 849 244 817 q 355 883 320 881 q 429 865 397 883 q 482 821 461 848 q 514 760 504 794 q 525 692 525 726 q 514 625 525 660 q 480 557 503 590 q 437 578 452 565 q 414 606 421 590 q 405 640 406 622 q 404 677 404 658 q 403 704 404 691 q 399 727 402 717 q 387 744 395 737 q 364 751 379 751 q 309 719 336 751 q 259 639 282 688 q 217 530 236 591 q 185 413 198 470 q 165 308 172 356 q 158 235 158 260 l 158 218 q 158 180 158 201 q 161 138 158 158 q 173 105 164 119 q 198 92 182 92 q 277 119 233 92 q 363 186 320 146 q 446 271 406 226 q 516 351 486 315 q 527 366 518 355 q 545 388 536 376 q 563 409 555 399 q 574 421 571 418 q 566 320 581 372 q 522 218 551 268 q 452 124 492 169 q 366 46 411 79 q 274 -6 320 13 q 187 -27 228 -27 l 184 -27 m 357 928 q 305 922 323 918 q 278 934 288 925 q 263 958 269 944 q 247 982 258 971 l 359 1133 q 388 1132 376 1133 q 410 1126 400 1131 q 431 1110 420 1120 q 452 1080 441 1100 l 357 928 "},"þ":{"x_min":12.296875,"x_max":601,"ha":623,"o":"m 40 973 q 76 1023 55 1014 q 114 1024 96 1032 q 143 998 131 1017 q 153 966 154 980 l 153 970 q 152 909 153 928 q 152 874 152 889 q 152 840 152 859 q 152 778 152 820 q 185 830 166 805 q 227 873 203 855 q 282 903 252 892 q 350 914 312 914 q 468 871 420 914 q 545 768 515 829 q 588 637 575 706 q 601 516 601 569 q 582 367 598 443 q 532 230 567 291 q 443 130 497 169 q 310 90 389 90 l 312 90 q 220 98 272 87 q 120 138 168 109 q 121 42 120 86 q 122 -49 122 -1 l 12 -40 l 40 973 m 144 272 q 163 242 144 256 q 207 220 181 229 q 259 206 233 211 q 300 200 286 200 q 394 252 359 213 q 448 343 429 291 q 473 448 467 394 q 480 542 480 502 q 471 615 480 572 q 446 699 463 659 q 402 767 429 739 q 337 795 375 795 q 271 762 299 795 q 220 679 242 729 q 184 567 199 629 q 161 448 170 506 q 149 343 153 390 q 144 272 144 295 "},"]":{"x_min":29.6875,"x_max":682.46875,"ha":664,"o":"m 679 937 q 647 848 660 900 q 626 733 634 796 q 616 598 619 670 q 614 454 614 527 q 617 271 614 362 q 623 97 620 180 q 627 -22 625 36 q 630 -124 630 -82 q 629 -159 630 -140 q 626 -214 628 -177 l 29 -167 q 78 -98 47 -116 q 157 -79 109 -79 q 212 -81 182 -79 q 277 -86 241 -83 q 329 -91 303 -89 q 383 -95 355 -93 q 443 -98 410 -97 q 518 -100 475 -100 q 511 188 512 63 q 510 408 510 312 q 512 601 510 522 q 521 740 515 680 q 536 847 527 800 q 557 946 545 895 q 490 972 527 961 q 413 991 453 983 q 334 1005 374 999 q 259 1015 294 1011 q 218 1021 244 1018 q 179 1026 192 1023 q 187 1076 179 1059 q 208 1101 195 1093 q 238 1110 222 1109 q 268 1112 253 1112 l 273 1112 q 336 1105 295 1110 q 423 1091 377 1101 q 517 1067 469 1082 q 604 1035 566 1053 q 664 994 642 1017 q 681 945 685 972 l 679 937 "},"ẁ":{"x_min":1.359375,"x_max":1104.140625,"ha":1130,"o":"m 2 838 q 55 885 20 885 q 86 874 70 885 q 113 848 103 863 l 207 254 q 215 291 211 272 q 225 330 219 310 q 259 473 240 398 q 309 610 279 549 q 383 710 340 672 q 489 743 427 748 l 486 743 q 553 716 523 743 q 607 644 583 688 q 650 542 630 599 q 687 427 670 485 q 722 318 705 371 q 760 225 740 265 q 776 351 766 277 q 802 503 786 424 q 838 662 817 583 q 885 806 858 741 q 988 939 934 908 q 1104 920 1041 969 q 1018 804 1052 877 q 959 646 983 732 q 921 469 935 560 q 897 296 907 378 q 883 189 891 241 q 865 92 876 138 q 838 9 854 45 q 800 -52 823 -27 q 725 48 759 -8 q 663 166 691 104 q 613 291 636 227 q 571 413 591 355 q 543 493 556 455 q 520 559 531 531 q 501 603 510 587 q 488 619 493 619 q 447 600 465 621 q 415 543 430 579 q 389 462 401 508 q 368 370 378 416 q 347 269 359 321 q 318 165 335 216 q 278 64 301 113 q 222 -30 255 14 q 185 5 204 -30 q 148 98 166 40 q 111 230 130 155 q 77 383 93 305 q 46 539 61 462 q 22 677 32 615 q 6 780 12 739 q 1 829 1 821 l 2 838 m 375 1090 q 395 1120 386 1109 q 416 1135 405 1131 q 439 1141 427 1140 q 467 1142 451 1142 l 580 991 q 574 962 580 979 q 555 932 568 945 q 524 914 542 919 q 482 920 505 908 l 375 1090 "},"ĭ":{"x_min":-42.9375,"x_max":324.609375,"ha":249,"o":"m 135 861 q 182 645 165 760 q 209 417 200 530 q 222 205 219 304 q 229 37 226 105 q 198 -17 229 -9 q 120 -17 167 -26 q 109 114 114 43 q 100 249 104 186 q 78 527 90 384 q 43 816 66 671 l 135 861 m 34 1083 q 90 1024 62 1039 q 140 1013 117 1009 q 184 1032 164 1016 q 220 1066 205 1049 q 243 1098 235 1084 q 254 1113 252 1113 q 279 1111 263 1113 q 308 1102 296 1110 q 323 1077 320 1094 q 312 1028 327 1060 q 269 967 300 990 q 201 931 239 943 q 121 921 163 920 q 45 934 80 923 q -14 967 9 946 q -42 1016 -38 988 l 34 1083 "},"8":{"x_min":2,"x_max":693,"ha":700,"o":"m 285 -19 q 209 14 241 -9 q 158 71 178 38 q 131 142 139 103 q 123 221 123 180 q 141 356 123 290 q 186 466 159 422 q 142 494 166 477 q 99 528 118 511 l 99 525 q 93 499 97 510 q 78 481 89 488 q 50 474 68 475 q 2 481 31 473 q 16 595 2 534 q 55 715 30 655 q 116 831 80 776 q 194 929 151 887 q 287 997 238 971 q 391 1023 337 1023 q 419 1021 407 1023 q 441 1017 430 1020 q 525 949 501 994 q 549 848 549 905 q 542 782 549 815 q 524 716 535 749 q 500 655 513 683 q 474 605 488 627 q 560 578 520 598 q 629 526 600 559 q 675 448 659 494 q 693 342 691 403 q 664 198 693 266 q 589 80 636 130 q 481 1 542 30 q 352 -28 420 -28 q 317 -25 333 -28 q 287 -21 302 -23 l 285 -19 m 466 484 q 432 488 446 488 q 351 466 387 488 q 290 408 315 443 q 252 329 265 373 q 240 241 240 285 q 256 158 240 197 q 303 96 272 119 q 318 94 310 95 q 332 94 326 94 q 418 116 376 94 q 493 175 460 138 q 546 260 525 212 q 568 361 566 308 q 540 441 565 404 q 469 484 516 479 l 466 484 m 172 668 q 181 625 172 649 q 214 595 191 600 q 284 606 246 584 q 355 666 322 627 q 408 753 387 705 q 430 848 430 802 q 413 909 430 884 q 405 912 410 911 q 396 914 400 914 q 327 889 364 914 q 256 828 290 865 q 198 749 222 791 q 172 668 174 706 "},"R":{"x_min":31,"x_max":752.453125,"ha":757,"o":"m 64 16 q 57 184 62 100 q 48 356 53 268 q 38 535 43 443 q 31 725 33 626 q 100 826 56 779 q 195 906 143 873 q 303 959 248 940 q 409 978 357 978 q 487 965 451 978 q 550 926 523 953 q 593 856 577 899 q 609 754 609 813 q 589 639 609 693 q 537 538 569 585 q 463 449 504 491 q 378 371 422 408 q 409 349 392 360 q 446 325 427 339 q 531 266 485 298 q 617 201 576 234 q 692 135 659 168 q 741 74 725 103 q 750 23 756 46 q 706 -13 744 0 q 628 37 665 9 q 556 97 591 66 q 485 155 523 124 q 401 214 447 185 q 296 272 354 244 q 166 324 237 301 q 172 207 168 268 q 185 62 176 146 q 178 21 186 36 q 157 -2 171 5 q 125 -12 144 -10 q 87 -10 107 -13 l 64 16 m 163 572 q 163 478 163 521 q 164 395 163 435 q 282 454 221 419 q 393 534 343 488 q 476 637 443 580 q 509 761 509 693 q 477 835 509 812 q 400 859 445 859 q 331 843 365 859 q 266 803 297 827 q 209 750 236 778 q 163 696 183 722 l 163 572 "},"ť":{"x_min":-36.703125,"x_max":586,"ha":513,"o":"m 288 953 q 293 977 290 964 q 301 1007 295 991 q 314 1061 307 1032 q 321 1121 321 1090 q 314 1179 321 1148 q 289 1247 307 1209 q 314 1301 289 1285 q 370 1317 340 1317 q 430 1233 412 1285 q 449 1123 449 1181 q 436 1011 449 1066 q 400 915 423 956 l 401 919 q 379 900 397 906 q 341 897 361 895 q 305 912 321 900 q 288 948 289 924 l 288 953 m 243 21 q 226 -8 243 2 q 187 -25 209 -19 q 145 -32 165 -31 q 122 -34 126 -34 l 122 660 q 94 655 108 657 q 66 649 81 652 q 44 644 55 646 q 21 640 32 642 q -10 661 6 640 q -36 745 -27 682 q 10 758 -9 752 q 39 764 31 763 q 84 773 62 767 q 122 790 107 779 l 122 983 q 130 1007 122 992 q 155 1034 139 1022 q 193 1051 170 1045 q 243 1048 215 1056 l 245 823 q 417 855 327 838 q 586 888 508 873 q 576 836 586 859 q 552 796 567 813 q 522 769 538 779 q 495 755 507 759 q 449 743 474 750 q 397 731 424 737 q 312 712 354 721 q 243 694 270 702 l 243 21 "},"Ľ":{"x_min":16.28125,"x_max":749.90625,"ha":753,"o":"m 409 851 q 345 721 367 770 q 313 646 322 672 q 304 612 303 619 q 311 606 305 604 q 304 603 307 603 q 297 602 301 603 q 254 618 267 592 q 241 690 241 644 q 248 771 241 727 q 270 853 256 815 q 304 918 284 892 q 348 944 324 944 q 419 885 383 944 l 409 851 m 59 39 q 33 269 40 153 q 23 503 25 386 q 21 739 21 621 q 16 978 21 858 q 90 970 65 978 q 128 949 116 963 q 140 916 139 935 q 138 872 141 896 q 134 682 130 777 q 147 491 138 587 q 166 297 157 394 q 177 99 174 199 q 231 107 195 99 q 314 130 267 116 q 413 162 360 145 q 514 195 465 179 q 604 224 562 211 q 674 244 647 237 q 736 230 714 246 q 744 168 758 214 q 681 141 729 160 q 569 99 633 122 q 432 53 504 77 q 295 11 359 29 q 184 -18 231 -6 q 124 -27 137 -29 q 101 -25 113 -31 q 78 -8 88 -18 q 62 14 67 1 q 61 37 56 27 l 59 39 "},"Ż":{"x_min":12.203125,"x_max":874.90625,"ha":886,"o":"m 268 -76 q 153 -41 185 -74 q 120 43 120 -8 q 135 133 120 89 q 172 219 150 177 q 217 303 193 261 q 255 389 240 345 q 231 381 244 386 q 208 373 219 377 q 173 358 189 364 q 143 354 157 352 q 118 366 128 355 q 100 404 107 377 q 111 452 100 434 q 141 481 123 470 q 183 498 160 492 q 231 510 207 504 q 291 524 263 516 q 328 550 320 533 l 326 549 q 356 620 340 585 q 387 690 373 655 q 413 763 401 725 q 430 841 424 800 q 342 834 382 842 q 269 815 302 827 q 207 788 236 803 q 155 760 179 774 q 123 744 141 752 q 86 725 105 735 q 37 742 59 725 q 12 786 16 759 q 46 830 20 808 q 110 874 73 853 q 192 912 147 895 q 282 943 237 930 q 370 963 328 956 q 444 971 412 971 q 501 962 469 971 q 543 928 531 952 q 556 869 556 904 q 541 779 556 829 q 508 675 526 728 q 497 644 501 656 q 489 622 493 633 q 482 600 485 611 q 476 572 480 588 q 496 575 485 573 q 515 579 507 577 q 573 587 545 583 q 633 596 602 592 q 699 604 664 600 q 777 611 733 608 q 771 530 782 560 q 735 486 759 501 q 676 465 710 470 q 604 456 642 461 q 514 446 561 452 q 424 420 467 440 q 398 372 413 400 q 367 315 383 345 q 330 248 349 283 q 295 179 311 214 q 267 113 279 145 q 249 56 255 81 q 281 48 264 50 q 320 46 298 46 q 462 72 382 46 q 618 138 542 98 q 754 223 694 177 q 839 307 815 268 q 865 250 855 273 q 874 211 874 226 q 841 134 874 170 q 754 68 808 98 q 634 12 701 37 q 501 -30 568 -12 q 373 -60 434 -48 q 271 -76 311 -71 l 268 -76 m 329 1081 q 325 1122 321 1099 q 340 1165 328 1145 q 371 1198 353 1184 q 410 1212 389 1212 q 466 1179 442 1212 l 465 1182 q 475 1145 477 1169 q 460 1097 472 1120 q 429 1055 448 1073 q 389 1038 410 1038 q 357 1048 373 1038 q 329 1082 340 1059 l 329 1081 "},"o":{"x_min":16,"x_max":502,"ha":521,"o":"m 16 248 q 56 551 28 428 q 122 747 83 674 q 207 850 161 820 q 303 875 253 880 q 392 845 355 872 q 454 771 430 818 q 490 665 478 725 q 502 538 502 605 q 479 344 502 443 q 415 162 457 245 q 312 26 373 80 q 177 -31 252 -26 q 83 -1 116 -31 q 36 69 51 27 q 18 159 21 111 q 16 247 16 207 l 16 248 m 297 765 q 231 718 261 767 q 178 592 200 668 q 142 425 155 515 q 130 257 130 335 q 140 141 130 188 q 174 92 151 94 q 262 147 223 101 q 328 260 301 193 q 369 403 355 326 q 384 552 384 480 q 378 632 384 594 q 362 699 373 671 q 336 746 352 728 q 298 765 320 763 l 297 765 "},"5":{"x_min":20.34375,"x_max":801.484375,"ha":669,"o":"m 127 30 q 127 66 124 48 q 139 96 130 83 q 161 117 147 109 q 192 124 174 125 q 297 96 242 96 q 369 106 333 96 q 435 137 405 117 q 484 182 465 157 q 508 239 504 208 q 511 335 515 283 q 487 432 507 387 q 430 507 467 476 q 333 538 393 538 q 228 514 286 538 q 104 438 170 490 q 54 445 71 438 q 29 461 37 451 q 21 485 21 471 q 20 517 20 500 q 23 578 20 536 q 33 673 27 620 q 52 785 40 726 q 80 896 63 843 q 120 989 97 948 q 173 1049 143 1031 q 223 1011 217 1035 q 225 964 230 987 q 507 1002 367 978 q 793 1038 647 1027 q 792 961 809 989 q 736 917 775 933 q 640 894 697 902 q 518 881 583 887 q 353 864 436 875 q 200 827 269 853 q 162 621 162 799 q 252 655 210 645 q 333 666 294 666 q 479 625 419 666 q 576 521 539 584 q 627 380 613 458 q 636 230 641 303 q 598 128 629 174 q 522 48 568 82 q 420 -2 477 15 q 305 -21 363 -21 q 212 -8 257 -21 q 127 30 166 3 "},"ħ":{"x_min":-133.140625,"x_max":736.359375,"ha":753,"o":"m 215 1 q 186 -19 205 -13 q 149 -24 168 -25 q 115 -16 130 -23 q 100 2 100 -9 l 100 0 q 75 288 81 164 q 67 523 70 413 q 64 628 66 576 q 60 735 63 680 q 52 849 58 790 q 36 975 45 908 q 59 996 44 987 q 92 1010 74 1005 q 127 1018 109 1015 q 158 1018 144 1020 l 191 424 q 241 548 212 484 q 307 666 271 613 q 385 753 342 718 q 473 788 427 788 q 562 731 523 782 q 629 602 600 679 q 678 434 659 526 q 710 259 698 343 q 728 108 722 174 q 736 14 735 42 q 679 -2 702 -16 q 638 52 656 10 q 608 157 621 93 q 583 293 595 221 q 558 427 570 359 q 532 551 546 496 q 501 640 517 606 q 466 671 485 674 q 397 592 431 649 q 334 461 363 535 q 283 307 306 387 q 243 160 260 227 q 220 48 227 93 q 215 1 212 4 m -133 805 q -130 831 -133 815 q -122 863 -127 847 q -111 892 -118 879 q -97 913 -104 906 l 382 898 l 390 784 l -133 805 "},"õ":{"x_min":-4.8125,"x_max":570.3125,"ha":507,"o":"m 16 248 q 56 551 28 428 q 122 747 83 674 q 207 850 161 820 q 303 875 253 880 q 392 845 355 872 q 454 771 430 818 q 490 665 478 725 q 502 538 502 605 q 479 344 502 443 q 415 162 457 245 q 312 26 373 80 q 177 -31 252 -26 q 83 -1 116 -31 q 36 69 51 27 q 18 159 21 111 q 16 247 16 207 l 16 248 m 297 765 q 231 718 261 767 q 178 592 200 668 q 142 425 155 515 q 130 257 130 335 q 140 141 130 188 q 174 92 151 94 q 262 147 223 101 q 328 260 301 193 q 369 403 355 326 q 384 552 384 480 q 378 632 384 594 q 362 699 373 671 q 336 746 352 728 q 298 765 320 763 l 297 765 m -4 942 q 0 992 -4 958 q 21 1061 6 1027 q 60 1121 36 1095 q 120 1147 84 1147 q 194 1125 162 1147 q 255 1076 226 1103 q 306 1035 280 1054 q 366 1015 333 1015 q 412 1028 391 1014 q 451 1064 433 1043 q 480 1110 468 1086 q 500 1151 492 1134 q 518 1146 507 1154 q 540 1123 529 1137 q 558 1094 550 1110 q 566 1065 566 1078 l 570 1077 q 550 1014 570 1045 q 500 956 530 983 q 436 914 471 930 q 371 898 401 898 q 242 938 299 900 q 128 1028 186 976 q 106 994 112 1022 q 97 939 100 966 q 91 905 94 922 q 79 862 88 888 q 44 871 59 862 q 17 894 28 881 q 0 920 6 907 q -4 942 -4 934 "},",":{"x_min":58.328125,"x_max":236.015625,"ha":250,"o":"m 226 136 q 162 6 184 55 q 130 -68 139 -42 q 121 -102 120 -95 q 128 -108 122 -110 q 121 -111 124 -111 q 113 -112 118 -111 q 71 -96 84 -122 q 58 -24 58 -70 q 65 56 58 11 q 87 138 73 100 q 121 203 101 177 q 165 229 141 229 q 236 170 200 229 l 226 136 "},"d":{"x_min":26,"x_max":639.6875,"ha":663,"o":"m 516 22 q 509 66 513 31 q 501 136 505 100 q 444 81 475 110 q 376 28 412 53 q 301 -11 340 4 q 222 -28 263 -28 q 131 -4 168 -28 q 70 54 93 18 q 36 133 46 89 q 26 221 26 178 q 36 318 26 260 q 68 438 47 375 q 120 562 89 500 q 190 673 152 624 q 276 753 229 723 q 378 784 324 784 q 423 771 404 784 q 457 739 443 759 l 457 804 q 461 920 457 866 q 479 1025 465 975 q 507 1047 489 1038 q 542 1056 524 1056 q 575 1046 561 1056 q 597 1010 590 1036 q 584 887 588 945 q 580 777 580 830 q 588 610 580 690 q 608 448 597 530 q 630 266 620 360 q 639 55 639 172 l 639 3 q 624 -45 638 -31 q 592 -60 611 -60 q 548 -34 571 -60 q 516 22 525 -9 m 464 587 q 461 609 462 597 q 461 631 461 620 q 415 639 429 634 q 391 652 401 645 q 379 658 386 654 q 364 663 371 663 q 307 638 334 663 q 256 575 280 614 q 212 488 232 536 q 178 392 192 440 q 156 301 164 344 q 148 230 148 259 q 151 181 148 206 q 163 137 154 157 q 189 103 172 116 q 233 91 206 91 q 308 116 271 91 q 376 179 345 141 q 433 259 408 217 q 473 336 458 301 q 469 464 471 402 q 464 587 466 526 "},"\"":{"x_min":47.46875,"x_max":427.984375,"ha":453,"o":"m 47 588 q 52 612 50 599 q 61 642 55 626 q 74 696 67 667 q 81 756 81 725 q 74 814 81 783 q 48 882 67 844 q 74 936 48 920 q 130 952 100 952 q 189 867 172 919 q 208 759 207 816 q 195 646 208 702 q 160 550 181 591 l 161 554 q 139 535 157 541 q 101 532 120 530 q 65 547 81 535 q 47 583 48 560 l 47 588 m 267 590 q 272 614 269 601 q 280 644 275 628 q 294 698 287 669 q 301 758 301 727 q 294 816 301 785 q 268 884 287 846 q 294 938 268 922 q 349 954 320 954 q 409 869 392 921 q 427 761 427 818 q 415 648 428 704 q 379 552 401 593 l 381 556 q 358 537 377 543 q 320 534 340 532 q 284 549 301 537 q 267 585 268 561 l 267 590 "},"˙":{"x_min":13.25,"x_max":164.625,"ha":174,"o":"m 18 916 q 14 957 10 934 q 29 1000 17 980 q 60 1033 42 1019 q 99 1047 78 1047 q 155 1014 131 1047 l 154 1017 q 164 980 166 1004 q 149 932 161 955 q 118 890 137 908 q 78 873 99 873 q 46 883 62 873 q 18 917 29 894 l 18 916 "},"ê":{"x_min":23,"x_max":544.609375,"ha":574,"o":"m 23 170 q 35 294 23 219 q 73 452 48 368 q 132 618 97 535 q 209 763 166 701 q 300 859 251 826 q 403 878 349 892 q 429 866 414 877 q 459 835 445 855 q 483 784 473 815 q 493 712 493 754 q 478 607 493 667 q 426 474 463 547 q 327 310 389 400 q 168 116 265 221 q 212 99 189 99 q 294 128 250 99 q 377 197 338 157 q 447 278 417 237 q 489 343 478 318 q 531 297 518 318 q 544 259 544 276 q 526 200 544 231 q 478 137 507 169 q 410 75 448 105 q 334 23 373 45 q 260 -11 296 1 q 199 -22 225 -23 q 133 -5 165 -22 q 77 39 101 11 q 37 100 52 66 q 23 170 23 134 m 368 717 q 359 748 368 743 q 311 716 335 746 q 263 642 286 687 q 219 543 240 598 q 182 436 198 489 q 155 335 165 382 q 144 259 145 288 q 212 339 173 282 q 285 466 251 397 q 344 604 320 535 q 368 717 368 672 m 363 748 l 358 748 l 363 748 m 355 750 q 356 748 355 748 l 355 750 m 313 1183 q 348 1215 329 1210 q 397 1221 366 1221 l 515 1062 q 513 1041 515 1055 q 501 1016 511 1028 q 468 999 491 1003 q 407 1008 446 995 l 369 1052 q 355 1030 361 1039 q 342 1008 350 1021 q 310 985 328 990 q 276 984 293 980 q 244 1001 259 989 q 221 1029 229 1013 l 313 1183 "},"„":{"x_min":47.46875,"x_max":427.984375,"ha":456,"o":"m 47 -70 q 52 -46 50 -59 q 61 -16 55 -32 q 74 37 67 8 q 81 97 81 66 q 74 155 81 124 q 48 223 67 185 q 74 277 48 261 q 130 293 100 293 q 189 208 172 260 q 208 100 207 157 q 195 -12 208 43 q 160 -108 181 -67 l 161 -104 q 139 -123 157 -118 q 101 -126 120 -128 q 65 -111 81 -123 q 47 -75 48 -99 l 47 -70 m 267 -69 q 272 -45 269 -58 q 280 -15 275 -31 q 294 38 287 9 q 301 98 301 67 q 294 156 301 125 q 268 224 287 186 q 294 278 268 262 q 349 294 320 294 q 409 209 392 261 q 427 101 427 158 q 415 -11 428 44 q 379 -107 401 -66 l 381 -103 q 358 -122 377 -117 q 320 -125 340 -127 q 284 -110 301 -122 q 267 -74 268 -98 l 267 -69 "},"ľ":{"x_min":20.34375,"x_max":325,"ha":364,"o":"m 164 642 q 169 667 166 653 q 177 697 171 680 q 190 750 183 721 q 197 811 197 779 q 190 868 197 838 q 165 937 183 899 q 190 990 165 975 q 246 1006 216 1006 q 306 923 288 975 q 325 812 325 870 q 312 700 325 755 q 276 604 299 645 l 277 609 q 255 590 273 595 q 217 587 237 584 q 181 602 197 590 q 164 637 165 614 l 164 642 m 131 961 q 153 627 145 766 q 166 395 161 489 q 174 243 172 300 q 179 153 177 185 q 181 115 180 128 q 182 95 181 102 q 183 83 183 87 q 187 71 184 78 q 193 48 189 60 q 177 -2 199 21 q 126 -26 155 -26 q 63 11 92 -26 l 20 966 q 39 1019 23 999 q 74 1040 55 1040 q 108 1022 92 1040 q 131 965 124 1004 l 131 961 "},"Â":{"x_min":5.421875,"x_max":788.09375,"ha":819,"o":"m 187 429 q 214 527 200 478 q 240 618 227 577 q 260 690 252 660 q 271 730 268 719 q 275 747 274 738 q 279 768 276 756 q 295 843 286 802 q 321 919 305 885 q 362 978 337 954 q 421 1002 386 1002 q 452 991 438 1002 q 477 966 466 981 q 495 936 488 951 q 504 911 501 920 l 503 912 q 556 699 535 782 q 588 567 576 616 q 604 498 599 519 q 610 470 609 477 q 661 489 634 482 q 733 491 687 496 q 729 450 733 467 q 718 421 725 433 q 703 401 712 409 q 686 384 694 392 q 666 365 675 375 q 657 341 657 354 q 677 254 657 297 q 720 171 697 211 q 767 78 747 127 q 788 -30 788 30 q 713 -47 743 -53 q 662 -17 683 -42 q 627 46 641 7 q 600 127 613 84 q 564 226 585 175 q 516 303 542 277 q 483 292 507 300 q 429 272 459 284 q 367 247 400 261 q 307 217 335 232 q 259 188 279 202 q 236 162 240 174 l 236 163 q 191 29 214 97 q 147 -104 169 -38 q 116 -141 135 -136 q 77 -147 97 -147 q 27 -132 50 -147 q 5 -83 5 -118 l 187 429 m 290 340 q 341 351 311 344 q 400 369 370 358 q 459 394 431 380 q 510 426 488 407 q 489 517 501 460 q 461 633 476 574 q 431 740 446 691 q 404 806 416 789 l 290 340 m 349 1251 q 384 1283 365 1278 q 433 1289 402 1289 l 551 1130 q 549 1109 551 1123 q 537 1084 547 1096 q 504 1067 527 1071 q 443 1076 482 1063 l 405 1120 q 391 1098 397 1107 q 378 1076 386 1089 q 346 1053 364 1058 q 312 1052 329 1048 q 280 1069 295 1057 q 257 1097 265 1081 l 349 1251 "},"Į":{"x_min":-22,"x_max":222.34375,"ha":218,"o":"m 40 71 q 31 176 35 109 q 25 326 27 243 q 22 501 23 409 q 23 681 21 593 q 27 844 24 768 q 34 971 29 920 l 123 962 q 125 897 124 937 q 128 812 127 858 q 130 717 130 767 q 130 618 130 667 q 135 416 130 508 q 147 254 140 325 q 161 133 154 182 q 173 59 169 83 q 178 27 176 43 q 176 0 180 12 q 159 -21 172 -13 q 120 -30 147 -30 q 86 -18 100 -30 q 63 8 73 -6 q 48 41 54 24 q 40 71 43 59 m 222 -156 q 171 -188 202 -177 q 109 -199 140 -199 q 61 -192 85 -199 q 19 -170 37 -185 q -10 -131 1 -155 q -22 -75 -22 -107 q -16 -42 -22 -65 q 2 7 -11 -18 q 38 56 16 33 q 93 89 60 79 l 159 33 q 104 -18 124 10 q 84 -67 84 -46 q 90 -88 84 -79 q 111 -97 96 -97 q 121 -96 117 -97 q 131 -96 126 -96 q 169 -97 149 -94 q 216 -114 189 -100 l 222 -156 "},"ė":{"x_min":23,"x_max":544.609375,"ha":574,"o":"m 23 170 q 35 294 23 219 q 73 452 48 368 q 132 618 97 535 q 209 763 166 701 q 300 859 251 826 q 403 878 349 892 q 429 866 414 877 q 459 835 445 855 q 483 784 473 815 q 493 712 493 754 q 478 607 493 667 q 426 474 463 547 q 327 310 389 400 q 168 116 265 221 q 212 99 189 99 q 294 128 250 99 q 377 197 338 157 q 447 278 417 237 q 489 343 478 318 q 531 297 518 318 q 544 259 544 276 q 526 200 544 231 q 478 137 507 169 q 410 75 448 105 q 334 23 373 45 q 260 -11 296 1 q 199 -22 225 -23 q 133 -5 165 -22 q 77 39 101 11 q 37 100 52 66 q 23 170 23 134 m 368 717 q 359 748 368 743 q 311 716 335 746 q 263 642 286 687 q 219 543 240 598 q 182 436 198 489 q 155 335 165 382 q 144 259 145 288 q 212 339 173 282 q 285 466 251 397 q 344 604 320 535 q 368 717 368 672 m 363 748 l 358 748 l 363 748 m 355 750 q 356 748 355 748 l 355 750 m 285 977 q 281 1018 277 995 q 296 1061 284 1041 q 327 1094 309 1080 q 366 1108 345 1108 q 422 1075 398 1108 l 421 1078 q 431 1041 433 1065 q 416 993 428 1016 q 385 951 404 969 q 345 934 366 934 q 313 944 329 934 q 285 978 296 955 l 285 977 "},"Ţ":{"x_min":7.125,"x_max":1027.15625,"ha":734,"o":"m 7 789 q 25 831 7 814 q 70 860 43 848 q 127 878 98 871 q 182 889 157 885 l 180 888 q 190 890 184 889 q 209 895 195 892 q 245 903 222 897 q 309 918 268 908 q 479 957 392 938 q 655 991 565 976 q 837 1015 745 1006 q 1027 1025 930 1025 l 1027 933 q 768 899 887 924 q 555 850 648 874 q 531 843 540 846 q 515 838 522 840 q 499 833 507 836 q 477 828 491 831 q 487 753 483 802 q 494 641 491 705 q 499 503 496 577 q 503 351 502 428 q 506 198 504 273 q 509 58 507 123 q 504 15 509 33 q 487 -13 499 -2 q 452 -28 475 -24 q 391 -26 428 -31 l 391 59 q 391 265 392 173 q 386 442 389 357 q 378 613 384 527 q 366 804 373 699 q 222 766 293 786 q 85 726 150 747 q 32 740 57 726 q 7 789 7 753 m 498 -131 q 434 -261 456 -212 q 402 -336 411 -310 q 393 -370 392 -363 q 401 -376 394 -378 q 393 -379 396 -379 q 386 -380 390 -379 q 343 -364 356 -390 q 330 -292 330 -338 q 337 -211 330 -256 q 359 -129 345 -167 q 393 -64 373 -90 q 437 -39 413 -39 q 508 -97 472 -39 l 498 -131 "},"´":{"x_min":20.34375,"x_max":225.171875,"ha":236,"o":"m 130 876 q 78 870 96 866 q 51 882 61 873 q 36 906 42 892 q 20 930 31 919 l 132 1081 q 161 1080 149 1081 q 183 1074 173 1079 q 204 1058 193 1068 q 225 1028 214 1048 l 130 876 "},"Í":{"x_min":22.25,"x_max":228.171875,"ha":218,"o":"m 40 71 q 31 176 35 109 q 25 326 27 243 q 22 501 23 409 q 23 681 21 593 q 27 844 24 768 q 34 971 29 920 l 123 962 q 125 897 124 937 q 128 812 127 858 q 130 717 130 767 q 130 618 130 667 q 135 416 130 508 q 147 254 140 325 q 161 133 154 182 q 173 59 169 83 q 178 27 176 43 q 176 0 180 12 q 159 -21 172 -13 q 120 -30 147 -30 q 86 -18 100 -30 q 63 8 73 -6 q 48 41 54 24 q 40 71 43 59 m 133 1036 q 81 1030 99 1026 q 54 1042 64 1033 q 39 1066 45 1052 q 23 1090 34 1079 l 135 1241 q 164 1240 152 1241 q 186 1234 176 1239 q 207 1218 196 1228 q 228 1188 217 1208 l 133 1036 "},"Ú":{"x_min":32,"x_max":652,"ha":663,"o":"m 212 -12 q 117 87 152 29 q 63 213 82 144 q 38 356 44 281 q 32 506 32 430 q 34 662 32 584 q 33 820 37 740 q 79 854 50 844 q 140 860 108 865 q 146 780 145 817 q 148 711 148 744 q 147 664 148 688 q 146 615 146 639 q 145 561 145 588 q 145 508 145 535 q 148 390 145 448 q 163 279 151 331 q 195 180 174 226 q 250 102 215 135 q 264 100 257 100 q 277 100 271 100 q 360 133 322 100 q 428 224 398 167 q 481 353 459 280 q 517 505 504 427 q 535 659 531 583 q 533 801 539 736 q 500 781 516 781 q 468 801 479 781 q 458 850 458 821 q 462 893 458 870 q 479 934 467 915 q 507 967 490 953 q 548 986 524 981 q 626 886 600 962 q 652 710 652 810 q 640 554 652 637 q 606 390 628 471 q 550 234 584 309 q 474 102 517 159 q 379 11 432 45 q 268 -22 327 -22 q 223 -17 243 -22 l 212 -12 m 282 968 q 230 962 248 958 q 203 974 213 965 q 188 998 194 984 q 172 1022 183 1011 l 284 1173 q 313 1172 301 1173 q 335 1166 325 1171 q 356 1150 345 1160 q 377 1120 366 1140 l 282 968 "},"Ŷ":{"x_min":4.0625,"x_max":594.125,"ha":619,"o":"m 321 337 q 144 578 226 446 q 4 848 62 711 q 50 892 25 891 q 102 866 74 894 q 159 791 130 839 q 221 685 188 742 q 284 577 252 630 q 347 484 316 523 q 354 516 349 499 q 360 552 358 533 q 387 700 371 620 q 423 849 402 780 q 470 964 443 918 q 529 1011 496 1011 q 559 1000 543 1011 q 594 963 575 989 q 518 749 550 854 q 466 531 486 643 q 436 298 446 419 q 427 42 427 177 l 427 -21 q 401 -61 415 -47 q 368 -76 387 -76 q 309 -29 337 -76 l 321 337 m 230 1236 q 265 1268 246 1263 q 314 1274 283 1274 l 432 1115 q 430 1094 432 1108 q 418 1069 428 1081 q 385 1052 408 1056 q 324 1061 363 1048 l 286 1105 q 272 1083 278 1092 q 259 1061 267 1074 q 227 1038 245 1043 q 193 1037 210 1033 q 161 1054 176 1042 q 138 1082 146 1066 l 230 1236 "},"ŝ":{"x_min":21.703125,"x_max":531.15625,"ha":552,"o":"m 279 -30 q 188 -17 231 -25 q 109 7 145 -9 q 50 50 74 24 q 21 116 27 77 q 101 109 70 116 q 160 96 132 103 q 212 82 185 88 q 267 76 240 76 q 316 82 290 76 q 364 100 343 88 q 400 131 386 112 q 415 177 415 150 q 400 230 415 203 q 362 286 385 257 q 310 341 339 314 q 253 394 282 369 q 183 459 218 425 q 120 528 147 492 q 74 603 92 564 q 56 683 56 641 q 80 761 56 725 q 140 821 104 796 q 217 860 176 846 q 295 875 259 875 q 356 866 325 877 q 411 833 387 855 q 445 777 434 811 q 446 699 457 743 l 447 701 q 426 652 440 665 q 396 638 412 638 q 364 652 379 638 q 333 684 348 665 q 333 712 333 698 q 331 738 333 727 q 324 757 329 750 q 310 765 320 765 q 265 758 288 765 q 223 740 242 752 q 190 710 203 728 q 177 668 177 691 q 183 638 173 656 q 212 598 193 619 q 257 551 230 576 q 311 499 283 526 q 396 417 354 459 q 472 330 439 374 q 520 242 504 287 q 527 154 537 197 l 527 157 q 501 64 522 101 q 447 7 480 28 q 372 -21 415 -13 q 280 -30 329 -30 l 279 -30 m 212 1135 q 247 1167 228 1162 q 296 1173 265 1173 l 414 1014 q 412 993 414 1007 q 400 968 410 980 q 367 951 390 955 q 306 960 345 947 l 268 1004 q 254 982 260 991 q 241 960 249 973 q 209 937 227 942 q 175 936 192 932 q 143 953 158 941 q 120 981 128 965 l 212 1135 "},"Ý":{"x_min":20.0625,"x_max":610.125,"ha":619,"o":"m 337 337 q 160 578 242 446 q 20 848 78 711 q 66 892 41 891 q 118 866 90 894 q 175 791 146 839 q 237 685 204 742 q 300 577 268 630 q 363 484 332 523 q 370 516 365 499 q 376 552 374 533 q 403 700 387 620 q 439 849 418 780 q 486 964 459 918 q 545 1011 512 1011 q 575 1000 559 1011 q 610 963 591 989 q 534 749 566 854 q 482 531 502 643 q 452 298 462 419 q 443 42 443 177 l 443 -21 q 417 -61 431 -47 q 384 -76 403 -76 q 325 -29 353 -76 l 337 337 m 319 995 q 267 989 285 985 q 240 1001 250 992 q 225 1025 231 1011 q 209 1049 220 1038 l 321 1200 q 350 1199 338 1200 q 372 1193 362 1198 q 393 1177 382 1187 q 414 1147 403 1167 l 319 995 "},"Ĉ":{"x_min":35,"x_max":741.984375,"ha":753,"o":"m 35 286 q 41 404 35 335 q 64 548 48 473 q 106 697 79 622 q 170 830 132 772 q 260 925 208 888 q 380 962 313 962 q 471 930 440 962 q 515 854 502 899 q 530 755 528 808 q 531 657 531 701 q 471 667 493 657 q 438 693 450 677 q 422 730 426 709 q 416 774 418 751 q 412 806 414 791 q 403 834 409 822 q 385 854 397 846 q 356 863 374 863 q 289 829 319 863 q 238 744 260 796 q 201 628 216 691 q 175 502 185 564 q 161 388 166 440 q 157 309 157 336 q 156 290 156 299 q 156 272 156 281 q 160 204 156 239 q 177 140 165 169 q 210 93 189 110 q 264 81 231 76 q 410 118 343 81 q 529 212 477 155 q 615 338 580 269 q 667 471 651 407 l 741 471 q 720 351 741 411 q 661 235 698 291 q 577 131 625 180 q 474 47 529 83 q 361 -9 419 11 q 249 -30 303 -30 q 138 0 180 -30 q 73 75 96 29 q 42 178 49 121 q 35 286 35 234 m 296 1234 q 331 1266 312 1261 q 380 1272 349 1272 l 498 1113 q 496 1092 498 1106 q 484 1067 494 1079 q 451 1050 474 1054 q 390 1059 429 1046 l 352 1103 q 338 1081 344 1090 q 325 1059 333 1072 q 293 1036 311 1041 q 259 1035 276 1031 q 227 1052 242 1040 q 204 1080 212 1064 l 296 1234 "},"ą":{"x_min":16,"x_max":828.59375,"ha":779,"o":"m 153 -30 q 47 35 79 -27 q 16 196 16 98 q 27 328 16 257 q 60 469 39 398 q 110 607 81 539 q 174 730 139 675 q 246 823 208 785 q 325 876 284 862 q 417 848 383 876 q 470 781 451 821 q 491 816 479 801 q 515 835 502 831 q 542 829 528 839 q 569 791 555 820 q 545 559 553 656 q 538 397 538 462 q 545 277 538 322 q 566 205 553 231 q 598 167 580 178 q 639 150 616 155 l 638 151 q 675 153 658 147 q 707 170 692 159 q 734 196 722 181 q 757 226 747 211 q 781 254 766 237 q 821 296 795 271 q 824 209 833 256 q 789 123 814 162 q 726 60 764 85 q 642 37 687 36 q 555 57 592 37 q 494 109 519 77 q 453 181 469 140 q 429 265 437 222 q 383 164 409 216 q 323 69 357 112 q 247 -2 290 25 q 154 -30 205 -30 l 153 -30 m 410 587 q 406 638 410 608 q 392 695 402 668 q 369 741 383 722 q 333 762 354 760 q 293 733 315 760 q 247 661 270 706 q 201 559 223 616 q 162 441 179 502 q 133 319 144 380 q 123 208 123 258 q 134 128 123 161 q 173 87 146 95 l 170 89 q 213 107 190 85 q 260 169 236 129 q 307 260 284 208 q 350 369 330 313 q 385 483 369 426 q 410 587 401 539 m 687 -94 q 636 -126 667 -115 q 574 -137 605 -137 q 526 -130 550 -137 q 484 -108 502 -123 q 454 -69 466 -93 q 443 -13 443 -45 q 448 19 443 -3 q 467 69 453 43 q 503 118 481 95 q 558 151 525 141 l 624 95 q 569 43 589 72 q 549 -5 549 15 q 555 -26 549 -17 q 576 -35 561 -35 q 586 -34 582 -35 q 596 -34 591 -34 q 634 -35 614 -32 q 681 -52 654 -38 l 687 -94 "},"Ö":{"x_min":15,"x_max":555,"ha":563,"o":"m 210 -27 q 124 10 161 -22 q 63 99 88 44 q 27 225 39 154 q 15 375 15 297 q 35 581 15 477 q 97 771 55 686 q 202 912 139 857 q 348 971 264 966 q 441 934 401 966 q 505 849 480 901 q 542 730 530 797 q 555 588 555 663 q 544 441 555 516 q 512 296 533 366 q 461 164 491 226 q 392 59 431 103 q 308 -8 354 15 q 209 -27 261 -32 l 210 -27 m 441 569 q 434 666 441 619 q 415 749 428 712 q 381 813 401 786 q 332 853 360 841 q 250 799 287 847 q 186 678 212 751 q 144 520 159 606 q 130 354 130 435 q 134 265 130 307 q 150 189 139 223 q 178 132 161 155 q 218 100 195 109 q 309 138 268 96 q 380 248 351 180 q 425 402 409 317 q 441 569 441 486 m 328 855 q 330 854 329 854 q 332 853 330 854 q 335 853 333 853 q 339 854 336 854 l 328 855 m 136 1033 q 126 1073 124 1050 q 137 1114 127 1096 q 164 1146 147 1133 q 200 1159 181 1159 q 231 1151 216 1159 q 258 1124 245 1143 l 256 1127 q 269 1087 269 1109 q 258 1046 268 1066 q 230 1012 248 1026 q 193 999 212 999 q 164 1006 177 999 q 136 1033 150 1014 m 313 1037 q 301 1075 301 1053 q 312 1117 302 1097 q 339 1150 322 1136 q 375 1164 356 1164 q 432 1131 408 1164 l 431 1132 q 447 1093 446 1116 q 440 1049 448 1070 q 415 1015 432 1029 q 376 1001 398 1001 q 314 1036 344 1001 l 313 1037 "},"z":{"x_min":12.15625,"x_max":668.34375,"ha":684,"o":"m 267 -36 q 153 13 186 -31 q 121 123 121 58 q 131 212 121 165 q 158 305 142 259 q 194 394 175 351 q 232 472 214 436 q 119 442 175 457 q 13 415 63 427 q 21 495 8 465 q 57 542 34 525 q 113 567 81 559 q 180 582 145 575 q 248 597 213 587 q 306 620 283 606 q 381 773 344 696 q 310 759 344 771 q 245 729 276 746 q 161 693 206 710 q 51 679 116 677 q 53 730 38 705 q 103 779 69 755 q 185 823 137 803 q 284 858 233 843 q 385 881 335 873 q 473 890 435 890 q 526 861 511 876 q 541 823 541 846 q 532 788 541 807 q 508 744 523 770 q 482 697 496 724 q 451 630 468 670 q 506 649 479 640 q 559 666 534 659 q 577 620 583 648 q 544 564 571 592 q 470 512 517 535 q 367 480 424 489 q 328 403 350 449 q 287 308 306 358 q 255 211 268 259 q 243 129 243 164 q 249 96 243 108 q 272 85 256 84 q 390 105 331 77 q 504 175 450 133 q 600 266 557 218 q 667 346 643 314 q 654 245 671 294 q 604 154 636 196 q 529 75 572 111 q 441 14 487 39 q 350 -24 396 -10 q 267 -36 305 -37 "},"™":{"x_min":8.140625,"x_max":1605.4375,"ha":1628,"o":"m 1420 412 q 1399 579 1409 498 q 1375 724 1390 660 q 1351 652 1364 690 q 1327 578 1338 613 q 1305 514 1315 542 q 1291 473 1295 485 q 1283 449 1287 462 q 1273 422 1279 437 q 1240 325 1258 378 q 1197 227 1222 272 q 1137 151 1171 182 q 1056 121 1102 121 q 994 132 1022 121 q 944 163 967 144 q 902 207 921 182 q 870 260 884 232 l 870 106 l 869 108 q 851 86 869 96 q 812 70 834 76 q 771 67 790 65 q 748 81 752 69 q 746 161 747 107 q 741 282 744 214 q 737 425 739 350 q 733 568 735 500 q 729 690 731 636 q 727 770 727 744 q 726 775 727 773 q 725 780 725 777 q 724 791 724 785 q 724 803 724 797 q 505 759 609 784 q 311 713 402 735 q 273 704 294 709 q 236 694 252 698 q 224 691 234 694 q 200 684 214 689 q 171 674 187 679 q 143 664 155 668 l 145 664 q 124 658 134 660 q 112 653 115 655 q 107 652 109 652 q 100 651 104 651 q 89 649 94 649 q 82 649 84 649 q 31 663 55 649 q 8 712 8 677 q 26 755 8 738 q 71 783 44 771 q 128 801 99 795 q 183 812 158 808 l 181 811 q 197 815 189 814 q 210 818 204 816 l 208 816 q 409 859 311 841 q 605 889 507 877 q 806 906 704 900 q 1021 913 908 913 l 1021 832 q 976 831 995 832 q 938 829 957 830 q 899 827 919 829 q 850 821 878 825 q 893 707 878 777 q 919 560 908 638 q 937 448 927 503 q 961 347 946 392 q 997 272 976 301 q 1049 242 1018 243 q 1151 455 1106 341 q 1233 676 1196 570 q 1286 824 1256 745 q 1357 994 1317 903 q 1411 1004 1390 1005 q 1445 991 1432 1002 q 1464 958 1458 979 q 1470 910 1470 937 q 1537 532 1504 722 q 1604 153 1570 342 l 1604 134 q 1605 91 1604 115 q 1601 45 1606 67 q 1585 5 1596 22 q 1550 -14 1573 -11 q 1499 22 1520 -14 q 1464 118 1478 58 q 1439 254 1450 177 q 1420 412 1429 331 m 389 -121 q 389 -83 389 -108 q 389 -28 389 -59 q 390 39 390 2 q 390 112 390 76 q 389 253 390 187 q 389 346 389 318 q 385 411 389 359 q 378 523 382 462 q 370 635 374 583 q 366 700 367 686 q 378 754 366 738 q 409 770 390 770 q 453 743 430 770 q 486 686 476 716 q 499 396 495 545 q 507 74 503 248 l 507 76 q 508 23 508 50 q 510 -29 508 -2 q 507 -70 510 -49 q 496 -106 505 -90 q 469 -134 486 -123 q 419 -149 451 -146 l 389 -121 "},"Ř":{"x_min":31,"x_max":752.453125,"ha":775,"o":"m 64 16 q 57 184 62 100 q 48 356 53 268 q 38 535 43 443 q 31 725 33 626 q 100 826 56 779 q 195 906 143 873 q 303 959 248 940 q 409 978 357 978 q 487 965 451 978 q 550 926 523 953 q 593 856 577 899 q 609 754 609 813 q 589 639 609 693 q 537 538 569 585 q 463 449 504 491 q 378 371 422 408 q 409 349 392 360 q 446 325 427 339 q 531 266 485 298 q 617 201 576 234 q 692 135 659 168 q 741 74 725 103 q 750 23 756 46 q 706 -13 744 0 q 628 37 665 9 q 556 97 591 66 q 485 155 523 124 q 401 214 447 185 q 296 272 354 244 q 166 324 237 301 q 172 207 168 268 q 185 62 176 146 q 178 21 186 36 q 157 -2 171 5 q 125 -12 144 -10 q 87 -10 107 -13 l 64 16 m 163 572 q 163 478 163 521 q 164 395 163 435 q 282 454 221 419 q 393 534 343 488 q 476 637 443 580 q 509 761 509 693 q 477 835 509 812 q 400 859 445 859 q 331 843 365 859 q 266 803 297 827 q 209 750 236 778 q 163 696 183 722 l 163 572 m 407 1067 q 373 1038 392 1044 q 325 1032 355 1032 l 182 1204 l 190 1220 q 200 1253 195 1238 q 215 1276 206 1269 q 241 1280 225 1284 q 282 1255 256 1276 l 350 1169 q 384 1211 367 1190 q 418 1253 400 1232 q 457 1286 441 1278 q 485 1286 473 1293 q 504 1259 496 1278 q 515 1212 511 1240 l 407 1067 "},"ã":{"x_min":16,"x_max":828.59375,"ha":779,"o":"m 153 -30 q 47 35 79 -27 q 16 196 16 98 q 27 328 16 257 q 60 469 39 398 q 110 607 81 539 q 174 730 139 675 q 246 823 208 785 q 325 876 284 862 q 417 848 383 876 q 470 781 451 821 q 491 816 479 801 q 515 835 502 831 q 542 829 528 839 q 569 791 555 820 q 545 559 553 656 q 538 397 538 462 q 545 277 538 322 q 566 205 553 231 q 598 167 580 178 q 639 150 616 155 l 638 151 q 675 153 658 147 q 707 170 692 159 q 734 196 722 181 q 757 226 747 211 q 781 254 766 237 q 821 296 795 271 q 824 209 833 256 q 789 123 814 162 q 726 60 764 85 q 642 37 687 36 q 555 57 592 37 q 494 109 519 77 q 453 181 469 140 q 429 265 437 222 q 383 164 409 216 q 323 69 357 112 q 247 -2 290 25 q 154 -30 205 -30 l 153 -30 m 410 587 q 406 638 410 608 q 392 695 402 668 q 369 741 383 722 q 333 762 354 760 q 293 733 315 760 q 247 661 270 706 q 201 559 223 616 q 162 441 179 502 q 133 319 144 380 q 123 208 123 258 q 134 128 123 161 q 173 87 146 95 l 170 89 q 213 107 190 85 q 260 169 236 129 q 307 260 284 208 q 350 369 330 313 q 385 483 369 426 q 410 587 401 539 m 46 933 q 53 982 46 949 q 76 1049 59 1015 q 119 1107 92 1082 q 186 1132 146 1132 q 269 1111 233 1132 q 337 1064 304 1090 q 394 1023 364 1042 q 461 1005 423 1005 q 512 1017 488 1003 q 555 1052 535 1031 q 588 1097 574 1073 q 610 1137 601 1120 q 630 1131 617 1140 q 654 1110 642 1123 q 675 1081 666 1097 q 683 1053 683 1066 l 688 1064 q 665 1003 688 1033 q 610 947 643 973 q 538 906 577 921 q 466 890 499 890 q 322 929 386 892 q 194 1017 259 966 q 171 984 177 1011 q 160 931 164 957 q 153 897 157 914 q 140 855 150 881 q 101 864 118 855 q 71 886 84 874 q 53 912 59 899 q 46 933 46 925 "},"Ň":{"x_min":10,"x_max":733.984375,"ha":819,"o":"m 122 -28 q 102 -27 114 -28 q 77 -21 89 -26 q 57 -6 65 -17 q 49 23 49 4 l 49 658 q 18 706 27 684 q 10 751 10 728 q 23 802 10 780 q 54 840 37 823 q 90 865 72 856 q 119 878 108 875 q 178 850 164 878 q 193 783 193 822 q 189 749 193 768 q 184 710 186 730 q 183 672 182 690 q 193 639 184 654 l 191 642 q 280 501 236 579 q 374 345 324 422 q 481 200 423 267 q 612 96 540 133 q 600 505 606 301 q 589 913 594 708 q 607 945 589 933 q 650 962 626 956 q 694 968 674 967 q 717 969 714 969 q 700 781 705 867 q 696 620 696 695 q 700 454 696 533 q 710 307 704 376 q 723 184 716 239 q 733 91 729 129 q 732 52 733 73 q 724 14 731 31 q 702 -15 717 -3 q 659 -28 687 -28 q 546 12 605 -28 q 432 109 487 53 q 333 224 378 165 q 260 319 287 282 l 260 317 q 244 340 255 323 q 219 380 233 358 q 188 429 205 403 q 157 480 172 456 l 166 30 q 168 3 167 14 q 164 -15 168 -7 q 151 -25 160 -22 q 122 -28 141 -28 m 397 895 q 363 866 382 872 q 315 860 345 860 l 172 1032 l 180 1048 q 190 1081 185 1066 q 205 1104 196 1097 q 231 1108 215 1112 q 272 1083 246 1104 l 340 997 q 374 1039 357 1018 q 408 1081 390 1060 q 447 1114 431 1106 q 475 1114 463 1121 q 494 1087 486 1106 q 505 1040 501 1068 l 397 895 "},"æ":{"x_min":16,"x_max":835.625,"ha":848,"o":"m 321 875 q 346 880 334 879 q 368 881 357 881 q 448 860 410 881 q 509 812 486 839 q 596 894 550 869 q 695 904 641 919 q 721 893 706 903 q 750 862 736 883 q 774 811 765 842 q 784 738 784 780 q 769 633 784 693 q 717 500 754 573 q 618 336 680 426 q 459 142 556 247 q 503 125 480 125 q 585 154 541 125 q 668 223 629 183 q 738 304 708 263 q 780 369 769 344 q 822 323 809 344 q 835 285 835 302 q 817 226 835 257 q 769 163 799 195 q 702 102 740 131 q 626 50 664 73 q 553 15 588 28 q 492 4 518 2 q 410 30 450 4 q 344 96 370 57 q 260 6 307 43 q 153 -30 212 -30 q 47 35 79 -27 q 16 196 16 99 q 27 328 16 257 q 60 469 39 399 q 109 607 81 540 q 172 729 138 674 q 243 823 205 785 q 321 875 281 861 m 333 762 q 293 733 315 760 q 247 661 270 706 q 201 560 223 617 q 162 442 179 503 q 133 320 144 381 q 123 208 123 259 q 134 128 123 161 q 173 88 146 96 l 170 89 q 204 101 185 86 q 243 144 223 116 q 282 209 262 172 q 321 290 302 246 q 338 382 327 332 q 364 484 349 432 q 397 589 379 537 q 437 689 415 641 q 424 718 433 704 q 403 744 415 733 q 373 759 390 754 q 335 762 356 765 l 333 762 m 655 747 q 650 773 655 767 q 611 744 630 770 q 571 676 591 717 q 532 583 552 634 q 496 480 512 533 q 467 380 480 428 q 447 298 454 332 q 511 379 475 322 q 579 502 547 435 q 633 636 611 569 q 655 747 655 704 m 650 773 q 652 773 651 773 q 654 774 652 774 l 648 775 q 649 774 648 774 q 650 773 650 774 "},"ĩ":{"x_min":-165.078125,"x_max":439.890625,"ha":249,"o":"m 135 861 q 182 645 165 760 q 209 417 200 530 q 222 205 219 304 q 229 37 226 105 q 198 -17 229 -9 q 120 -17 167 -26 q 109 114 114 43 q 100 249 104 186 q 78 527 90 384 q 43 816 66 671 l 135 861 m -165 953 q -158 996 -165 966 q -137 1054 -152 1025 q -96 1106 -121 1084 q -33 1128 -71 1128 q 44 1109 11 1128 q 108 1067 77 1091 q 162 1032 134 1048 q 225 1016 190 1016 q 273 1027 251 1014 q 314 1057 296 1039 q 345 1096 332 1076 q 366 1131 358 1117 q 384 1127 373 1134 q 408 1108 396 1119 q 427 1083 419 1096 q 435 1058 435 1069 l 439 1068 q 418 1014 439 1041 q 366 965 397 988 q 298 929 335 943 q 231 916 262 916 q 95 949 155 917 q -25 1027 35 982 q -47 998 -41 1021 q -57 951 -53 974 q -64 921 -60 936 q -76 885 -67 907 q -113 893 -97 885 q -141 912 -129 901 q -158 934 -152 923 q -165 953 -165 946 "},"É":{"x_min":34.84375,"x_max":829.4375,"ha":841,"o":"m 307 -30 q 216 -21 263 -30 q 128 10 168 -12 q 61 69 87 32 q 35 162 35 105 q 43 229 33 196 q 69 291 54 261 q 104 349 85 321 q 141 400 123 376 q 153 416 147 408 q 164 431 158 424 q 121 440 145 433 q 78 461 97 447 q 45 499 58 476 q 38 558 33 523 q 75 692 46 621 q 149 823 103 763 q 255 922 194 882 q 388 963 316 963 q 435 949 412 961 q 474 919 457 937 q 500 882 491 901 q 510 844 510 862 q 492 805 510 821 q 431 786 473 789 q 393 838 420 820 q 334 851 365 857 q 273 815 305 844 q 214 747 241 786 q 169 664 187 707 q 151 587 151 621 q 163 551 151 565 q 204 537 175 538 q 270 553 236 535 q 337 595 304 572 q 399 633 368 615 q 463 652 430 650 q 483 651 471 652 q 507 646 495 650 q 528 630 520 641 q 536 600 536 619 q 496 533 536 565 q 402 467 456 501 q 320 413 362 443 q 241 349 277 383 q 181 274 205 314 q 158 188 158 234 q 168 140 158 159 q 195 110 178 121 q 237 96 213 100 q 286 92 261 92 q 423 117 357 92 q 549 184 488 143 q 663 277 609 226 q 764 382 716 329 l 829 382 q 800 290 829 337 q 724 196 771 242 q 619 109 677 150 q 502 37 560 68 q 392 -11 444 6 q 307 -30 341 -30 m 355 987 q 303 981 321 977 q 276 993 286 984 q 261 1017 267 1003 q 245 1041 256 1030 l 357 1192 q 386 1191 374 1192 q 408 1185 398 1190 q 429 1169 418 1179 q 450 1139 439 1159 l 355 987 "},"ŀ":{"x_min":36.34375,"x_max":363.625,"ha":383,"o":"m 147 988 q 169 654 161 793 q 182 422 177 516 q 190 270 188 327 q 195 180 193 212 q 197 142 196 155 q 198 122 197 129 q 199 110 199 114 q 203 98 200 105 q 209 75 205 87 q 193 24 215 48 q 142 1 171 1 q 79 38 108 1 l 36 993 q 55 1046 39 1026 q 90 1067 71 1067 q 124 1049 108 1067 q 147 992 140 1031 l 147 988 m 217 496 q 213 537 209 514 q 228 580 216 560 q 259 613 241 599 q 298 627 277 627 q 354 594 330 627 l 353 597 q 363 560 365 584 q 348 512 360 535 q 317 470 336 488 q 277 453 298 453 q 245 463 261 453 q 217 497 228 474 l 217 496 "},"~":{"x_min":38.28125,"x_max":1614.171875,"ha":1620,"o":"m 880 393 q 693 381 786 391 q 504 357 600 370 q 305 333 408 344 q 70 320 202 322 q 71 351 70 332 q 76 389 71 370 q 92 424 81 408 q 122 448 103 441 q 311 457 215 452 q 504 471 408 462 q 695 494 600 480 q 877 529 789 509 l 877 637 q 553 603 717 621 q 229 568 389 584 q 199 569 221 568 q 154 570 177 570 q 111 571 131 571 q 81 571 90 571 q 45 586 54 571 q 38 621 36 601 q 50 661 40 641 q 69 690 59 681 l 853 772 q 843 835 850 804 q 827 890 835 866 q 817 924 822 909 q 813 951 813 940 q 831 994 813 980 q 876 1008 849 1008 q 931 992 903 1008 q 971 948 960 976 q 1293 944 1127 945 q 1614 940 1459 942 q 1573 813 1608 891 q 1483 645 1538 736 q 1361 456 1429 553 q 1220 270 1292 359 q 1077 110 1147 182 q 948 -1 1006 38 l 880 393 m 978 815 q 986 714 980 775 q 999 581 992 652 q 1014 438 1006 511 q 1029 306 1022 366 q 1032 272 1030 285 q 1034 252 1033 260 q 1035 238 1034 244 q 1037 222 1036 232 q 1100 295 1064 249 q 1176 395 1136 340 q 1255 510 1215 450 q 1330 627 1295 571 q 1395 733 1365 684 q 1441 815 1424 782 l 978 815 m 978 815 q 976 826 976 830 q 978 815 976 823 "},"Ċ":{"x_min":35,"x_max":741.984375,"ha":753,"o":"m 35 286 q 41 404 35 335 q 64 548 48 473 q 106 697 79 622 q 170 830 132 772 q 260 925 208 888 q 380 962 313 962 q 471 930 440 962 q 515 854 502 899 q 530 755 528 808 q 531 657 531 701 q 471 667 493 657 q 438 693 450 677 q 422 730 426 709 q 416 774 418 751 q 412 806 414 791 q 403 834 409 822 q 385 854 397 846 q 356 863 374 863 q 289 829 319 863 q 238 744 260 796 q 201 628 216 691 q 175 502 185 564 q 161 388 166 440 q 157 309 157 336 q 156 290 156 299 q 156 272 156 281 q 160 204 156 239 q 177 140 165 169 q 210 93 189 110 q 264 81 231 76 q 410 118 343 81 q 529 212 477 155 q 615 338 580 269 q 667 471 651 407 l 741 471 q 720 351 741 411 q 661 235 698 291 q 577 131 625 180 q 474 47 529 83 q 361 -9 419 11 q 249 -30 303 -30 q 138 0 180 -30 q 73 75 96 29 q 42 178 49 121 q 35 286 35 234 m 281 1052 q 277 1093 273 1070 q 292 1136 280 1116 q 323 1169 305 1155 q 362 1183 341 1183 q 418 1150 394 1183 l 417 1153 q 427 1116 429 1140 q 412 1068 424 1091 q 381 1026 400 1044 q 341 1009 362 1009 q 309 1019 325 1009 q 281 1053 292 1030 l 281 1052 "},"¡":{"x_min":14.421875,"x_max":170.25,"ha":201,"o":"m 168 723 q 127 761 154 758 q 71 763 100 765 l 39 763 l 51 21 q 69 -4 52 6 q 107 -16 86 -14 q 147 -10 128 -18 q 170 20 165 -2 l 168 723 m 144 817 q 161 840 155 825 q 167 872 167 856 q 152 920 167 898 q 94 943 136 943 q 65 939 83 943 q 26 925 48 935 q 16 867 9 894 q 43 824 23 841 q 90 804 62 807 q 144 817 118 801 "},"ẅ":{"x_min":1.359375,"x_max":1104.140625,"ha":1130,"o":"m 2 838 q 55 885 20 885 q 86 874 70 885 q 113 848 103 863 l 207 254 q 215 291 211 272 q 225 330 219 310 q 259 473 240 398 q 309 610 279 549 q 383 710 340 672 q 489 743 427 748 l 486 743 q 553 716 523 743 q 607 644 583 688 q 650 542 630 599 q 687 427 670 485 q 722 318 705 371 q 760 225 740 265 q 776 351 766 277 q 802 503 786 424 q 838 662 817 583 q 885 806 858 741 q 988 939 934 908 q 1104 920 1041 969 q 1018 804 1052 877 q 959 646 983 732 q 921 469 935 560 q 897 296 907 378 q 883 189 891 241 q 865 92 876 138 q 838 9 854 45 q 800 -52 823 -27 q 725 48 759 -8 q 663 166 691 104 q 613 291 636 227 q 571 413 591 355 q 543 493 556 455 q 520 559 531 531 q 501 603 510 587 q 488 619 493 619 q 447 600 465 621 q 415 543 430 579 q 389 462 401 508 q 368 370 378 416 q 347 269 359 321 q 318 165 335 216 q 278 64 301 113 q 222 -30 255 14 q 185 5 204 -30 q 148 98 166 40 q 111 230 130 155 q 77 383 93 305 q 46 539 61 462 q 22 677 32 615 q 6 780 12 739 q 1 829 1 821 l 2 838 m 378 953 q 368 993 366 970 q 379 1034 369 1016 q 406 1066 389 1053 q 442 1079 423 1079 q 473 1071 458 1079 q 500 1044 487 1063 l 498 1047 q 511 1007 511 1029 q 500 966 510 986 q 472 932 490 946 q 435 919 454 919 q 406 926 419 919 q 378 953 392 934 m 555 957 q 543 995 543 973 q 554 1037 544 1017 q 581 1070 564 1056 q 617 1084 598 1084 q 674 1051 650 1084 l 673 1052 q 689 1013 688 1036 q 682 969 690 990 q 657 935 674 949 q 618 921 640 921 q 556 956 586 921 l 555 957 "},"[":{"x_min":53.546875,"x_max":705.328125,"ha":730,"o":"m 54 945 q 71 994 50 972 q 131 1035 93 1017 q 216 1067 169 1053 q 311 1091 264 1082 q 397 1105 357 1101 q 459 1112 436 1110 l 466 1112 q 496 1110 481 1112 q 526 1101 512 1109 q 547 1076 539 1093 q 555 1026 555 1059 q 516 1021 542 1023 q 475 1015 490 1018 q 400 1005 440 1011 q 321 991 360 999 q 244 972 281 983 q 177 946 207 961 q 198 847 189 895 q 213 740 207 800 q 222 601 219 680 q 225 408 225 522 q 225 305 225 358 q 223 190 225 252 q 221 57 222 129 q 217 -100 219 -13 q 349 -94 291 -98 q 457 -86 408 -90 q 522 -81 493 -83 q 577 -79 552 -79 q 656 -98 625 -79 q 705 -167 687 -116 l 110 -214 q 106 -159 107 -177 q 106 -124 106 -140 q 108 -24 106 -81 q 113 97 110 32 q 118 272 115 179 q 122 454 122 364 q 119 598 122 527 q 109 733 116 670 q 88 848 101 796 q 56 937 75 900 l 54 945 "},"%":{"x_min":30.09375,"x_max":837,"ha":844,"o":"m 492 900 q 432 871 455 893 q 395 818 409 848 q 372 750 381 787 q 357 675 364 713 l 357 676 q 340 586 349 630 q 311 509 330 543 q 258 455 291 475 q 171 434 225 434 q 120 463 141 441 q 87 514 100 485 q 69 577 74 544 q 64 638 64 609 l 64 660 q 61 661 62 660 q 50 677 55 666 q 40 698 45 687 q 32 721 35 710 q 30 738 30 732 q 76 778 39 752 q 163 835 112 803 q 272 900 214 867 q 383 961 331 934 q 476 1007 436 989 q 531 1025 516 1025 q 594 1010 572 1025 q 617 951 617 996 q 617 944 617 949 q 615 934 618 940 q 614 930 615 931 q 614 927 614 930 l 614 923 q 587 782 600 847 q 562 656 574 717 q 534 517 547 586 q 509 367 521 448 q 483 187 496 285 q 456 -37 470 89 q 437 -37 451 -37 q 417 -38 422 -38 q 374 -36 395 -41 q 333 0 352 -31 l 492 900 m 469 150 q 484 250 469 199 q 529 345 500 302 q 602 415 558 387 q 702 442 645 442 q 805 383 774 431 q 837 274 837 336 q 817 166 837 222 q 768 65 798 111 q 699 -8 737 20 q 621 -37 660 -37 q 545 -21 574 -37 q 498 21 515 -5 q 475 81 481 47 q 469 150 469 115 m 693 344 q 642 318 662 340 q 637 259 622 297 q 633 214 638 237 q 621 169 628 192 l 621 170 q 612 139 615 154 q 609 109 609 124 q 613 95 609 101 q 629 86 617 89 q 666 113 648 94 q 696 155 683 131 q 717 208 709 180 q 726 264 726 236 q 717 308 726 287 q 693 344 709 329 m 255 701 q 247 744 255 729 q 218 723 229 737 q 199 690 206 709 q 188 650 191 671 q 185 610 185 629 q 187 575 185 590 q 193 554 189 560 q 216 561 205 548 q 236 597 228 575 q 250 648 244 619 q 255 701 255 676 m 240 751 q 243 748 242 750 q 246 744 244 747 q 252 746 249 746 q 259 747 256 746 l 240 751 "},"P":{"x_min":16,"x_max":667.0625,"ha":682,"o":"m 82 72 q 81 128 82 87 q 77 225 79 170 q 73 343 75 280 q 68 464 70 406 q 64 569 66 523 q 61 641 62 616 q 16 706 31 662 q 37 786 16 749 q 94 852 59 822 q 174 904 129 882 q 265 942 219 927 q 353 964 311 957 q 426 972 395 972 q 514 957 471 972 q 591 915 557 942 q 645 851 624 889 q 666 767 666 813 q 646 678 668 725 q 588 586 624 631 q 506 500 553 542 q 413 428 460 459 q 320 378 365 396 q 241 360 274 360 q 199 368 216 360 q 201 263 200 304 q 204 195 203 221 q 207 153 205 168 q 211 126 208 137 q 215 93 212 116 q 214 57 215 79 q 207 13 213 34 q 189 -23 201 -7 q 155 -41 177 -39 q 117 -39 131 -48 q 96 -16 104 -31 q 86 20 89 0 q 82 61 84 41 l 82 72 m 198 455 q 227 472 211 465 q 263 489 244 479 q 339 527 297 505 q 422 580 382 549 q 496 654 462 611 q 546 756 530 698 q 507 831 541 809 q 425 853 473 853 q 366 846 397 853 q 304 829 335 840 q 246 805 273 819 q 198 777 218 791 l 198 673 l 198 455 "},"_":{"x_min":15.3125,"x_max":798.078125,"ha":803,"o":"m 47 -22 q 19 12 29 -9 q 23 71 9 35 l 755 92 q 795 28 808 52 q 723 -8 782 3 q 568 -25 664 -21 q 356 -30 472 -30 q 260 -29 309 -30 q 161 -28 211 -28 q 112 -27 137 -28 q 63 -26 88 -26 l 47 -22 "},"Ŕ":{"x_min":31,"x_max":752.453125,"ha":781,"o":"m 64 16 q 57 184 62 100 q 48 356 53 268 q 38 535 43 443 q 31 725 33 626 q 100 826 56 779 q 195 906 143 873 q 303 959 248 940 q 409 978 357 978 q 487 965 451 978 q 550 926 523 953 q 593 856 577 899 q 609 754 609 813 q 589 639 609 693 q 537 538 569 585 q 463 449 504 491 q 378 371 422 408 q 409 349 392 360 q 446 325 427 339 q 531 266 485 298 q 617 201 576 234 q 692 135 659 168 q 741 74 725 103 q 750 23 756 46 q 706 -13 744 0 q 628 37 665 9 q 556 97 591 66 q 485 155 523 124 q 401 214 447 185 q 296 272 354 244 q 166 324 237 301 q 172 207 168 268 q 185 62 176 146 q 178 21 186 36 q 157 -2 171 5 q 125 -12 144 -10 q 87 -10 107 -13 l 64 16 m 163 572 q 163 478 163 521 q 164 395 163 435 q 282 454 221 419 q 393 534 343 488 q 476 637 443 580 q 509 761 509 693 q 477 835 509 812 q 400 859 445 859 q 331 843 365 859 q 266 803 297 827 q 209 750 236 778 q 163 696 183 722 l 163 572 m 302 987 q 250 981 268 977 q 223 993 233 984 q 208 1017 214 1003 q 192 1041 203 1030 l 304 1192 q 333 1191 321 1192 q 355 1185 345 1190 q 376 1169 365 1179 q 397 1139 386 1159 l 302 987 "},"ñ":{"x_min":14.71875,"x_max":651.765625,"ha":642,"o":"m 159 654 q 199 739 176 699 q 248 810 221 780 q 307 858 275 841 q 376 875 339 876 q 468 841 433 875 q 525 762 504 808 q 557 665 547 715 q 572 583 567 616 l 572 585 q 577 511 575 563 q 581 392 578 459 q 583 284 582 339 q 588 182 585 229 q 597 99 591 134 q 610 50 602 64 q 591 24 612 38 q 545 1 571 10 q 495 -6 518 -7 q 468 14 472 -4 l 469 12 q 448 185 450 88 q 444 381 445 282 q 441 522 444 454 q 433 642 439 590 q 414 724 427 695 q 377 752 401 754 q 312 714 340 750 q 261 619 283 677 q 224 489 240 562 q 197 343 208 416 q 179 202 187 270 q 168 87 172 134 q 150 1 170 26 q 105 -23 130 -22 q 58 -8 79 -23 q 38 22 36 5 l 38 689 q 44 730 38 709 q 66 766 51 750 q 104 791 81 781 q 159 800 127 800 l 159 654 m 14 929 q 21 983 14 946 q 43 1057 27 1020 q 86 1121 60 1094 q 153 1148 113 1148 q 235 1125 200 1148 q 303 1073 270 1102 q 359 1028 330 1049 q 426 1008 388 1008 q 476 1022 453 1006 q 519 1060 500 1037 q 552 1109 538 1083 q 574 1153 566 1135 q 593 1147 581 1157 q 618 1124 606 1138 q 638 1092 630 1109 q 647 1061 647 1075 l 651 1073 q 629 1006 651 1039 q 574 945 607 973 q 503 899 541 916 q 431 882 464 882 q 288 925 351 884 q 161 1022 226 966 q 138 985 144 1015 q 127 927 131 955 q 121 890 124 908 q 107 843 117 872 q 68 854 86 843 q 39 878 51 864 q 21 906 27 891 q 14 929 14 921 "},"‚":{"x_min":65,"x_max":226,"ha":284,"o":"m 65 -10 q 70 13 67 0 q 78 43 72 27 q 91 97 84 68 q 98 157 98 126 q 91 215 98 184 q 66 283 84 245 q 91 337 66 321 q 147 353 117 353 q 207 269 189 321 q 226 159 226 217 q 213 47 226 102 q 177 -48 200 -7 l 178 -44 q 156 -63 174 -58 q 118 -66 138 -68 q 82 -51 98 -63 q 65 -15 66 -39 l 65 -10 "},"Æ":{"x_min":29.15625,"x_max":1184.4375,"ha":1195,"o":"m 390 219 q 399 291 387 256 q 351 269 375 280 q 308 246 327 257 q 276 225 289 235 q 259 208 263 215 q 214 74 238 143 q 171 -59 191 5 q 140 -96 159 -91 q 101 -102 121 -102 q 51 -87 73 -102 q 29 -38 29 -73 q 35 -4 29 -24 q 52 39 42 16 q 75 88 63 63 q 101 138 88 113 q 127 191 115 167 q 141 223 139 214 q 151 256 144 233 q 166 314 158 280 q 187 389 175 348 q 210 474 198 431 q 238 572 224 523 q 263 663 251 622 q 284 735 276 705 q 295 775 292 764 q 299 792 297 783 q 303 813 300 801 q 319 888 309 847 q 345 964 328 930 q 385 1023 361 999 q 445 1047 410 1047 q 456 1034 448 1047 q 477 1001 465 1021 q 500 958 488 981 q 522 912 513 934 q 560 953 538 933 q 609 989 582 973 q 671 1013 637 1004 q 744 1018 704 1021 q 791 1004 769 1017 q 829 975 812 992 q 856 937 846 957 q 865 900 865 918 q 847 861 865 877 q 787 842 829 844 q 748 894 776 876 q 689 907 720 912 q 642 876 667 899 q 593 815 617 853 q 547 726 568 777 q 513 611 526 675 q 560 592 523 595 q 625 609 591 591 q 692 651 659 627 q 754 688 723 671 q 818 707 785 706 q 838 707 826 707 q 862 701 850 706 q 883 686 875 697 q 891 656 891 675 q 851 589 891 621 q 757 523 811 557 q 675 469 717 499 q 596 404 632 439 q 536 330 560 370 q 513 244 513 290 q 523 196 513 215 q 550 166 533 177 q 592 152 568 156 q 641 148 616 148 q 778 173 712 148 q 904 240 843 199 q 1018 333 964 282 q 1119 438 1071 385 l 1184 438 q 1155 346 1184 393 q 1079 252 1126 298 q 974 165 1032 206 q 857 93 915 124 q 747 44 799 62 q 662 26 696 26 q 571 34 618 26 q 483 65 523 43 q 416 125 442 88 q 390 219 390 162 m 508 485 q 465 500 487 490 q 427 527 444 511 q 400 565 410 543 q 393 615 390 587 q 409 691 397 650 q 440 772 421 732 q 433 814 434 802 q 431 829 431 825 q 430 834 431 834 q 425 840 429 834 q 368 611 395 721 q 313 385 342 501 q 383 398 345 391 q 460 416 422 405 l 508 485 "},"ğ":{"x_min":72,"x_max":758,"ha":779,"o":"m 250 -536 q 226 -508 233 -524 q 219 -476 219 -492 q 227 -441 219 -457 q 249 -417 235 -426 q 279 -409 263 -408 q 311 -423 295 -409 q 363 -445 339 -439 q 410 -452 387 -452 q 512 -409 469 -452 q 584 -303 556 -366 q 624 -168 613 -240 q 632 -34 636 -95 l 589 489 q 466 232 526 331 q 354 75 406 132 q 258 -3 302 18 q 181 -25 214 -25 q 133 -14 154 -25 q 96 8 111 -4 q 77 72 82 37 q 72 146 72 106 q 85 291 72 211 q 123 452 99 371 q 182 610 147 534 q 259 747 217 687 q 349 843 301 807 q 450 879 397 879 q 500 871 476 879 q 550 845 525 864 q 575 872 560 865 q 609 880 590 880 q 647 868 628 880 q 681 833 666 856 l 757 -20 q 758 -40 758 -29 q 758 -62 758 -52 q 752 -153 758 -100 q 732 -263 747 -206 q 694 -374 718 -319 q 631 -472 669 -429 q 539 -542 592 -516 q 412 -569 485 -569 q 339 -562 378 -569 q 257 -540 301 -555 l 250 -536 m 515 683 q 493 732 515 710 q 445 757 472 755 q 387 719 416 752 q 329 635 358 686 q 276 521 301 584 q 233 393 252 458 q 203 268 214 329 q 193 159 193 207 q 194 121 193 136 q 201 96 195 106 q 256 130 224 97 q 323 215 289 163 q 392 330 358 266 q 454 459 427 394 q 498 583 481 524 q 515 683 515 642 m 383 1093 q 439 1034 411 1049 q 489 1023 466 1019 q 533 1042 513 1026 q 569 1076 554 1059 q 592 1108 584 1094 q 603 1123 601 1123 q 628 1121 612 1123 q 657 1112 645 1120 q 672 1087 669 1104 q 661 1038 676 1070 q 618 977 649 1000 q 550 941 588 953 q 470 931 512 930 q 394 944 429 933 q 334 977 358 956 q 306 1026 310 998 l 383 1093 "},"Ū":{"x_min":23,"x_max":643,"ha":663,"o":"m 203 -16 q 108 83 143 25 q 54 209 73 140 q 29 352 35 277 q 23 502 23 426 q 25 658 23 580 q 24 816 28 736 q 70 850 41 840 q 131 856 99 861 q 137 776 136 813 q 139 707 139 740 q 138 660 139 684 q 137 611 137 635 q 136 557 136 584 q 136 504 136 531 q 139 386 136 444 q 154 275 142 327 q 186 176 165 222 q 241 98 206 131 q 255 96 248 96 q 268 96 262 96 q 351 129 313 96 q 419 220 389 163 q 472 349 450 276 q 508 501 495 423 q 526 655 522 579 q 524 797 530 732 q 491 777 507 777 q 459 797 470 777 q 449 846 449 817 q 453 889 449 866 q 470 930 458 911 q 498 963 481 949 q 539 982 515 977 q 617 882 591 958 q 643 706 643 806 q 631 550 643 633 q 597 386 619 467 q 541 230 575 305 q 465 98 508 155 q 370 7 423 41 q 259 -26 318 -26 q 214 -21 234 -26 l 203 -16 m 52 1046 q 55 1072 52 1056 q 63 1104 58 1088 q 74 1133 67 1120 q 88 1154 81 1147 l 568 1139 l 576 1025 l 52 1046 "},"Œ":{"x_min":39,"x_max":1044.453125,"ha":1053,"o":"m 206 -27 q 132 13 163 -18 q 80 93 101 44 q 49 204 59 142 q 39 335 39 267 q 57 525 39 428 q 114 698 76 621 q 205 825 151 775 q 330 875 260 875 q 366 872 348 875 q 405 861 385 869 q 496 925 446 900 q 603 951 546 951 q 650 937 627 949 q 689 907 672 925 q 715 870 706 890 q 725 833 725 850 q 707 793 725 810 q 646 775 688 777 q 608 827 635 808 q 549 840 580 845 q 488 804 520 833 q 429 735 456 775 q 384 652 402 696 q 366 575 366 609 q 378 540 366 553 q 419 525 390 526 q 485 542 451 523 q 552 583 519 560 q 614 621 583 603 q 678 640 645 639 q 698 639 686 640 q 722 634 710 639 q 743 618 735 629 q 751 589 751 608 q 711 521 751 553 q 617 456 671 489 q 535 401 577 431 q 456 337 492 371 q 396 262 420 302 q 373 176 373 222 q 383 128 373 147 q 410 99 393 109 q 452 84 428 88 q 501 80 476 80 q 638 105 572 80 q 764 172 703 131 q 878 265 824 214 q 979 370 931 317 l 1044 370 q 1015 278 1044 325 q 939 184 986 230 q 834 97 892 138 q 717 25 775 56 q 607 -23 659 -5 q 522 -42 556 -42 q 419 -30 473 -42 q 321 10 364 -18 q 265 -16 294 -3 q 208 -27 235 -29 l 206 -27 m 255 106 q 250 151 250 123 q 258 217 248 185 q 284 279 268 250 q 318 337 299 309 q 355 388 337 365 q 367 404 361 396 q 378 419 372 412 q 335 429 359 422 q 292 450 312 435 q 261 488 273 464 q 253 547 248 511 q 280 658 259 600 q 335 771 301 716 q 257 730 292 771 q 196 628 222 690 q 157 489 171 566 q 143 338 143 412 q 160 193 143 256 q 219 100 177 129 q 255 106 235 99 m 406 415 q 413 414 409 415 q 418 413 417 413 l 391 446 q 378 419 388 434 q 406 415 394 415 "},"Ą":{"x_min":5.421875,"x_max":841.34375,"ha":819,"o":"m 187 429 q 214 527 200 478 q 240 618 227 577 q 260 690 252 660 q 271 730 268 719 q 275 747 274 738 q 279 768 276 756 q 295 843 286 802 q 321 919 305 885 q 362 978 337 954 q 421 1002 386 1002 q 452 991 438 1002 q 477 966 466 981 q 495 936 488 951 q 504 911 501 920 l 503 912 q 556 699 535 782 q 588 567 576 616 q 604 498 599 519 q 610 470 609 477 q 661 489 634 482 q 733 491 687 496 q 729 450 733 467 q 718 421 725 433 q 703 401 712 409 q 686 384 694 392 q 666 365 675 375 q 657 341 657 354 q 677 254 657 297 q 720 171 697 211 q 767 78 747 127 q 788 -30 788 30 q 713 -47 743 -53 q 662 -17 683 -42 q 627 46 641 7 q 600 127 613 84 q 564 226 585 175 q 516 303 542 277 q 483 292 507 300 q 429 272 459 284 q 367 247 400 261 q 307 217 335 232 q 259 188 279 202 q 236 162 240 174 l 236 163 q 191 29 214 97 q 147 -104 169 -38 q 116 -141 135 -136 q 77 -147 97 -147 q 27 -132 50 -147 q 5 -83 5 -118 l 187 429 m 290 340 q 341 351 311 344 q 400 369 370 358 q 459 394 431 380 q 510 426 488 407 q 489 517 501 460 q 461 633 476 574 q 431 740 446 691 q 404 806 416 789 l 290 340 m 841 -174 q 790 -206 821 -195 q 728 -217 759 -217 q 680 -210 704 -217 q 638 -188 656 -203 q 608 -149 620 -173 q 597 -93 597 -125 q 602 -60 597 -83 q 621 -10 607 -36 q 657 38 635 15 q 712 71 679 61 l 778 15 q 723 -36 743 -7 q 703 -85 703 -64 q 709 -106 703 -97 q 730 -115 715 -115 q 740 -114 736 -115 q 750 -114 745 -114 q 788 -115 768 -112 q 835 -132 808 -118 l 841 -174 "},"T":{"x_min":7.125,"x_max":1027.15625,"ha":630,"o":"m 7 789 q 25 831 7 814 q 70 860 43 848 q 127 878 98 871 q 182 889 157 885 l 180 888 q 190 890 184 889 q 209 895 195 892 q 245 903 222 897 q 309 918 268 908 q 479 957 392 938 q 655 991 565 976 q 837 1015 745 1006 q 1027 1025 930 1025 l 1027 933 q 768 899 887 924 q 555 850 648 874 q 531 843 540 846 q 515 838 522 840 q 499 833 507 836 q 477 828 491 831 q 487 753 483 802 q 494 641 491 705 q 499 503 496 577 q 503 351 502 428 q 506 198 504 273 q 509 58 507 123 q 504 15 509 33 q 487 -13 499 -2 q 452 -28 475 -24 q 391 -26 428 -31 l 391 59 q 391 265 392 173 q 386 442 389 357 q 378 613 384 527 q 366 804 373 699 q 222 766 293 786 q 85 726 150 747 q 32 740 57 726 q 7 789 7 753 "},"š":{"x_min":21.703125,"x_max":531.15625,"ha":552,"o":"m 279 -30 q 188 -17 231 -25 q 109 7 145 -9 q 50 50 74 24 q 21 116 27 77 q 101 109 70 116 q 160 96 132 103 q 212 82 185 88 q 267 76 240 76 q 316 82 290 76 q 364 100 343 88 q 400 131 386 112 q 415 177 415 150 q 400 230 415 203 q 362 286 385 257 q 310 341 339 314 q 253 394 282 369 q 183 459 218 425 q 120 528 147 492 q 74 603 92 564 q 56 683 56 641 q 80 761 56 725 q 140 821 104 796 q 217 860 176 846 q 295 875 259 875 q 356 866 325 877 q 411 833 387 855 q 445 777 434 811 q 446 699 457 743 l 447 701 q 426 652 440 665 q 396 638 412 638 q 364 652 379 638 q 333 684 348 665 q 333 712 333 698 q 331 738 333 727 q 324 757 329 750 q 310 765 320 765 q 265 758 288 765 q 223 740 242 752 q 190 710 203 728 q 177 668 177 691 q 183 638 173 656 q 212 598 193 619 q 257 551 230 576 q 311 499 283 526 q 396 417 354 459 q 472 330 439 374 q 520 242 504 287 q 527 154 537 197 l 527 157 q 501 64 522 101 q 447 7 480 28 q 372 -21 415 -13 q 280 -30 329 -30 l 279 -30 m 281 926 q 247 897 266 903 q 199 891 229 891 l 56 1063 l 64 1079 q 74 1112 69 1097 q 89 1135 80 1128 q 115 1139 99 1143 q 156 1114 130 1135 l 224 1028 q 258 1070 241 1049 q 292 1112 274 1091 q 331 1145 315 1137 q 359 1145 347 1152 q 378 1118 370 1137 q 389 1071 385 1099 l 281 926 "},"Þ":{"x_min":20.375,"x_max":672,"ha":686,"o":"m 53 -314 q 69 -15 63 -156 q 76 253 76 125 q 61 637 76 471 q 20 913 46 802 q 23 955 20 935 q 37 991 25 976 q 70 1014 48 1006 q 131 1021 92 1022 l 189 595 q 228 664 206 630 q 278 726 250 699 q 342 768 307 752 q 421 785 377 785 q 539 742 491 785 q 616 639 586 700 q 659 509 646 577 q 672 387 672 440 q 652 240 669 315 q 602 104 636 165 q 513 3 567 43 q 382 -38 458 -36 q 289 -30 342 -40 q 190 10 237 -20 q 179 -177 185 -78 q 171 -361 173 -275 l 74 -343 l 53 -314 m 216 143 q 234 113 216 127 q 278 91 252 100 q 330 77 304 82 q 371 71 357 71 q 465 123 430 84 q 519 214 500 162 q 544 319 538 265 q 551 413 551 373 q 542 486 551 443 q 517 570 534 530 q 473 638 500 610 q 408 666 446 666 q 342 633 370 666 q 291 550 313 600 q 256 438 270 500 q 232 319 241 377 q 220 214 224 261 q 216 143 216 166 "},"j":{"x_min":-223.40625,"x_max":286,"ha":306,"o":"m -222 -473 q -215 -448 -226 -460 q -189 -426 -204 -436 q -158 -413 -173 -417 q -136 -413 -143 -409 l -143 -405 q -57 -454 -100 -439 q 21 -469 -14 -469 q 124 -433 84 -469 q 167 -345 164 -397 q 161 -236 165 -304 q 151 -83 157 -167 q 137 97 145 1 q 120 287 129 192 q 103 471 112 382 q 88 628 95 559 q 75 742 81 697 q 66 796 69 787 q 77 814 66 803 q 104 833 88 825 q 141 846 120 842 q 180 846 161 850 q 203 678 191 777 q 227 466 215 579 q 248 234 238 354 q 267 4 258 115 q 279 -202 275 -106 q 286 -363 284 -298 q 265 -464 286 -422 q 210 -531 245 -505 q 131 -568 176 -557 q 39 -579 86 -579 q -39 -571 0 -579 q -114 -551 -79 -564 q -176 -519 -149 -538 q -218 -481 -203 -501 l -222 -473 m 59 1018 q 103 1011 82 1022 q 135 981 124 1001 q 145 937 146 961 q 124 888 145 912 q 66 878 89 877 q 29 888 43 880 q 10 910 16 896 q 4 941 4 925 q 20 992 4 968 q 59 1018 36 1015 "},"1":{"x_min":37,"x_max":150.703125,"ha":203,"o":"m 150 1022 l 148 10 q 135 -34 142 -20 q 119 -49 129 -47 q 97 -45 110 -51 q 72 -30 85 -39 l 73 -30 q 62 -23 68 -27 q 37 -13 55 -20 l 37 364 q 37 537 37 447 q 39 714 38 626 q 42 881 39 801 q 47 1027 44 961 l 150 1022 "},"<":{"x_min":47.46875,"x_max":579.125,"ha":619,"o":"m 47 460 q 84 508 67 492 q 115 540 100 525 q 209 625 161 582 q 300 705 257 669 q 379 769 343 742 q 439 806 415 796 q 511 810 491 826 q 520 728 531 793 l 221 438 q 279 372 248 400 q 344 321 310 343 q 414 279 378 298 q 489 241 450 260 q 530 222 507 233 q 571 201 553 210 q 578 171 576 187 q 575 140 580 154 q 558 113 571 125 q 520 98 545 102 q 446 117 492 98 q 350 168 401 137 q 248 239 299 199 q 153 318 196 278 q 82 395 111 358 q 47 460 52 433 "},"t":{"x_min":-36.703125,"x_max":586.1875,"ha":499,"o":"m 243 21 q 226 -8 243 2 q 187 -25 209 -19 q 145 -32 165 -31 q 122 -34 126 -34 l 122 660 q 94 655 108 657 q 66 649 81 652 q 44 644 55 646 q 21 640 32 642 q -10 661 6 640 q -36 745 -27 682 q 10 758 -9 752 q 39 764 31 763 q 84 773 62 767 q 122 790 107 779 l 122 983 q 130 1007 122 992 q 155 1034 139 1022 q 193 1051 170 1045 q 243 1048 215 1056 l 245 823 q 417 855 327 838 q 586 888 508 873 q 576 836 586 859 q 552 796 567 813 q 523 769 538 779 q 495 755 507 759 q 449 743 474 750 q 397 731 424 737 q 312 712 354 721 q 243 694 270 702 l 243 21 l 243 21 "},"ù":{"x_min":26,"x_max":543.15625,"ha":574,"o":"m 187 -30 q 131 -11 156 -36 q 89 62 107 14 q 58 176 70 111 q 39 312 46 241 q 29 457 32 383 q 26 595 26 530 q 26 664 26 632 q 29 722 27 697 q 35 746 29 731 q 57 775 42 762 q 97 795 72 789 q 161 789 123 801 q 155 753 158 779 q 150 689 153 727 q 146 604 147 651 q 145 509 145 558 q 147 379 145 446 q 153 255 149 311 q 167 159 158 199 q 188 112 176 120 q 240 155 214 121 q 293 235 267 188 q 341 341 318 283 q 380 462 363 400 q 407 587 397 524 q 418 703 418 649 q 394 830 418 771 q 409 843 399 835 q 430 860 419 851 q 453 873 442 868 q 468 879 464 879 q 512 855 496 879 q 534 800 528 831 q 542 739 541 769 q 543 697 543 709 q 533 596 544 661 q 501 454 522 531 q 449 295 480 377 q 378 145 418 214 q 289 27 338 75 q 186 -30 241 -20 l 187 -30 m 138 1070 q 158 1100 149 1089 q 179 1115 168 1111 q 202 1121 190 1120 q 230 1122 214 1122 l 343 971 q 337 942 343 959 q 318 912 331 925 q 287 894 305 899 q 245 900 268 888 l 138 1070 "},"ĉ":{"x_min":33,"x_max":576.453125,"ha":619,"o":"m 184 -27 q 115 -2 144 -22 q 67 50 85 17 q 41 124 49 82 q 33 215 33 166 q 47 355 33 280 q 85 503 61 430 q 140 645 108 577 q 208 765 172 713 q 282 849 244 817 q 355 883 320 881 q 429 865 397 883 q 482 821 461 848 q 514 760 504 794 q 525 692 525 726 q 514 625 525 660 q 480 557 503 590 q 437 578 452 565 q 414 606 421 590 q 405 640 406 622 q 404 677 404 658 q 403 704 404 691 q 399 727 402 717 q 387 744 395 737 q 364 751 379 751 q 309 719 336 751 q 259 639 282 688 q 217 530 236 591 q 185 413 198 470 q 165 308 172 356 q 158 235 158 260 l 158 218 q 158 180 158 201 q 161 138 158 158 q 173 105 164 119 q 198 92 182 92 q 277 119 233 92 q 363 186 320 146 q 446 271 406 226 q 516 351 486 315 q 527 366 518 355 q 545 388 536 376 q 563 409 555 399 q 574 421 571 418 q 566 320 581 372 q 522 218 551 268 q 452 124 492 169 q 366 46 411 79 q 274 -6 320 13 q 187 -27 228 -27 l 184 -27 m 299 1143 q 334 1175 315 1170 q 383 1181 352 1181 l 501 1022 q 499 1001 501 1015 q 487 976 497 988 q 454 959 477 963 q 393 968 432 955 l 355 1012 q 341 990 347 999 q 328 968 336 981 q 296 945 314 950 q 262 944 279 940 q 230 961 245 949 q 207 989 215 973 l 299 1143 "},"ï":{"x_min":-37.09375,"x_max":284.703125,"ha":249,"o":"m 135 861 q 182 645 165 760 q 209 417 200 530 q 222 205 219 304 q 229 37 226 105 q 198 -17 229 -9 q 120 -17 167 -26 q 109 114 114 43 q 100 249 104 186 q 78 527 90 384 q 43 816 66 671 l 135 861 m -26 926 q -36 966 -38 943 q -25 1007 -35 989 q 1 1039 -15 1026 q 37 1052 18 1052 q 68 1044 53 1052 q 95 1017 82 1036 l 93 1020 q 106 980 106 1002 q 95 939 105 959 q 67 905 85 919 q 30 892 49 892 q 1 899 14 892 q -26 926 -12 907 m 150 930 q 138 968 138 946 q 149 1010 139 990 q 176 1043 159 1029 q 212 1057 193 1057 q 269 1024 245 1057 l 268 1025 q 284 986 283 1009 q 277 942 285 963 q 252 908 269 922 q 213 894 235 894 q 151 929 181 894 l 150 930 "},"ī":{"x_min":-130.140625,"x_max":393.4375,"ha":249,"o":"m 135 861 q 182 645 165 760 q 209 417 200 530 q 222 205 219 304 q 229 37 226 105 q 198 -17 229 -9 q 120 -17 167 -26 q 109 114 114 43 q 100 249 104 186 q 78 527 90 384 q 43 816 66 671 l 135 861 m -130 924 q -127 950 -130 934 q -119 982 -124 966 q -108 1011 -115 998 q -94 1032 -101 1025 l 385 1017 l 393 903 l -130 924 "},"Ò":{"x_min":15,"x_max":555,"ha":567,"o":"m 210 -27 q 124 10 161 -22 q 63 99 88 44 q 27 225 39 154 q 15 375 15 297 q 35 581 15 477 q 97 771 55 686 q 202 912 139 857 q 348 971 264 966 q 441 934 401 966 q 505 849 480 901 q 542 730 530 797 q 555 588 555 663 q 544 441 555 516 q 512 296 533 366 q 461 164 491 226 q 392 59 431 103 q 308 -8 354 15 q 209 -27 261 -32 l 210 -27 m 441 569 q 434 666 441 619 q 415 749 428 712 q 381 813 401 786 q 332 853 360 841 q 250 799 287 847 q 186 678 212 751 q 144 520 159 606 q 130 354 130 435 q 134 265 130 307 q 150 189 139 223 q 178 132 161 155 q 218 100 195 109 q 309 138 268 96 q 380 248 351 180 q 425 402 409 317 q 441 569 441 486 m 328 855 q 330 854 329 854 q 332 853 330 854 q 335 853 333 853 q 339 854 336 854 l 328 855 m 168 1193 q 188 1223 179 1212 q 209 1238 198 1234 q 232 1244 220 1243 q 260 1245 244 1245 l 373 1094 q 367 1065 373 1082 q 348 1035 361 1048 q 317 1017 335 1022 q 275 1023 298 1011 l 168 1193 "},"Ď":{"x_min":23.015625,"x_max":810,"ha":841,"o":"m 128 793 q 96 781 113 786 q 68 775 79 775 q 25 795 35 775 q 45 862 15 815 q 144 924 90 904 q 256 950 198 944 q 376 952 315 956 q 494 944 437 948 q 620 893 564 926 q 717 817 677 861 q 782 721 758 774 q 810 610 805 668 q 783 468 810 542 q 710 323 757 394 q 601 187 663 252 q 468 75 540 123 q 322 -1 397 26 q 174 -30 247 -30 q 167 204 174 90 q 151 429 160 318 q 137 615 144 524 q 128 793 130 705 m 350 860 q 246 845 297 860 q 256 503 251 638 q 267 282 262 368 q 275 150 271 196 q 282 78 279 104 q 284 77 282 78 q 380 118 330 86 q 477 196 430 150 q 566 297 524 242 q 639 408 608 352 q 688 516 670 463 q 706 611 706 569 q 674 717 706 671 q 590 795 642 763 q 475 843 539 827 q 350 860 411 860 m 283 75 q 282 77 283 77 q 282 78 282 77 q 283 74 282 80 q 283 75 284 69 m 428 1020 q 394 991 413 997 q 346 985 376 985 l 203 1157 l 211 1173 q 221 1206 216 1191 q 236 1229 227 1222 q 262 1233 246 1237 q 303 1208 277 1229 l 371 1122 q 405 1164 388 1143 q 439 1206 421 1185 q 478 1239 462 1231 q 506 1239 494 1246 q 525 1212 517 1231 q 536 1165 532 1193 l 428 1020 "},"&":{"x_min":37.203125,"x_max":843.703125,"ha":846,"o":"m 428 172 q 413 259 417 216 q 405 345 408 303 q 404 364 404 357 q 403 376 404 370 q 402 389 402 383 q 400 408 401 396 q 318 388 367 397 q 219 379 269 379 q 101 403 151 379 q 42 451 55 427 q 52 522 28 475 q 97 593 66 553 q 170 675 128 634 q 261 755 212 716 q 359 823 310 794 q 453 867 408 852 q 533 876 497 882 l 520 568 q 585 598 556 583 q 640 627 615 613 q 697 655 671 644 q 747 665 722 665 q 786 654 763 665 q 843 617 809 643 q 708 539 763 571 q 617 485 653 506 q 560 452 580 464 q 531 435 541 441 q 520 429 522 430 q 518 429 518 429 q 509 406 511 418 q 507 380 507 393 q 515 323 507 353 q 534 262 523 293 q 554 193 545 228 q 564 125 564 159 q 541 39 564 84 q 491 29 511 29 q 458 38 472 30 q 435 60 444 46 q 417 90 425 73 l 419 90 q 419 92 416 94 q 421 95 423 91 q 404 115 419 99 q 352 174 390 132 l 428 172 m 393 534 q 403 568 398 542 q 411 624 408 594 q 415 683 413 655 q 416 724 417 710 q 362 712 396 731 q 292 660 328 693 q 225 586 257 628 q 176 503 193 544 q 210 499 191 500 q 250 498 230 498 q 339 505 297 498 q 392 531 382 512 l 393 534 "},"˝":{"x_min":24.421875,"x_max":428.640625,"ha":450,"o":"m 132 878 q 83 876 101 872 q 53 889 65 880 q 35 910 42 899 q 24 930 29 922 l 126 1075 q 178 1079 151 1085 q 230 1030 204 1074 l 132 878 m 329 864 q 290 857 309 855 q 256 867 271 859 q 230 885 241 874 q 214 903 219 895 l 321 1070 q 351 1070 337 1070 q 379 1066 366 1070 q 405 1051 393 1062 q 428 1021 417 1041 l 329 864 "},"I":{"x_min":36.25,"x_max":192.828125,"ha":218,"o":"m 54 71 q 45 176 49 109 q 39 326 41 243 q 36 501 37 409 q 37 681 35 593 q 41 844 38 768 q 48 971 43 920 l 137 962 q 139 897 138 937 q 142 812 141 858 q 144 717 144 767 q 144 618 144 667 q 149 416 144 508 q 161 254 154 325 q 175 133 168 182 q 187 59 183 83 q 192 27 190 43 q 190 0 194 12 q 173 -21 186 -13 q 134 -30 161 -30 q 100 -18 114 -30 q 77 8 87 -6 q 62 41 68 24 q 54 71 57 59 "},"G":{"x_min":35,"x_max":847.34375,"ha":864,"o":"m 35 284 q 46 384 35 319 q 79 524 58 448 q 130 678 100 600 q 197 820 159 756 q 281 924 235 884 q 376 965 326 965 l 374 965 q 406 966 389 966 q 441 957 424 965 q 472 931 458 949 q 494 882 486 914 q 486 853 494 866 q 463 832 477 840 q 433 821 450 824 q 399 820 416 817 q 392 831 397 825 q 382 839 387 838 q 336 827 361 848 q 284 762 310 805 q 234 659 258 718 q 191 533 210 599 q 160 400 172 467 q 149 273 149 333 q 156 195 149 231 q 180 135 163 159 q 222 98 196 111 q 287 92 249 86 q 360 102 319 92 q 442 133 401 113 q 523 180 483 153 q 594 239 563 207 q 643 306 624 271 q 662 378 662 341 q 658 414 662 392 q 646 458 654 437 q 626 494 638 479 q 599 509 615 509 q 504 489 547 511 q 426 437 460 466 q 372 381 392 408 q 348 348 352 354 q 325 349 340 348 q 295 355 310 350 q 270 370 281 359 q 260 400 260 381 q 280 457 260 428 q 331 511 300 485 q 401 557 363 536 q 477 596 440 579 q 546 621 515 612 q 596 630 578 630 q 673 613 642 630 q 723 567 703 596 q 756 503 744 539 q 779 429 768 467 q 793 370 783 412 q 814 279 803 328 q 835 183 825 230 q 847 107 844 135 q 835 79 841 94 q 819 52 828 63 q 798 35 810 40 q 768 39 786 31 q 736 71 748 51 q 716 113 723 90 q 704 160 708 135 q 695 206 699 184 q 614 118 658 161 q 518 42 569 75 q 411 -10 467 9 q 293 -30 354 -30 q 163 -7 213 -30 q 85 56 113 14 q 45 155 56 97 q 35 284 35 212 "},"`":{"x_min":9.5,"x_max":214.3125,"ha":231,"o":"m 9 1055 q 29 1085 20 1074 q 50 1100 39 1096 q 73 1106 61 1105 q 101 1107 85 1107 l 214 956 q 208 927 214 944 q 189 897 202 910 q 158 879 176 884 q 116 885 139 873 l 9 1055 "},"ŏ":{"x_min":16,"x_max":502,"ha":507,"o":"m 16 248 q 56 551 28 428 q 122 747 83 674 q 207 850 161 820 q 303 875 253 880 q 392 845 355 872 q 454 771 430 818 q 490 665 478 725 q 502 538 502 605 q 479 344 502 443 q 415 162 457 245 q 312 26 373 80 q 177 -31 252 -26 q 83 -1 116 -31 q 36 69 51 27 q 18 159 21 111 q 16 247 16 207 l 16 248 m 297 765 q 231 718 261 767 q 178 592 200 668 q 142 425 155 515 q 130 257 130 335 q 140 141 130 188 q 174 92 151 94 q 262 147 223 101 q 328 260 301 193 q 369 403 355 326 q 384 552 384 480 q 378 632 384 594 q 362 699 373 671 q 336 746 352 728 q 298 765 320 763 l 297 765 m 198 1059 q 254 1000 226 1015 q 304 989 281 985 q 348 1008 328 992 q 384 1042 369 1025 q 407 1074 399 1060 q 418 1089 416 1089 q 443 1087 427 1089 q 472 1078 460 1086 q 487 1053 484 1070 q 476 1004 491 1036 q 433 943 464 966 q 365 907 403 919 q 285 897 327 896 q 209 910 244 899 q 149 943 173 922 q 121 992 125 964 l 198 1059 "},"¿":{"x_min":32.515625,"x_max":668.359375,"ha":693,"o":"m 503 937 q 486 907 498 920 q 461 883 475 893 q 432 867 446 872 q 404 861 417 861 q 373 870 387 861 q 356 896 360 878 q 361 946 352 915 q 395 1022 369 977 q 444 1034 423 1037 q 478 1017 464 1030 q 497 982 491 1003 q 503 937 503 960 m 166 178 q 175 154 166 165 q 198 136 185 143 q 227 125 212 129 q 255 122 243 122 q 359 148 309 122 q 452 216 408 174 q 533 311 496 258 q 599 417 569 364 l 668 417 q 627 248 668 327 q 525 113 587 170 q 391 24 463 56 q 255 -8 319 -8 q 196 4 233 -8 q 121 42 158 18 q 58 99 85 66 q 32 170 32 132 q 70 279 41 221 q 139 395 98 337 q 232 507 181 453 q 338 601 283 561 q 445 667 392 642 q 545 691 499 691 q 533 632 545 660 q 499 579 520 605 q 451 531 478 554 q 394 485 424 508 q 316 421 357 455 q 242 350 275 387 q 187 269 209 312 q 166 178 166 227 "},"ý":{"x_min":19,"x_max":677,"ha":753,"o":"m 449 -581 q 377 -578 416 -581 q 301 -568 337 -575 q 238 -547 265 -560 q 199 -511 210 -533 l 210 -522 q 213 -500 206 -517 q 233 -466 221 -483 q 259 -437 245 -449 q 284 -431 274 -426 l 283 -431 q 404 -463 351 -463 q 482 -435 452 -463 q 528 -364 512 -407 q 550 -271 545 -321 q 556 -174 556 -220 q 553 -96 556 -130 q 549 -47 550 -62 q 543 38 546 -11 q 537 145 540 89 q 530 262 534 201 q 522 379 526 322 q 513 486 518 436 q 504 573 508 536 q 454 428 481 502 q 398 284 427 353 q 337 155 369 215 q 275 53 306 95 q 213 -11 244 10 q 151 -27 181 -34 q 94 19 119 -14 q 52 103 69 53 q 27 215 35 152 q 19 346 19 277 q 34 601 19 466 q 76 862 50 737 q 150 860 115 873 q 195 797 184 848 q 152 597 164 698 q 140 406 140 496 q 143 293 140 345 q 152 202 146 241 q 166 140 158 163 q 183 116 173 117 q 208 157 191 121 q 247 247 225 193 q 293 369 268 302 q 344 505 318 436 q 412 685 379 599 q 472 829 444 772 q 510 864 485 859 q 560 867 535 870 l 587 867 q 600 759 592 826 q 615 608 607 691 q 630 435 622 525 q 645 262 638 345 q 657 111 652 179 q 665 3 663 42 q 670 -65 667 -27 q 674 -132 672 -96 q 677 -203 677 -168 q 668 -322 677 -263 q 636 -432 660 -381 q 569 -522 613 -483 q 455 -579 526 -562 l 449 -581 m 397 947 q 345 941 363 937 q 318 953 328 944 q 303 977 309 963 q 287 1001 298 990 l 399 1152 q 428 1151 416 1152 q 450 1145 440 1150 q 471 1129 460 1139 q 492 1099 481 1119 l 397 947 "},"ź":{"x_min":12.15625,"x_max":668.34375,"ha":686,"o":"m 267 -36 q 153 13 186 -31 q 121 123 121 58 q 131 212 121 165 q 158 305 142 259 q 194 394 175 351 q 232 472 214 436 q 119 442 175 457 q 13 415 63 427 q 21 495 8 465 q 57 542 34 525 q 113 567 81 559 q 180 582 145 575 q 248 597 213 587 q 306 620 283 606 q 381 773 344 696 q 310 759 344 771 q 245 729 276 746 q 161 693 206 710 q 51 679 116 677 q 53 730 38 705 q 103 779 69 755 q 185 823 137 803 q 284 858 233 843 q 385 881 335 873 q 473 890 435 890 q 526 861 511 876 q 541 823 541 846 q 532 788 541 807 q 508 744 523 770 q 482 697 496 724 q 451 630 468 670 q 506 649 479 640 q 559 666 534 659 q 577 620 583 648 q 544 564 571 592 q 470 512 517 535 q 367 480 424 489 q 328 403 350 449 q 287 308 306 358 q 255 211 268 259 q 243 129 243 164 q 249 96 243 108 q 272 85 256 84 q 390 105 331 77 q 504 175 450 133 q 600 266 557 218 q 667 346 643 314 q 654 245 671 294 q 604 154 636 196 q 529 75 572 111 q 441 14 487 39 q 350 -24 396 -10 q 267 -36 305 -37 m 388 944 q 336 938 354 934 q 309 950 319 941 q 294 974 300 960 q 278 998 289 987 l 390 1149 q 419 1148 407 1149 q 441 1142 431 1147 q 462 1126 451 1136 q 483 1096 472 1116 l 388 944 "},"ű":{"x_min":26,"x_max":543.15625,"ha":556,"o":"m 187 -30 q 131 -11 156 -36 q 89 62 107 14 q 58 176 70 111 q 39 312 46 241 q 29 457 32 383 q 26 595 26 530 q 26 664 26 632 q 29 722 27 697 q 35 746 29 731 q 57 775 42 762 q 97 795 72 789 q 161 789 123 801 q 155 753 158 779 q 150 689 153 727 q 146 604 147 651 q 145 509 145 558 q 147 379 145 446 q 153 255 149 311 q 167 159 158 199 q 188 112 176 120 q 240 155 214 121 q 293 235 267 188 q 341 341 318 283 q 380 462 363 400 q 407 587 397 524 q 418 703 418 649 q 394 830 418 771 q 409 843 399 835 q 430 860 419 851 q 453 873 442 868 q 468 879 464 879 q 512 855 496 879 q 534 800 528 831 q 542 739 541 769 q 543 697 543 709 q 533 596 544 661 q 501 454 522 531 q 449 295 480 377 q 378 145 418 214 q 289 27 338 75 q 186 -30 241 -20 l 187 -30 m 209 934 q 160 932 178 928 q 130 945 142 936 q 112 966 119 955 q 101 986 106 978 l 203 1131 q 255 1135 228 1141 q 307 1086 281 1130 l 209 934 m 406 920 q 367 913 386 911 q 333 923 348 915 q 307 941 318 930 q 291 959 296 951 l 398 1126 q 428 1126 414 1126 q 456 1122 443 1126 q 482 1107 470 1118 q 505 1077 494 1097 l 406 920 "},"Ǽ":{"x_min":29.15625,"x_max":1184.4375,"ha":1195,"o":"m 390 219 q 399 291 387 256 q 351 269 375 280 q 308 246 327 257 q 276 225 289 235 q 259 208 263 215 q 214 74 238 143 q 171 -59 191 5 q 140 -96 159 -91 q 101 -102 121 -102 q 51 -87 73 -102 q 29 -38 29 -73 q 35 -4 29 -24 q 52 39 42 16 q 75 88 63 63 q 101 138 88 113 q 127 191 115 167 q 141 223 139 214 q 151 256 144 233 q 166 314 158 280 q 187 389 175 348 q 210 474 198 431 q 238 572 224 523 q 263 663 251 622 q 284 735 276 705 q 295 775 292 764 q 299 792 297 783 q 303 813 300 801 q 319 888 309 847 q 345 964 328 930 q 385 1023 361 999 q 445 1047 410 1047 q 456 1034 448 1047 q 477 1001 465 1021 q 500 958 488 981 q 522 912 513 934 q 560 953 538 933 q 609 989 582 973 q 671 1013 637 1004 q 744 1018 704 1021 q 791 1004 769 1017 q 829 975 812 992 q 856 937 846 957 q 865 900 865 918 q 847 861 865 877 q 787 842 829 844 q 748 894 776 876 q 689 907 720 912 q 642 876 667 899 q 593 815 617 853 q 547 726 568 777 q 513 611 526 675 q 560 592 523 595 q 625 609 591 591 q 692 651 659 627 q 754 688 723 671 q 818 707 785 706 q 838 707 826 707 q 862 701 850 706 q 883 686 875 697 q 891 656 891 675 q 851 589 891 621 q 757 523 811 557 q 675 469 717 499 q 596 404 632 439 q 536 330 560 370 q 513 244 513 290 q 523 196 513 215 q 550 166 533 177 q 592 152 568 156 q 641 148 616 148 q 778 173 712 148 q 904 240 843 199 q 1018 333 964 282 q 1119 438 1071 385 l 1184 438 q 1155 346 1184 393 q 1079 252 1126 298 q 974 165 1032 206 q 857 93 915 124 q 747 44 799 62 q 662 26 696 26 q 571 34 618 26 q 483 65 523 43 q 416 125 442 88 q 390 219 390 162 m 508 485 q 465 500 487 490 q 427 527 444 511 q 400 565 410 543 q 393 615 390 587 q 409 691 397 650 q 440 772 421 732 q 433 814 434 802 q 431 829 431 825 q 430 834 431 834 q 425 840 429 834 q 368 611 395 721 q 313 385 342 501 q 383 398 345 391 q 460 416 422 405 l 508 485 m 605 1023 q 553 1017 571 1013 q 526 1029 536 1020 q 511 1053 517 1039 q 495 1077 506 1066 l 607 1228 q 636 1227 624 1228 q 658 1221 648 1226 q 679 1205 668 1215 q 700 1175 689 1195 l 605 1023 "},"ń":{"x_min":37.921875,"x_max":610.921875,"ha":642,"o":"m 159 654 q 199 739 176 699 q 248 810 221 780 q 307 858 275 841 q 376 875 339 876 q 468 841 433 875 q 525 762 504 808 q 557 665 547 715 q 572 583 567 616 l 572 585 q 577 511 575 563 q 581 392 578 459 q 583 284 582 339 q 588 182 585 229 q 597 99 591 134 q 610 50 602 64 q 591 24 612 38 q 545 1 571 10 q 495 -6 518 -7 q 468 14 472 -4 l 469 12 q 448 185 450 88 q 444 381 445 282 q 441 522 444 454 q 433 642 439 590 q 414 724 427 695 q 377 752 401 754 q 312 714 340 750 q 261 619 283 677 q 224 489 240 562 q 197 343 208 416 q 179 202 187 270 q 168 87 172 134 q 150 1 170 26 q 105 -23 130 -22 q 58 -8 79 -23 q 38 22 36 5 l 38 689 q 44 730 38 709 q 66 766 51 750 q 104 791 81 781 q 159 800 127 800 l 159 654 m 369 945 q 317 939 335 935 q 290 951 300 942 q 275 975 281 961 q 259 999 270 988 l 371 1150 q 400 1149 388 1150 q 422 1143 412 1148 q 443 1127 432 1137 q 464 1097 453 1117 l 369 945 "},"Ș":{"x_min":12,"x_max":670,"ha":685,"o":"m 375 -30 q 317 -23 349 -30 q 255 -6 285 -17 q 200 20 224 3 q 164 58 175 36 q 158 105 152 79 q 196 159 165 130 q 251 117 228 132 q 291 95 273 103 q 323 86 308 88 q 356 84 338 84 q 422 99 387 84 q 485 139 456 115 q 534 194 515 164 q 553 256 553 225 q 531 308 553 286 q 474 347 509 330 q 394 376 439 363 q 303 400 349 389 q 204 429 256 412 q 110 469 153 446 q 39 524 67 492 q 12 598 12 556 q 37 726 12 662 q 107 843 63 791 q 210 928 151 895 q 335 962 269 962 q 414 946 379 962 q 472 903 449 930 q 508 839 496 876 q 521 761 521 803 q 519 713 521 735 q 514 669 518 692 q 506 622 511 647 q 492 567 500 597 q 470 548 485 552 q 438 551 454 544 q 408 579 421 559 q 396 633 396 599 q 399 692 396 656 q 399 761 402 728 q 379 819 396 795 q 324 844 363 844 q 254 825 288 844 q 193 776 219 806 q 150 708 166 746 q 134 632 134 670 q 155 587 134 607 q 209 550 176 567 q 287 521 243 534 q 375 493 330 507 q 482 460 429 477 q 577 419 535 443 q 644 364 618 396 q 670 288 670 333 q 644 177 670 234 q 578 74 619 120 q 483 0 536 28 q 375 -30 430 -30 m 413 -168 q 349 -298 371 -249 q 317 -373 326 -347 q 308 -407 307 -400 q 316 -413 309 -415 q 308 -416 311 -416 q 301 -417 305 -416 q 258 -401 271 -427 q 245 -329 245 -375 q 252 -248 245 -293 q 274 -166 260 -204 q 308 -101 288 -127 q 352 -76 328 -76 q 423 -134 387 -76 l 413 -168 "},";":{"x_min":82.359375,"x_max":346,"ha":426,"o":"m 128 -173 l 128 -174 q 160 -121 144 -149 q 188 -65 175 -93 q 209 -10 201 -37 q 218 44 218 17 q 199 109 218 77 q 136 174 181 142 q 146 218 136 203 q 169 239 155 233 q 198 247 182 246 q 227 248 213 248 q 288 226 265 248 q 324 174 311 205 q 341 106 337 143 q 346 40 346 70 q 328 -32 339 9 q 295 -114 317 -73 q 238 -191 273 -155 q 147 -250 203 -228 l 136 -250 q 127 -250 135 -250 q 108 -249 118 -250 q 90 -248 98 -248 q 82 -248 82 -248 l 128 -173 m 272 515 q 286 484 282 508 q 286 435 290 461 q 265 389 282 409 q 218 369 249 369 q 191 372 207 369 q 157 386 176 375 q 149 450 142 419 q 176 501 157 481 q 222 527 195 522 q 272 515 249 533 "},"Ġ":{"x_min":35,"x_max":847.34375,"ha":864,"o":"m 35 284 q 46 384 35 319 q 79 524 58 448 q 130 678 100 600 q 197 820 159 756 q 281 924 235 884 q 376 965 326 965 l 374 965 q 406 966 389 966 q 441 957 424 965 q 472 931 458 949 q 494 882 486 914 q 486 853 494 866 q 463 832 477 840 q 433 821 450 824 q 399 820 416 817 q 392 831 397 825 q 382 839 387 838 q 336 827 361 848 q 284 762 310 805 q 234 659 258 718 q 191 533 210 599 q 160 400 172 467 q 149 273 149 333 q 156 195 149 231 q 180 135 163 159 q 222 98 196 111 q 287 92 249 86 q 360 102 319 92 q 442 133 401 113 q 523 180 483 153 q 594 239 563 207 q 643 306 624 271 q 662 378 662 341 q 658 414 662 392 q 646 458 654 437 q 626 494 638 479 q 599 509 615 509 q 504 489 547 511 q 426 437 460 466 q 372 381 392 408 q 348 348 352 354 q 325 349 340 348 q 295 355 310 350 q 270 370 281 359 q 260 400 260 381 q 280 457 260 428 q 331 511 300 485 q 401 557 363 536 q 477 596 440 579 q 546 621 515 612 q 596 630 578 630 q 673 613 642 630 q 723 567 703 596 q 756 503 744 539 q 779 429 768 467 q 793 370 783 412 q 814 279 803 328 q 835 183 825 230 q 847 107 844 135 q 835 79 841 94 q 819 52 828 63 q 798 35 810 40 q 768 39 786 31 q 736 71 748 51 q 716 113 723 90 q 704 160 708 135 q 695 206 699 184 q 614 118 658 161 q 518 42 569 75 q 411 -10 467 9 q 293 -30 354 -30 q 163 -7 213 -30 q 85 56 113 14 q 45 155 56 97 q 35 284 35 212 m 304 1044 q 300 1085 296 1062 q 315 1128 303 1108 q 346 1161 328 1147 q 385 1175 364 1175 q 441 1142 417 1175 l 440 1145 q 450 1108 452 1132 q 435 1060 447 1083 q 404 1018 423 1036 q 364 1001 385 1001 q 332 1011 348 1001 q 304 1045 315 1022 l 304 1044 "},"6":{"x_min":21.15625,"x_max":636.3125,"ha":665,"o":"m 203 -41 q 126 5 160 -35 q 68 99 92 45 q 33 209 45 152 q 22 303 22 265 q 25 403 19 336 q 45 554 31 471 q 82 724 59 637 q 135 879 104 810 q 207 988 166 947 q 294 1019 247 1029 q 275 933 287 970 q 248 858 263 896 q 214 767 232 817 q 181 660 196 717 q 157 542 166 604 q 148 417 148 481 q 155 316 148 368 q 177 209 162 264 q 241 324 202 262 q 327 439 280 386 q 425 529 374 493 q 525 565 476 565 q 576 555 552 565 q 624 520 601 544 q 636 443 636 473 q 613 326 636 384 q 552 214 590 268 q 468 114 515 161 q 373 32 422 67 q 280 -21 325 -1 q 203 -41 236 -41 m 514 451 q 461 419 489 442 q 406 365 434 396 q 355 301 379 335 q 313 237 330 268 q 287 181 295 206 q 283 143 279 155 q 313 135 290 126 q 365 172 336 145 q 426 239 394 200 q 481 318 458 278 q 515 394 504 358 q 514 451 526 430 "},"n":{"x_min":37.921875,"x_max":610.921875,"ha":642,"o":"m 159 654 q 199 739 176 699 q 248 810 221 780 q 307 858 275 841 q 376 875 339 876 q 468 841 433 875 q 525 762 504 808 q 557 665 547 715 q 572 583 567 616 l 572 585 q 577 511 575 563 q 581 392 578 459 q 583 284 582 339 q 588 182 585 229 q 597 99 591 134 q 610 50 602 64 q 591 24 612 38 q 545 1 571 10 q 495 -6 518 -7 q 468 14 472 -4 l 469 12 q 448 185 450 88 q 444 381 445 282 q 441 522 444 454 q 433 642 439 590 q 414 724 427 695 q 377 752 401 754 q 312 714 340 750 q 261 619 283 677 q 224 489 240 562 q 197 343 208 416 q 179 202 187 270 q 168 87 172 134 q 150 1 170 26 q 105 -23 130 -22 q 58 -8 79 -23 q 38 22 36 5 l 38 689 q 44 730 38 709 q 66 766 51 750 q 104 791 81 781 q 159 800 127 800 l 159 654 "},"ģ":{"x_min":49,"x_max":735,"ha":774,"o":"m 234 971 q 239 995 236 982 q 247 1025 241 1009 q 260 1079 253 1050 q 267 1139 267 1108 q 260 1197 267 1166 q 235 1265 253 1227 q 260 1319 235 1303 q 316 1335 286 1335 q 376 1251 358 1303 q 395 1141 395 1199 q 382 1029 395 1084 q 346 933 369 974 l 347 937 q 325 918 343 923 q 287 915 307 913 q 251 930 267 918 q 234 966 235 942 l 234 971 m 227 -544 q 203 -516 210 -532 q 196 -484 196 -500 q 204 -449 196 -465 q 226 -425 212 -434 q 256 -417 240 -416 q 288 -431 272 -417 q 340 -453 316 -447 q 387 -460 364 -460 q 489 -417 446 -460 q 561 -311 533 -374 q 601 -176 590 -248 q 609 -42 613 -103 l 566 481 q 443 224 503 323 q 331 67 383 124 q 235 -11 279 10 q 158 -33 191 -33 q 110 -22 131 -33 q 73 0 88 -12 q 54 63 59 29 q 49 137 49 98 q 62 283 49 203 q 100 444 76 363 q 159 602 124 525 q 236 738 194 679 q 326 834 278 798 q 427 870 374 870 q 477 862 453 870 q 527 836 502 855 q 552 864 537 856 q 586 871 567 871 q 624 860 605 871 q 658 825 643 848 l 734 -28 q 735 -48 735 -37 q 735 -70 735 -60 q 729 -161 735 -108 q 709 -271 724 -214 q 671 -382 695 -327 q 608 -480 646 -437 q 516 -550 569 -524 q 389 -577 462 -577 q 316 -570 355 -577 q 234 -548 278 -563 l 227 -544 m 492 675 q 471 724 492 702 q 422 749 449 747 q 364 711 393 744 q 307 627 335 678 q 254 513 278 576 q 210 385 229 450 q 180 260 191 321 q 170 151 170 199 q 171 113 170 128 q 178 88 172 98 q 233 122 201 89 q 300 207 266 155 q 370 322 335 258 q 431 451 404 386 q 475 575 458 516 q 492 675 492 634 "},"Ĝ":{"x_min":35,"x_max":847.34375,"ha":864,"o":"m 35 284 q 46 384 35 319 q 79 524 58 448 q 130 678 100 600 q 197 820 159 756 q 281 924 235 884 q 376 965 326 965 l 374 965 q 406 966 389 966 q 441 957 424 965 q 472 931 458 949 q 494 882 486 914 q 486 853 494 866 q 463 832 477 840 q 433 821 450 824 q 399 820 416 817 q 392 831 397 825 q 382 839 387 838 q 336 827 361 848 q 284 762 310 805 q 234 659 258 718 q 191 533 210 599 q 160 400 172 467 q 149 273 149 333 q 156 195 149 231 q 180 135 163 159 q 222 98 196 111 q 287 92 249 86 q 360 102 319 92 q 442 133 401 113 q 523 180 483 153 q 594 239 563 207 q 643 306 624 271 q 662 378 662 341 q 658 414 662 392 q 646 458 654 437 q 626 494 638 479 q 599 509 615 509 q 504 489 547 511 q 426 437 460 466 q 372 381 392 408 q 348 348 352 354 q 325 349 340 348 q 295 355 310 350 q 270 370 281 359 q 260 400 260 381 q 280 457 260 428 q 331 511 300 485 q 401 557 363 536 q 477 596 440 579 q 546 621 515 612 q 596 630 578 630 q 673 613 642 630 q 723 567 703 596 q 756 503 744 539 q 779 429 768 467 q 793 370 783 412 q 814 279 803 328 q 835 183 825 230 q 847 107 844 135 q 835 79 841 94 q 819 52 828 63 q 798 35 810 40 q 768 39 786 31 q 736 71 748 51 q 716 113 723 90 q 704 160 708 135 q 695 206 699 184 q 614 118 658 161 q 518 42 569 75 q 411 -10 467 9 q 293 -30 354 -30 q 163 -7 213 -30 q 85 56 113 14 q 45 155 56 97 q 35 284 35 212 m 321 1209 q 356 1241 337 1236 q 405 1247 374 1247 l 523 1088 q 521 1067 523 1081 q 509 1042 519 1054 q 476 1025 499 1029 q 415 1034 454 1021 l 377 1078 q 363 1056 369 1065 q 350 1034 358 1047 q 318 1011 336 1016 q 284 1010 301 1006 q 252 1027 267 1015 q 229 1055 237 1039 l 321 1209 "},"p":{"x_min":-37.859375,"x_max":563,"ha":582,"o":"m -37 90 q 21 81 -1 84 q 56 79 43 78 q 76 82 69 80 q 89 89 84 85 l 31 780 q 29 825 23 807 q 49 854 35 843 q 82 868 63 864 q 115 873 100 873 q 272 861 192 873 q 417 813 352 849 q 522 708 481 776 q 563 525 563 639 q 531 357 561 440 q 453 205 501 275 q 344 83 405 135 q 221 6 283 31 q 226 -273 223 -128 q 232 -553 229 -417 q 170 -536 193 -553 q 134 -498 147 -520 q 115 -452 120 -475 q 111 -412 111 -428 q 110 -399 111 -406 q 110 -384 110 -393 q 105 -294 108 -349 q 100 -182 103 -238 q 95 -80 97 -127 q 93 -14 93 -33 q 68 -15 78 -16 q 44 -5 58 -14 q 12 26 31 4 q -37 90 -6 48 m 215 136 q 307 201 265 161 q 379 294 348 242 q 428 405 409 346 q 452 524 447 464 q 426 629 450 584 q 361 705 401 675 q 268 751 321 736 q 158 766 215 766 l 215 136 "},"ň":{"x_min":37.921875,"x_max":610.921875,"ha":642,"o":"m 159 654 q 199 739 176 699 q 248 810 221 780 q 307 858 275 841 q 376 875 339 876 q 468 841 433 875 q 525 762 504 808 q 557 665 547 715 q 572 583 567 616 l 572 585 q 577 511 575 563 q 581 392 578 459 q 583 284 582 339 q 588 182 585 229 q 597 99 591 134 q 610 50 602 64 q 591 24 612 38 q 545 1 571 10 q 495 -6 518 -7 q 468 14 472 -4 l 469 12 q 448 185 450 88 q 444 381 445 282 q 441 522 444 454 q 433 642 439 590 q 414 724 427 695 q 377 752 401 754 q 312 714 340 750 q 261 619 283 677 q 224 489 240 562 q 197 343 208 416 q 179 202 187 270 q 168 87 172 134 q 150 1 170 26 q 105 -23 130 -22 q 58 -8 79 -23 q 38 22 36 5 l 38 689 q 44 730 38 709 q 66 766 51 750 q 104 791 81 781 q 159 800 127 800 l 159 654 m 399 950 q 365 921 384 927 q 317 915 347 915 l 174 1087 l 182 1103 q 192 1136 187 1121 q 207 1159 198 1152 q 233 1163 217 1167 q 274 1138 248 1159 l 342 1052 q 376 1094 359 1073 q 410 1136 392 1115 q 449 1169 433 1161 q 477 1169 465 1176 q 496 1142 488 1161 q 507 1095 503 1123 l 399 950 "},"ę":{"x_min":23,"x_max":544.609375,"ha":574,"o":"m 23 170 q 35 294 23 219 q 73 452 48 368 q 132 618 97 535 q 209 763 166 701 q 300 859 251 826 q 403 878 349 892 q 429 866 414 877 q 459 835 445 855 q 483 784 473 815 q 493 712 493 754 q 478 607 493 667 q 426 474 463 547 q 327 310 389 400 q 168 116 265 221 q 212 99 189 99 q 294 128 250 99 q 377 197 338 157 q 447 278 417 237 q 489 343 478 318 q 531 297 518 318 q 544 259 544 276 q 526 200 544 231 q 478 137 507 169 q 410 75 448 105 q 334 23 373 45 q 260 -11 296 1 q 199 -22 225 -23 q 133 -5 165 -22 q 77 39 101 11 q 37 100 52 66 q 23 170 23 134 m 368 717 q 359 748 368 743 q 311 716 335 746 q 263 642 286 687 q 219 543 240 598 q 182 436 198 489 q 155 335 165 382 q 144 259 145 288 q 212 339 173 282 q 285 466 251 397 q 344 604 320 535 q 368 717 368 672 m 363 748 l 358 748 l 363 748 m 355 750 q 356 748 355 748 l 355 750 m 443 -121 q 392 -153 423 -142 q 330 -164 361 -164 q 282 -157 306 -164 q 240 -135 258 -150 q 210 -96 222 -120 q 199 -40 199 -72 q 204 -7 199 -30 q 223 42 209 16 q 259 91 237 68 q 314 124 281 114 l 380 68 q 325 16 345 45 q 305 -32 305 -11 q 311 -53 305 -44 q 332 -62 317 -62 q 342 -61 338 -62 q 352 -61 347 -61 q 390 -62 370 -59 q 437 -79 410 -65 l 443 -121 "},"S":{"x_min":12,"x_max":670,"ha":692,"o":"m 375 -30 q 317 -23 349 -30 q 255 -6 285 -17 q 200 20 224 3 q 164 58 175 36 q 158 105 152 79 q 196 159 165 130 q 251 117 228 132 q 291 95 273 103 q 323 86 308 88 q 356 84 338 84 q 422 99 387 84 q 485 139 456 115 q 534 194 515 164 q 553 256 553 225 q 531 308 553 286 q 474 347 509 330 q 394 376 439 363 q 303 400 349 389 q 204 429 256 412 q 110 469 153 446 q 39 524 67 492 q 12 598 12 556 q 37 726 12 662 q 107 843 63 791 q 210 928 151 895 q 335 962 269 962 q 414 946 379 962 q 472 903 449 930 q 508 839 496 876 q 521 761 521 803 q 519 713 521 735 q 514 669 518 692 q 506 622 511 647 q 492 567 500 597 q 470 548 485 552 q 438 551 454 544 q 408 579 421 559 q 396 633 396 599 q 399 692 396 656 q 399 761 402 728 q 379 819 396 795 q 324 844 363 844 q 254 825 288 844 q 193 776 219 806 q 150 708 166 746 q 134 632 134 670 q 155 587 134 607 q 209 550 176 567 q 287 521 243 534 q 375 493 330 507 q 482 460 429 477 q 577 419 535 443 q 644 364 618 396 q 670 288 670 333 q 644 177 670 234 q 578 74 619 120 q 483 0 536 28 q 375 -30 430 -30 "},"/":{"x_min":-12.203125,"x_max":574.640625,"ha":586,"o":"m 78 -100 q 38 -96 54 -100 q 13 -84 23 -93 q -1 -61 4 -75 q -12 -24 -6 -47 l 482 1016 q 527 1026 508 1029 q 558 1009 546 1023 q 573 976 569 996 q 572 939 576 956 l 78 -100 "},"į":{"x_min":6.78125,"x_max":302.34375,"ha":249,"o":"m 135 861 q 182 645 165 760 q 209 417 200 530 q 222 205 219 305 q 229 37 226 105 q 198 -17 229 -9 q 120 -17 167 -25 q 109 115 114 43 q 100 249 104 187 q 78 528 90 385 q 43 816 66 671 l 135 861 m 174 987 q 155 955 174 973 q 109 930 137 937 q 54 934 82 923 q 6 991 25 945 q 43 1051 6 1024 q 88 1054 65 1058 q 130 1041 111 1051 q 162 1016 150 1030 q 174 987 174 1002 m 302 -173 q 251 -205 282 -194 q 189 -216 220 -216 q 141 -209 165 -216 q 99 -187 117 -202 q 69 -148 81 -172 q 58 -92 58 -124 q 63 -59 58 -82 q 82 -9 68 -35 q 118 39 96 16 q 173 72 140 62 l 239 16 q 184 -35 204 -6 q 164 -84 164 -63 q 170 -105 164 -96 q 191 -114 176 -114 q 201 -113 197 -114 q 211 -113 206 -113 q 249 -114 229 -111 q 296 -131 269 -117 l 302 -173 "},"Ŧ":{"x_min":7.125,"x_max":1027.15625,"ha":707,"o":"m 7 789 q 25 831 7 814 q 70 860 43 848 q 127 878 98 871 q 182 889 157 885 l 180 888 q 190 890 184 889 q 209 895 195 892 q 245 903 222 897 q 309 918 268 908 q 479 957 392 938 q 655 991 565 976 q 837 1015 745 1006 q 1027 1025 930 1025 l 1027 933 q 768 899 887 924 q 555 850 648 874 q 531 843 540 846 q 515 838 522 840 q 499 833 507 836 q 477 828 491 831 q 487 753 483 802 q 494 641 491 705 q 499 503 496 577 q 503 351 502 428 q 506 198 504 273 q 509 58 507 123 q 504 15 509 33 q 487 -13 499 -2 q 452 -28 475 -24 q 391 -26 428 -31 l 391 59 q 391 265 392 173 q 386 442 389 357 q 378 613 384 527 q 366 804 373 699 q 222 766 293 786 q 85 726 150 747 q 32 740 57 726 q 7 789 7 753 m 173 1064 q 176 1090 173 1074 q 184 1122 179 1106 q 195 1151 188 1138 q 209 1172 202 1165 l 689 1157 l 697 1043 l 173 1064 "},"y":{"x_min":19,"x_max":677,"ha":688,"o":"m 449 -581 q 377 -578 416 -581 q 301 -568 337 -575 q 238 -547 265 -560 q 199 -511 210 -533 l 210 -522 q 213 -500 206 -517 q 233 -466 221 -483 q 259 -437 245 -449 q 284 -431 274 -426 l 283 -431 q 404 -463 351 -463 q 482 -435 452 -463 q 528 -364 512 -407 q 550 -271 545 -321 q 556 -174 556 -220 q 553 -96 556 -130 q 549 -47 550 -62 q 543 38 546 -11 q 537 145 540 89 q 530 262 534 201 q 522 379 526 322 q 513 486 518 436 q 504 573 508 536 q 454 428 481 502 q 398 284 427 353 q 337 155 369 215 q 275 53 306 95 q 213 -11 244 10 q 151 -27 181 -34 q 94 19 119 -14 q 52 103 69 53 q 27 215 35 152 q 19 346 19 277 q 34 601 19 466 q 76 862 50 737 q 150 860 115 873 q 195 797 184 848 q 152 597 164 698 q 140 406 140 496 q 143 293 140 345 q 152 202 146 241 q 166 140 158 163 q 183 116 173 117 q 208 157 191 121 q 247 247 225 193 q 293 369 268 302 q 344 505 318 436 q 412 685 379 599 q 472 829 444 772 q 510 864 485 859 q 560 867 535 870 l 587 867 q 600 759 592 826 q 615 608 607 691 q 630 435 622 525 q 645 262 638 345 q 657 111 652 179 q 665 3 663 42 q 670 -65 667 -27 q 674 -132 672 -96 q 677 -203 677 -168 q 668 -322 677 -263 q 636 -432 660 -381 q 569 -522 613 -483 q 455 -579 526 -562 l 449 -581 "},"ǿ":{"x_min":-54.140625,"x_max":529.71875,"ha":507,"o":"m 16 248 q 56 551 28 428 q 122 747 83 674 q 207 850 161 820 q 303 875 253 880 q 392 845 355 872 q 454 771 430 818 q 490 665 478 725 q 502 538 502 605 q 479 344 502 443 q 415 162 457 245 q 312 26 373 80 q 177 -31 252 -26 q 83 -1 116 -31 q 36 69 51 27 q 18 159 21 111 q 16 247 16 207 l 16 248 m 297 765 q 231 718 261 767 q 178 592 200 668 q 142 425 155 515 q 130 257 130 335 q 140 141 130 188 q 174 92 151 94 q 262 147 223 101 q 328 260 301 193 q 369 403 355 326 q 384 552 384 480 q 378 632 384 594 q 362 699 373 671 q 336 746 352 728 q 298 765 320 763 l 297 765 m 36 -39 q -3 -36 11 -39 q -28 -27 -19 -34 q -43 -8 -37 -19 q -54 21 -48 3 l 438 860 q 482 869 464 871 q 513 855 501 866 q 528 828 524 844 q 527 798 531 812 l 36 -39 m 294 953 q 242 947 260 943 q 215 959 225 950 q 200 983 206 969 q 184 1007 195 996 l 296 1158 q 325 1157 313 1158 q 347 1151 337 1156 q 368 1135 357 1145 q 389 1105 378 1125 l 294 953 "},"g":{"x_min":19,"x_max":705,"ha":719,"o":"m 197 -540 q 173 -512 180 -528 q 166 -480 166 -496 q 174 -445 166 -461 q 196 -421 182 -430 q 226 -413 210 -412 q 258 -427 242 -413 q 310 -449 286 -443 q 357 -456 334 -456 q 459 -413 416 -456 q 531 -307 503 -370 q 571 -172 560 -244 q 579 -38 583 -99 l 536 485 q 413 228 473 327 q 301 71 353 128 q 205 -7 249 14 q 128 -29 161 -29 q 80 -18 101 -29 q 43 4 58 -8 q 24 68 29 33 q 19 142 19 102 q 32 287 19 207 q 70 448 46 367 q 129 606 94 530 q 206 743 164 683 q 296 839 248 803 q 397 875 344 875 q 447 867 423 875 q 497 841 472 860 q 522 868 507 861 q 556 876 537 876 q 594 864 575 876 q 628 829 613 852 l 704 -24 q 705 -44 705 -33 q 705 -66 705 -56 q 699 -157 705 -104 q 679 -267 694 -210 q 641 -378 665 -323 q 578 -476 616 -433 q 486 -546 539 -520 q 359 -573 432 -573 q 286 -566 325 -573 q 204 -544 248 -559 l 197 -540 m 462 679 q 440 728 462 706 q 392 753 419 751 q 334 715 363 748 q 276 631 305 682 q 223 517 248 580 q 180 389 199 454 q 150 264 161 325 q 140 155 140 203 q 141 117 140 132 q 148 92 142 102 q 203 126 171 93 q 270 211 236 159 q 339 326 305 262 q 401 455 374 390 q 445 579 428 520 q 462 679 462 638 "},"–":{"x_min":46.703125,"x_max":573.78125,"ha":613,"o":"m 546 348 q 509 345 534 348 q 453 340 484 343 q 341 328 402 333 q 222 322 279 322 q 140 328 177 322 q 79 350 103 334 q 48 391 55 366 q 56 455 42 416 l 573 476 l 573 375 l 546 348 "},"ë":{"x_min":23,"x_max":544.609375,"ha":574,"o":"m 23 170 q 35 294 23 219 q 73 452 48 368 q 132 618 97 535 q 209 763 166 701 q 300 859 251 826 q 403 878 349 892 q 429 866 414 877 q 459 835 445 855 q 483 784 473 815 q 493 712 493 754 q 478 607 493 667 q 426 474 463 547 q 327 310 389 400 q 168 116 265 221 q 212 99 189 99 q 294 128 250 99 q 377 197 338 157 q 447 278 417 237 q 489 343 478 318 q 531 297 518 318 q 544 259 544 276 q 526 200 544 231 q 478 137 507 169 q 410 75 448 105 q 334 23 373 45 q 260 -11 296 1 q 199 -22 225 -23 q 133 -5 165 -22 q 77 39 101 11 q 37 100 52 66 q 23 170 23 134 m 368 717 q 359 748 368 743 q 311 716 335 746 q 263 642 286 687 q 219 543 240 598 q 182 436 198 489 q 155 335 165 382 q 144 259 145 288 q 212 339 173 282 q 285 466 251 397 q 344 604 320 535 q 368 717 368 672 m 363 748 l 358 748 l 363 748 m 355 750 q 356 748 355 748 l 355 750 m 194 966 q 184 1006 182 983 q 195 1047 185 1029 q 222 1079 205 1066 q 258 1092 239 1092 q 289 1084 274 1092 q 316 1057 303 1076 l 314 1060 q 327 1020 327 1042 q 316 979 326 999 q 288 945 306 959 q 251 932 270 932 q 222 939 235 932 q 194 966 208 947 m 371 970 q 359 1008 359 986 q 370 1050 360 1030 q 397 1083 380 1069 q 433 1097 414 1097 q 490 1064 466 1097 l 489 1065 q 505 1026 504 1049 q 498 982 506 1003 q 473 948 490 962 q 434 934 456 934 q 372 969 402 934 l 371 970 "},"ƒ":{"x_min":19.828125,"x_max":700.6875,"ha":708,"o":"m 117 -346 q 178 -361 148 -361 q 232 -337 210 -361 q 265 -272 253 -313 q 283 -177 278 -232 q 289 -62 289 -123 q 285 40 289 -12 q 277 144 282 93 q 268 244 273 196 q 258 333 262 292 l 258 332 q 254 374 256 353 q 251 410 252 394 q 214 396 238 406 q 167 375 190 386 q 124 355 143 364 q 99 345 105 347 l 67 345 q 56 351 63 347 q 43 362 49 356 q 32 373 37 368 q 25 380 26 378 q 22 390 23 385 q 19 405 19 401 q 36 446 19 428 q 80 479 53 465 q 138 506 106 494 q 198 528 170 517 q 227 537 219 535 q 245 545 235 539 q 245 602 245 569 q 244 672 245 634 l 244 671 q 241 739 242 705 q 241 800 241 772 q 241 823 241 812 q 242 843 241 835 q 257 927 246 886 q 290 1000 269 968 q 347 1051 312 1032 q 432 1070 381 1070 q 482 1057 460 1070 q 520 1026 505 1045 q 543 983 535 1007 q 551 932 551 958 q 539 897 551 905 q 510 881 527 888 q 504 877 508 880 q 493 868 499 874 q 477 850 487 862 q 453 821 467 839 q 432 909 441 882 q 415 935 422 935 q 382 907 398 935 q 364 843 366 878 q 375 713 371 774 q 386 584 379 653 q 447 612 407 592 q 527 652 487 631 q 594 686 563 671 q 641 703 626 700 q 653 694 645 703 q 672 669 662 684 q 689 636 681 654 q 700 600 697 618 l 384 441 q 379 384 379 421 q 383 293 379 345 q 395 182 388 241 q 410 28 403 109 q 417 -129 417 -51 q 406 -272 417 -205 q 371 -390 396 -339 q 301 -471 346 -441 q 187 -501 256 -501 q 80 -484 145 -501 q 43 -442 54 -465 q 33 -397 33 -419 q 56 -340 33 -359 q 121 -347 80 -321 l 117 -346 "},"J":{"x_min":11,"x_max":783.03125,"ha":819,"o":"m 11 256 q 12 293 11 273 q 23 331 13 313 q 55 365 32 349 q 118 390 77 380 q 110 295 110 325 q 174 138 110 185 q 362 92 238 92 q 491 117 435 92 q 585 188 548 143 q 642 293 622 233 q 662 422 662 353 q 649 685 674 550 q 583 950 624 820 q 655 954 625 968 q 706 903 685 939 q 740 815 727 867 q 761 706 752 763 q 773 592 769 649 q 780 489 777 535 q 768 306 789 398 q 697 140 747 214 q 566 19 647 66 q 375 -27 485 -27 q 250 -11 314 -27 q 133 37 185 4 q 45 121 80 70 q 11 243 11 172 l 11 256 "},"Ã":{"x_min":5.421875,"x_max":788.09375,"ha":819,"o":"m 187 429 q 214 527 200 478 q 240 618 227 577 q 260 690 252 660 q 271 730 268 719 q 275 747 274 738 q 279 768 276 756 q 295 843 286 802 q 321 919 305 885 q 362 978 337 954 q 421 1002 386 1002 q 452 991 438 1002 q 477 966 466 981 q 495 936 488 951 q 504 911 501 920 l 503 912 q 556 699 535 782 q 588 567 576 616 q 604 498 599 519 q 610 470 609 477 q 661 489 634 482 q 733 491 687 496 q 729 450 733 467 q 718 421 725 433 q 703 401 712 409 q 686 384 694 392 q 666 365 675 375 q 657 341 657 354 q 677 254 657 297 q 720 171 697 211 q 767 78 747 127 q 788 -30 788 30 q 713 -47 743 -53 q 662 -17 683 -42 q 627 46 641 7 q 600 127 613 84 q 564 226 585 175 q 516 303 542 277 q 483 292 507 300 q 429 272 459 284 q 367 247 400 261 q 307 217 335 232 q 259 188 279 202 q 236 162 240 174 l 236 163 q 191 29 214 97 q 147 -104 169 -38 q 116 -141 135 -136 q 77 -147 97 -147 q 27 -132 50 -147 q 5 -83 5 -118 l 187 429 m 290 340 q 341 351 311 344 q 400 369 370 358 q 459 394 431 380 q 510 426 488 407 q 489 517 501 460 q 461 633 476 574 q 431 740 446 691 q 404 806 416 789 l 290 340 m 171 1024 q 178 1067 171 1037 q 199 1125 184 1096 q 240 1177 215 1155 q 303 1199 265 1199 q 381 1180 348 1199 q 445 1138 414 1162 q 499 1103 471 1119 q 562 1087 527 1087 q 610 1098 588 1085 q 651 1128 633 1110 q 682 1167 669 1147 q 703 1202 695 1188 q 721 1198 710 1205 q 745 1179 733 1190 q 764 1154 756 1167 q 772 1129 772 1140 l 776 1139 q 755 1085 776 1112 q 703 1036 734 1059 q 635 1000 672 1014 q 568 987 599 987 q 432 1020 492 988 q 311 1098 372 1053 q 289 1069 295 1092 q 279 1022 283 1045 q 272 992 276 1007 q 260 956 269 978 q 223 964 239 956 q 195 983 207 972 q 178 1005 184 994 q 171 1024 171 1017 "},"ŷ":{"x_min":19,"x_max":677,"ha":686,"o":"m 449 -581 q 377 -578 416 -581 q 301 -568 337 -575 q 238 -547 265 -560 q 199 -511 210 -533 l 210 -522 q 213 -500 206 -517 q 233 -466 221 -483 q 259 -437 245 -449 q 284 -431 274 -426 l 283 -431 q 404 -463 351 -463 q 482 -435 452 -463 q 528 -364 512 -407 q 550 -271 545 -321 q 556 -174 556 -220 q 553 -96 556 -130 q 549 -47 550 -62 q 543 38 546 -11 q 537 145 540 89 q 530 262 534 201 q 522 379 526 322 q 513 486 518 436 q 504 573 508 536 q 454 428 481 502 q 398 284 427 353 q 337 155 369 215 q 275 53 306 95 q 213 -11 244 10 q 151 -27 181 -34 q 94 19 119 -14 q 52 103 69 53 q 27 215 35 152 q 19 346 19 277 q 34 601 19 466 q 76 862 50 737 q 150 860 115 873 q 195 797 184 848 q 152 597 164 698 q 140 406 140 496 q 143 293 140 345 q 152 202 146 241 q 166 140 158 163 q 183 116 173 117 q 208 157 191 121 q 247 247 225 193 q 293 369 268 302 q 344 505 318 436 q 412 685 379 599 q 472 829 444 772 q 510 864 485 859 q 560 867 535 870 l 587 867 q 600 759 592 826 q 615 608 607 691 q 630 435 622 525 q 645 262 638 345 q 657 111 652 179 q 665 3 663 42 q 670 -65 667 -27 q 674 -132 672 -96 q 677 -203 677 -168 q 668 -322 677 -263 q 636 -432 660 -381 q 569 -522 613 -483 q 455 -579 526 -562 l 449 -581 m 298 1183 q 333 1215 314 1210 q 382 1221 351 1221 l 500 1062 q 498 1041 500 1055 q 486 1016 496 1028 q 453 999 476 1003 q 392 1008 431 995 l 354 1052 q 340 1030 346 1039 q 327 1008 335 1021 q 295 985 313 990 q 261 984 278 980 q 229 1001 244 989 q 206 1029 214 1013 l 298 1183 "},"ŕ":{"x_min":22.65625,"x_max":535.53125,"ha":574,"o":"m 77 25 q 70 142 74 91 q 64 247 67 194 q 55 361 60 299 q 43 506 49 422 q 34 623 38 559 q 22 766 29 687 l 22 774 q 22 801 22 785 q 26 831 22 816 q 41 856 30 845 q 72 872 52 868 q 113 858 98 868 q 134 833 128 849 q 142 794 140 816 q 143 742 143 772 q 143 674 143 713 q 150 587 143 635 q 212 704 176 648 q 294 801 247 759 q 401 865 341 842 q 535 882 460 887 l 535 786 q 412 746 465 780 q 323 657 360 712 q 261 528 285 601 q 222 374 237 456 q 201 203 208 291 q 191 31 193 115 q 175 -11 189 4 q 142 -27 161 -27 q 82 12 109 -27 l 77 25 m 295 911 q 243 905 261 901 q 216 917 226 908 q 201 941 207 927 q 185 965 196 954 l 297 1116 q 326 1115 314 1116 q 348 1109 338 1114 q 369 1093 358 1103 q 390 1063 379 1083 l 295 911 "},"˘":{"x_min":4.0625,"x_max":371.609375,"ha":383,"o":"m 81 1025 q 137 966 109 981 q 187 955 164 951 q 231 974 211 958 q 267 1008 252 991 q 290 1040 282 1026 q 301 1055 299 1055 q 326 1053 310 1055 q 355 1044 343 1052 q 370 1019 367 1036 q 359 970 374 1002 q 316 909 347 932 q 248 873 286 885 q 168 863 210 862 q 92 876 127 865 q 32 909 56 888 q 4 958 8 930 l 81 1025 "},"Ă":{"x_min":5.421875,"x_max":788.09375,"ha":819,"o":"m 187 429 q 214 527 200 478 q 240 618 227 577 q 260 690 252 660 q 271 730 268 719 q 275 747 274 738 q 279 768 276 756 q 295 843 286 802 q 321 919 305 885 q 362 978 337 954 q 421 1002 386 1002 q 452 991 438 1002 q 477 966 466 981 q 495 936 488 951 q 504 911 501 920 l 503 912 q 556 699 535 782 q 588 567 576 616 q 604 498 599 519 q 610 470 609 477 q 661 489 634 482 q 733 491 687 496 q 729 450 733 467 q 718 421 725 433 q 703 401 712 409 q 686 384 694 392 q 666 365 675 375 q 657 341 657 354 q 677 254 657 297 q 720 171 697 211 q 767 78 747 127 q 788 -30 788 30 q 713 -47 743 -53 q 662 -17 683 -42 q 627 46 641 7 q 600 127 613 84 q 564 226 585 175 q 516 303 542 277 q 483 292 507 300 q 429 272 459 284 q 367 247 400 261 q 307 217 335 232 q 259 188 279 202 q 236 162 240 174 l 236 163 q 191 29 214 97 q 147 -104 169 -38 q 116 -141 135 -136 q 77 -147 97 -147 q 27 -132 50 -147 q 5 -83 5 -118 l 187 429 m 290 340 q 341 351 311 344 q 400 369 370 358 q 459 394 431 380 q 510 426 488 407 q 489 517 501 460 q 461 633 476 574 q 431 740 446 691 q 404 806 416 789 l 290 340 m 343 1185 q 399 1126 371 1141 q 449 1115 426 1111 q 493 1134 473 1118 q 529 1168 514 1151 q 552 1200 544 1186 q 563 1215 561 1215 q 588 1213 572 1215 q 617 1204 605 1212 q 632 1179 629 1196 q 621 1130 636 1162 q 578 1069 609 1092 q 510 1033 548 1045 q 430 1023 472 1022 q 354 1036 389 1025 q 294 1069 318 1048 q 266 1118 270 1090 l 343 1185 "},"D":{"x_min":23.015625,"x_max":810,"ha":825,"o":"m 128 793 q 96 781 113 786 q 68 775 79 775 q 25 795 35 775 q 45 862 15 815 q 144 924 90 904 q 256 950 198 944 q 376 952 315 956 q 494 944 437 948 q 620 893 564 926 q 717 817 677 861 q 782 721 758 774 q 810 610 805 668 q 783 468 810 542 q 710 323 757 394 q 601 187 663 252 q 468 75 540 123 q 322 -1 397 26 q 174 -30 247 -30 q 167 204 174 90 q 151 429 160 318 q 137 615 144 524 q 128 793 130 705 m 350 860 q 246 845 297 860 q 256 503 251 638 q 267 282 262 368 q 275 150 271 196 q 282 78 279 104 q 284 77 282 78 q 380 118 330 86 q 477 196 430 150 q 566 297 524 242 q 639 408 608 352 q 688 516 670 463 q 706 611 706 569 q 674 717 706 671 q 590 795 642 763 q 475 843 539 827 q 350 860 411 860 m 283 75 q 282 77 283 77 q 282 78 282 77 q 283 74 282 80 q 283 75 284 69 "},"ÿ":{"x_min":19,"x_max":677,"ha":753,"o":"m 449 -581 q 377 -578 416 -581 q 301 -568 337 -575 q 238 -547 265 -560 q 199 -511 210 -533 l 210 -522 q 213 -500 206 -517 q 233 -466 221 -483 q 259 -437 245 -449 q 284 -431 274 -426 l 283 -431 q 404 -463 351 -463 q 482 -435 452 -463 q 528 -364 512 -407 q 550 -271 545 -321 q 556 -174 556 -220 q 553 -96 556 -130 q 549 -47 550 -62 q 543 38 546 -11 q 537 145 540 89 q 530 262 534 201 q 522 379 526 322 q 513 486 518 436 q 504 573 508 536 q 454 428 481 502 q 398 284 427 353 q 337 155 369 215 q 275 53 306 95 q 213 -11 244 10 q 151 -27 181 -34 q 94 19 119 -14 q 52 103 69 53 q 27 215 35 152 q 19 346 19 277 q 34 601 19 466 q 76 862 50 737 q 150 860 115 873 q 195 797 184 848 q 152 597 164 698 q 140 406 140 496 q 143 293 140 345 q 152 202 146 241 q 166 140 158 163 q 183 116 173 117 q 208 157 191 121 q 247 247 225 193 q 293 369 268 302 q 344 505 318 436 q 412 685 379 599 q 472 829 444 772 q 510 864 485 859 q 560 867 535 870 l 587 867 q 600 759 592 826 q 615 608 607 691 q 630 435 622 525 q 645 262 638 345 q 657 111 652 179 q 665 3 663 42 q 670 -65 667 -27 q 674 -132 672 -96 q 677 -203 677 -168 q 668 -322 677 -263 q 636 -432 660 -381 q 569 -522 613 -483 q 455 -579 526 -562 l 449 -581 m 205 953 q 195 993 193 970 q 206 1034 196 1016 q 233 1066 216 1053 q 269 1079 250 1079 q 300 1071 285 1079 q 327 1044 314 1063 l 325 1047 q 338 1007 338 1029 q 327 966 337 986 q 299 932 317 946 q 262 919 281 919 q 233 926 246 919 q 205 953 219 934 m 382 957 q 370 995 370 973 q 381 1037 371 1017 q 408 1070 391 1056 q 444 1084 425 1084 q 501 1051 477 1084 l 500 1052 q 516 1013 515 1036 q 509 969 517 990 q 484 935 501 949 q 445 921 467 921 q 383 956 413 921 l 382 957 "},"ĺ":{"x_min":20.34375,"x_max":228.171875,"ha":241,"o":"m 131 961 q 153 627 145 766 q 166 395 161 489 q 174 243 172 300 q 179 153 177 185 q 181 115 180 128 q 182 95 181 102 q 183 83 183 87 q 187 71 184 78 q 193 48 189 60 q 177 -2 199 21 q 126 -26 155 -26 q 63 11 92 -26 l 20 966 q 39 1019 23 999 q 74 1040 55 1040 q 108 1022 92 1040 q 131 965 124 1004 l 131 961 m 133 1150 q 81 1144 99 1140 q 54 1156 64 1147 q 39 1180 45 1166 q 23 1204 34 1193 l 135 1355 q 164 1354 152 1355 q 186 1348 176 1353 q 207 1332 196 1342 q 228 1302 217 1322 l 133 1150 "},"ł":{"x_min":-46.921875,"x_max":247.265625,"ha":241,"o":"m 131 961 q 153 627 145 766 q 166 395 161 489 q 174 243 172 300 q 179 153 177 185 q 181 115 180 128 q 182 95 181 102 q 183 83 183 87 q 187 71 184 78 q 193 48 189 60 q 177 -2 199 21 q 126 -26 155 -26 q 63 11 92 -26 l 20 966 q 39 1019 23 999 q 74 1040 55 1040 q 108 1022 92 1040 q 131 965 124 1004 l 131 961 m 232 454 q 211 451 225 454 q 179 446 197 449 q 117 434 151 439 q 51 428 82 428 q 5 434 26 428 q -28 456 -15 440 q -45 497 -41 472 q -41 561 -49 522 l 247 582 l 247 481 l 232 454 "},"Ł":{"x_min":-103.28125,"x_max":744.5625,"ha":753,"o":"m 60 40 q 42 173 49 97 q 32 339 36 249 q -9 321 8 328 q -44 314 -28 314 q -90 336 -75 314 q -102 405 -105 358 l 26 499 q 23 628 23 562 q 22 751 23 693 q 21 809 22 777 q 20 872 20 841 q 18 931 19 903 q 18 978 18 959 q 90 970 65 978 q 127 949 116 963 q 140 916 139 935 q 138 872 140 896 q 135 844 136 859 q 133 817 133 828 q 136 733 135 786 q 145 584 138 679 q 236 650 189 617 q 323 713 283 683 l 395 607 q 356 576 383 598 q 307 537 329 554 l 307 538 q 235 479 272 510 q 157 417 199 448 q 160 360 159 390 q 164 303 161 329 q 172 176 169 226 q 177 99 176 126 q 234 109 196 99 q 319 133 272 119 q 416 164 366 147 q 515 196 467 181 q 617 229 575 215 q 674 244 660 242 q 711 233 702 244 q 726 206 720 222 q 734 188 729 198 q 744 168 739 179 q 681 141 729 160 q 568 99 633 122 q 431 53 504 77 q 295 11 359 29 q 184 -18 231 -6 q 124 -27 137 -29 q 109 -17 119 -25 q 89 0 99 -9 q 71 21 79 10 q 61 37 62 31 l 60 40 "},"$":{"x_min":4.390625,"x_max":657.390625,"ha":668,"o":"m 379 -170 q 340 -156 358 -170 q 318 -119 322 -142 l 318 10 q 254 18 285 10 q 199 48 224 26 q 159 104 175 69 q 138 194 143 139 l 138 192 q 144 251 133 228 q 172 283 155 274 q 207 288 189 293 q 233 263 225 283 q 235 251 235 257 q 236 238 235 245 q 240 202 237 221 q 250 169 243 184 q 269 145 256 154 q 301 135 281 135 q 311 135 305 135 q 323 137 318 135 q 320 252 321 199 q 318 370 319 305 q 307 371 313 370 q 297 372 301 372 q 199 380 248 374 q 108 399 149 385 q 39 437 67 412 q 6 504 11 461 l 7 500 q 25 596 -3 545 q 100 691 53 647 q 204 765 148 735 q 305 799 261 795 q 303 830 304 812 q 300 867 301 848 q 296 905 299 886 q 293 939 294 924 q 333 977 315 966 q 367 988 351 988 q 411 964 394 988 q 430 921 428 941 q 434 882 433 905 q 435 838 435 860 q 433 813 435 821 q 435 792 432 806 q 445 788 441 789 q 456 784 449 787 q 512 758 485 772 q 561 721 539 745 q 596 662 583 698 q 608 572 609 626 q 597 532 608 538 q 564 522 587 526 q 542 515 557 521 q 488 495 526 510 q 486 597 499 556 q 447 663 473 639 q 453 579 449 622 q 460 490 457 536 q 572 465 532 484 q 632 422 613 446 q 654 376 651 399 q 657 340 658 354 q 639 257 657 295 q 595 186 621 219 q 535 125 568 153 q 473 73 503 97 q 456 58 462 63 q 442 45 451 54 q 444 -24 443 10 q 447 -95 445 -60 q 422 -153 442 -136 q 379 -170 402 -170 m 460 195 q 493 228 476 209 q 524 270 511 248 q 544 316 537 293 q 546 358 550 339 q 537 367 546 363 q 514 373 527 371 q 486 376 502 376 q 457 376 470 376 l 460 195 m 120 522 q 136 503 120 510 q 177 491 152 495 q 231 486 202 487 q 283 485 259 485 l 315 485 q 309 581 312 537 q 304 683 306 626 q 239 659 271 676 q 180 621 206 643 q 136 573 153 598 q 120 522 120 547 "},"w":{"x_min":1.359375,"x_max":1104.140625,"ha":1028,"o":"m 2 838 q 55 885 20 885 q 86 874 70 885 q 113 848 103 863 l 207 254 q 215 291 211 272 q 225 330 219 310 q 259 473 240 398 q 309 610 279 549 q 383 710 340 672 q 489 743 427 748 l 486 743 q 553 716 523 743 q 607 644 583 688 q 650 542 630 599 q 687 427 670 485 q 722 318 705 371 q 760 225 740 265 q 776 351 766 277 q 802 503 786 424 q 838 662 817 583 q 885 806 858 741 q 988 939 934 908 q 1104 920 1041 969 q 1018 804 1052 877 q 959 646 983 732 q 921 469 935 560 q 897 296 907 378 q 883 189 891 241 q 865 92 876 138 q 838 9 854 45 q 800 -52 823 -27 q 725 48 759 -8 q 663 166 691 104 q 613 291 636 227 q 571 413 591 355 q 543 493 556 455 q 520 559 531 531 q 501 603 510 587 q 488 619 493 619 q 447 600 465 621 q 415 543 430 579 q 389 462 401 508 q 368 370 378 416 q 347 269 359 321 q 318 165 335 216 q 278 64 301 113 q 222 -30 255 14 q 185 5 204 -30 q 148 98 166 40 q 111 230 130 155 q 77 383 93 305 q 46 539 61 462 q 22 677 32 615 q 6 780 12 739 q 1 829 1 821 l 2 838 "},"\\":{"x_min":12.203125,"x_max":597.359375,"ha":597,"o":"m 104 1005 q 142 919 116 976 q 201 790 168 862 q 271 638 234 717 q 343 488 309 560 q 404 360 377 417 q 444 278 431 303 q 505 168 477 213 q 552 95 533 124 q 579 50 568 70 q 595 13 591 31 q 594 -22 599 -3 q 575 -65 590 -40 q 519 -24 554 -65 q 440 81 484 15 q 349 234 397 147 q 252 413 301 320 q 161 600 204 507 q 84 774 118 694 q 31 915 51 854 q 12 1005 12 976 l 104 1005 "},"Ì":{"x_min":-46.5,"x_max":178.828125,"ha":218,"o":"m 40 71 q 31 176 35 109 q 25 326 27 243 q 22 501 23 409 q 23 681 21 593 q 27 844 24 768 q 34 971 29 920 l 123 962 q 125 897 124 937 q 128 812 127 858 q 130 717 130 767 q 130 618 130 667 q 135 416 130 508 q 147 254 140 325 q 161 133 154 182 q 173 59 169 83 q 178 27 176 43 q 176 0 180 12 q 159 -21 172 -13 q 120 -30 147 -30 q 86 -18 100 -30 q 63 8 73 -6 q 48 41 54 24 q 40 71 43 59 m -46 1197 q -26 1227 -35 1216 q -5 1242 -16 1238 q 17 1248 5 1247 q 45 1249 29 1249 l 158 1098 q 152 1069 158 1086 q 133 1039 146 1052 q 102 1021 120 1026 q 60 1027 83 1015 l -46 1197 "},"Ç":{"x_min":35,"x_max":741.984375,"ha":753,"o":"m 35 286 q 41 404 35 335 q 64 548 48 473 q 106 697 79 622 q 170 830 132 772 q 260 925 208 888 q 380 962 313 962 q 471 930 440 962 q 515 854 502 899 q 530 755 528 808 q 531 657 531 701 q 471 667 493 657 q 438 693 450 677 q 422 730 426 709 q 416 774 418 751 q 412 806 414 791 q 403 834 409 822 q 385 854 397 846 q 356 863 374 863 q 289 829 319 863 q 238 744 260 796 q 201 628 216 691 q 175 502 185 564 q 161 388 166 440 q 157 309 157 336 q 156 290 156 299 q 156 272 156 281 q 160 204 156 239 q 177 140 165 169 q 210 93 189 110 q 264 81 231 76 q 410 118 343 81 q 529 212 477 155 q 615 338 580 269 q 667 471 651 407 l 741 471 q 720 351 741 411 q 661 235 698 291 q 577 131 625 180 q 474 47 529 83 q 361 -9 419 11 q 249 -30 303 -30 q 138 0 180 -30 q 73 75 96 29 q 42 178 49 121 q 35 286 35 234 m 172 -265 q 179 -237 167 -250 q 209 -216 191 -224 q 244 -208 226 -208 q 267 -219 262 -208 q 300 -261 277 -246 q 346 -276 323 -276 q 368 -269 358 -276 q 381 -251 378 -262 q 358 -205 378 -224 q 312 -170 338 -185 q 275 -146 293 -158 q 242 -117 256 -134 q 218 -80 228 -101 q 209 -31 209 -59 q 214 41 198 20 q 252 62 229 62 q 275 55 263 62 q 296 35 287 48 q 311 5 305 22 q 313 -32 316 -12 q 333 -51 320 -42 q 362 -72 346 -61 l 361 -72 q 403 -103 381 -86 q 443 -141 424 -120 q 473 -187 461 -161 q 484 -245 484 -212 q 445 -354 481 -319 q 358 -389 410 -389 q 260 -357 311 -389 q 175 -269 209 -326 l 172 -265 "},"Ŝ":{"x_min":12,"x_max":670,"ha":685,"o":"m 375 -30 q 317 -23 349 -30 q 255 -6 285 -17 q 200 20 224 3 q 164 58 175 36 q 158 105 152 79 q 196 159 165 130 q 251 117 228 132 q 291 95 273 103 q 323 86 308 88 q 356 84 338 84 q 422 99 387 84 q 485 139 456 115 q 534 194 515 164 q 553 256 553 225 q 531 308 553 286 q 474 347 509 330 q 394 376 439 363 q 303 400 349 389 q 204 429 256 412 q 110 469 153 446 q 39 524 67 492 q 12 598 12 556 q 37 726 12 662 q 107 843 63 791 q 210 928 151 895 q 335 962 269 962 q 414 946 379 962 q 472 903 449 930 q 508 839 496 876 q 521 761 521 803 q 519 713 521 735 q 514 669 518 692 q 506 622 511 647 q 492 567 500 597 q 470 548 485 552 q 438 551 454 544 q 408 579 421 559 q 396 633 396 599 q 399 692 396 656 q 399 761 402 728 q 379 819 396 795 q 324 844 363 844 q 254 825 288 844 q 193 776 219 806 q 150 708 166 746 q 134 632 134 670 q 155 587 134 607 q 209 550 176 567 q 287 521 243 534 q 375 493 330 507 q 482 460 429 477 q 577 419 535 443 q 644 364 618 396 q 670 288 670 333 q 644 177 670 234 q 578 74 619 120 q 483 0 536 28 q 375 -30 430 -30 m 254 1251 q 289 1283 270 1278 q 338 1289 307 1289 l 456 1130 q 454 1109 456 1123 q 442 1084 452 1096 q 409 1067 432 1071 q 348 1076 387 1063 l 310 1120 q 296 1098 302 1107 q 283 1076 291 1089 q 251 1053 269 1058 q 217 1052 234 1048 q 185 1069 200 1057 q 162 1097 170 1081 l 254 1251 "},"C":{"x_min":35,"x_max":741.984375,"ha":753,"o":"m 35 286 q 41 404 35 335 q 64 548 48 473 q 106 697 79 622 q 170 830 132 772 q 260 925 208 888 q 380 962 313 962 q 471 930 440 962 q 515 854 502 899 q 530 755 528 808 q 531 657 531 701 q 471 667 493 657 q 438 693 450 677 q 422 730 426 709 q 416 774 418 751 q 412 806 414 791 q 403 834 409 822 q 385 854 397 846 q 356 863 374 863 q 289 829 319 863 q 238 744 260 796 q 201 628 216 691 q 175 502 185 564 q 161 388 166 440 q 157 309 157 336 q 156 290 156 299 q 156 272 156 281 q 160 204 156 239 q 177 140 165 169 q 210 93 189 110 q 264 81 231 76 q 410 118 343 81 q 529 212 477 155 q 615 338 580 269 q 667 471 651 407 l 741 471 q 720 351 741 411 q 661 235 698 291 q 577 131 625 180 q 474 47 529 83 q 361 -9 419 11 q 249 -30 303 -30 q 138 0 180 -30 q 73 75 96 29 q 42 178 49 121 q 35 286 35 234 "},"Ē":{"x_min":34.84375,"x_max":829.4375,"ha":841,"o":"m 307 -30 q 216 -21 263 -30 q 128 10 168 -12 q 61 69 87 32 q 35 162 35 105 q 43 229 33 196 q 69 291 54 261 q 104 349 85 321 q 141 400 123 376 q 153 416 147 408 q 164 431 158 424 q 121 440 145 433 q 78 461 97 447 q 45 499 58 476 q 38 558 33 523 q 75 692 46 621 q 149 823 103 763 q 255 922 194 882 q 388 963 316 963 q 435 949 412 961 q 474 919 457 937 q 500 882 491 901 q 510 844 510 862 q 492 805 510 821 q 431 786 473 789 q 393 838 420 820 q 334 851 365 857 q 273 815 305 844 q 214 747 241 786 q 169 664 187 707 q 151 587 151 621 q 163 551 151 565 q 204 537 175 538 q 270 553 236 535 q 337 595 304 572 q 399 633 368 615 q 463 652 430 650 q 483 651 471 652 q 507 646 495 650 q 528 630 520 641 q 536 600 536 619 q 496 533 536 565 q 402 467 456 501 q 320 413 362 443 q 241 349 277 383 q 181 274 205 314 q 158 188 158 234 q 168 140 158 159 q 195 110 178 121 q 237 96 213 100 q 286 92 261 92 q 423 117 357 92 q 549 184 488 143 q 663 277 609 226 q 764 382 716 329 l 829 382 q 800 290 829 337 q 724 196 771 242 q 619 109 677 150 q 502 37 560 68 q 392 -11 444 6 q 307 -30 341 -30 m 53 1008 q 56 1034 53 1018 q 64 1066 59 1050 q 75 1095 68 1082 q 89 1116 82 1109 l 569 1101 l 577 987 l 53 1008 "},"!":{"x_min":23.765625,"x_max":169.5625,"ha":201,"o":"m 168 217 q 129 174 154 179 q 77 173 104 170 l 47 173 l 58 984 q 75 1012 59 1001 q 110 1026 90 1024 q 147 1019 130 1028 q 169 986 165 1010 l 168 217 m 145 114 q 161 88 155 105 q 166 54 166 71 q 152 1 166 25 q 99 -23 138 -23 q 71 -18 88 -23 q 35 -4 55 -14 q 25 59 18 29 q 50 106 32 88 q 94 128 69 124 q 145 114 120 131 "}}}
